# Exported using Kenney Suite 1.1 

mtllib flagWhiteWide.mtl 

g flagWhiteWide

v 0.144 0 0.144 
v 0.144 0 -0.144 
v -0.144 0 0.144 
v -0.144 0 -0.144 
v 0.144 7.344 0.144 
v -0.144 7.344 0.144 
v 0.144 7.344 -0.144 
v -0.144 7.344 -0.144 
v 0.075168 7.92 -0.075168 
v 0.075168 7.92 0.075168 
v -0.075168 7.92 -0.075168 
v -0.075168 7.92 0.075168 
v 0.2088 7.56 -0.2088 
v 0.2088 7.56 0.2088 
v -0.2088 7.56 -0.2088 
v -0.2088 7.56 0.2088 

vn 0 -1 0
vn 0 0 1
vn 0 1 0
vn 1 0 0
vn 0 0 -1
vn -1 0 0
vn 0.9374951 0.3479982 0
vn 0 0.3479982 -0.9374951
vn -0.9374951 0.3479982 0
vn 0 -0.2873479 -0.9578263
vn 0 -0.2873479 0.9578263
vn 0 0.3479982 0.9374951
vn -0.9578263 -0.2873479 0
vn 0.9578263 -0.2873479 0

vt 0.5669292 0.5669292
vt 0.5669292 -0.5669292
vt -0.5669292 0.5669292
vt -0.5669292 -0.5669292
vt 0.5669292 0
vt -0.5669292 0
vt 0.5669292 28.91339
vt -0.5669292 28.91339
vt -0.295937 -0.295937
vt -0.295937 0.295937
vt 0.295937 -0.295937
vt 0.295937 0.295937
vt 0.8220472 27.61733
vt -0.8220472 27.61733
vt 0.295937 29.12915
vt -0.295937 29.12915
vt 0.5669292 27.85691
vt -0.5669292 27.85691
vt 0.8220472 28.74474
vt -0.8220472 28.74474

usemtl wood
usemap wood

f 2/2/1 1/1/1 3/3/1
f 3/3/1 4/4/1 2/2/1
f 3/6/2 1/5/2 5/7/2
f 5/7/2 6/8/2 3/6/2
f 5/3/3 7/4/3 8/2/3
f 8/2/3 6/1/3 5/3/3
f 2/5/4 7/7/4 5/8/4
f 5/8/4 1/6/4 2/5/4
f 2/6/5 4/5/5 8/7/5
f 8/7/5 7/8/5 2/6/5
f 8/8/6 4/6/6 3/5/6
f 3/5/6 6/7/6 8/8/6

usemtl cotton
usemap cotton

f 10/10/3 9/9/3 11/11/3
f 11/11/3 12/12/3 10/10/3
f 14/14/7 13/13/7 9/15/7
f 9/15/7 10/16/7 14/14/7
f 13/14/8 15/13/8 11/15/8
f 11/15/8 9/16/8 13/14/8
f 11/16/9 15/14/9 16/13/9
f 16/13/9 12/15/9 11/16/9
f 7/18/10 8/17/10 15/19/10
f 15/19/10 13/20/10 7/18/10
f 6/18/11 5/17/11 14/19/11
f 14/19/11 16/20/11 6/18/11
f 16/14/12 14/13/12 10/15/12
f 10/15/12 12/16/12 16/14/12
f 16/19/13 15/20/13 8/18/13
f 8/18/13 6/17/13 16/19/13
f 7/17/14 13/19/14 14/20/14
f 14/20/14 5/18/14 7/17/14
g Group 288

v -0.1447638 7.244 -3.031701 
v -0.1447638 4.744 -3.031701 
v -0.1211621 7.244 -2.955059 
v -0.1211621 4.744 -2.955059 
v 0 7.244 -3.628 
v 0 4.744 -3.628 
v -0.04809853 7.244 -3.568585 
v -0.04809853 4.744 -3.568585 
v 0.1781708 7.244 -2.418907 
v 0.1781708 4.744 -2.418907 
v 0.1958194 7.244 -2.320885 
v 0.1958194 4.744 -2.320885 
v -0.2143638 7.244 -1.334588 
v -0.2143638 4.744 -1.334588 
v -0.2561205 7.244 -1.198991 
v -0.2561205 4.744 -1.198991 
v 0.2017391 7.244 -2.221 
v 0.2017391 4.744 -2.221 
v 0.1958194 7.244 -2.121115 
v 0.1958194 4.744 -2.121115 
v -0.2814904 7.244 -1.058085 
v -0.2814904 4.744 -1.058085 
v -0.29 7.244 -0.9145 
v -0.29 4.744 -0.9145 
v -0.08873869 7.244 -3.502152 
v -0.08873869 4.744 -3.502152 
v -0.1211621 7.244 -3.429941 
v -0.1211621 4.744 -3.429941 
v -0.2561205 7.244 -0.6300092 
v -0.2561205 4.744 -0.6300092 
v -0.2143638 7.244 -0.4944122 
v -0.2143638 4.744 -0.4944122 
v -0.2814904 7.244 -0.7709149 
v -0.2814904 4.744 -0.7709149 
v -0.08509739 7.244 -0.2491189 
v -0.08509739 4.744 -0.2491189 
v 0 7.244 -0.144 
v 0 4.744 -0.144 
v 0.1092168 7.244 -2.60211 
v 0.1092168 4.744 -2.60211 
v 0.1491226 7.244 -2.513235 
v 0.1491226 4.744 -2.513235 
v -0.1569992 7.244 -1.462346 
v -0.1569992 4.744 -1.462346 
v -0.08873869 7.244 -2.882848 
v -0.08873869 4.744 -2.882848 
v -0.04809853 7.244 -2.816415 
v -0.04809853 4.744 -2.816415 
v -0.1569992 7.244 -0.3666541 
v -0.1569992 4.744 -0.3666541 
v 0.1781708 7.244 -2.023093 
v 0.1781708 4.744 -2.023093 
v 0.1491226 7.244 -1.928765 
v 0.1491226 4.744 -1.928765 
v 0.1092168 7.244 -1.83989 
v 0.1092168 4.744 -1.83989 
v 0.05919819 7.244 -1.758126 
v 0.05919819 4.744 -1.758126 
v -0.1591033 7.244 -3.111343 
v -0.1591033 4.744 -3.111343 
v 0 7.244 -1.685 
v 0 4.744 -1.685 
v -0.08509739 7.244 -1.579881 
v -0.08509739 4.744 -1.579881 
v 0 7.244 -2.757 
v 0 4.744 -2.757 
v 0.05919819 7.244 -2.683874 
v 0.05919819 4.744 -2.683874 
v -0.1591033 7.244 -3.273657 
v -0.1591033 4.744 -3.273657 
v -0.1639131 7.244 -3.1925 
v -0.1639131 4.744 -3.1925 
v -0.1447638 7.244 -3.353299 
v -0.1447638 4.744 -3.353299 

vn 0.9717085 0 -0.2361833
vn 0.9357626 0 -0.3526307
vn -0.9357626 0 0.3526307
vn -0.9717085 0 0.2361833
vn 0.7772408 0 0.6292032
vn 0.816906 0 0.5767708
vn -0.816906 0 -0.5767708
vn -0.7772408 0 -0.6292032
vn 0.9929672 0 -0.1183896
vn -0.9929672 0 0.1183896
vn 0.9357626 0 0.3526307
vn 0.9717085 0 0.2361833
vn -0.9717085 0 -0.2361833
vn -0.9357626 0 -0.3526307
vn 0.9929672 0 0.1183896
vn -0.9929672 0 -0.1183896
vn 0.8844318 0 0.4666692
vn -0.8844318 0 -0.4666692
vn 0.816906 0 -0.5767708
vn 0.7772408 0 -0.6292032
vn -0.7772408 0 0.6292032
vn -0.816906 0 0.5767708
vn 0.8844318 0 -0.4666692
vn -0.8844318 0 0.4666692

vt 11.03311 4.92126
vt 11.03311 -4.92126
vt 10.71739 4.92126
vt 10.71739 -4.92126
vt 10.66105 4.92126
vt 10.66105 -4.92126
vt 10.36009 4.92126
vt 10.36009 -4.92126
vt 8.690293 4.92126
vt 8.690293 -4.92126
vt 8.298177 4.92126
vt 8.298177 -4.92126
vt 4.23137 4.92126
vt 4.23137 -4.92126
vt 3.672784 4.92126
vt 3.672784 -4.92126
vt 8.209831 4.92126
vt 8.209831 -4.92126
vt 7.815892 4.92126
vt 7.815892 -4.92126
vt 3.526893 4.92126
vt 3.526893 -4.92126
vt 2.960605 4.92126
vt 2.960605 -4.92126
vt 8.509793 4.92126
vt 8.509793 -4.92126
vt 8.115854 4.92126
vt 8.115854 -4.92126
vt 11.91794 4.92126
vt 11.91794 -4.92126
vt 11.6063 4.92126
vt 11.6063 -4.92126
vt 2.125443 4.92126
vt 2.125443 -4.92126
vt 1.566857 4.92126
vt 1.566857 -4.92126
vt 3.095697 4.92126
vt 3.095697 -4.92126
vt 2.52941 4.92126
vt 2.52941 -4.92126
vt 0.5324656 4.92126
vt 0.5324656 -4.92126
vt 0 4.92126
vt 0 -4.92126
vt 3.909099 4.92126
vt 3.909099 -4.92126
vt 3.345432 4.92126
vt 3.345432 -4.92126
vt 11.4024 4.92126
vt 11.4024 -4.92126
vt 11.09579 4.92126
vt 11.09579 -4.92126
vt 8.652353 4.92126
vt 8.652353 -4.92126
vt 8.268798 4.92126
vt 8.268798 -4.92126
vt 8.741789 4.92126
vt 8.741789 -4.92126
vt 8.353208 4.92126
vt 8.353208 -4.92126
vt 4.481751 4.92126
vt 4.481751 -4.92126
vt 3.93039 4.92126
vt 3.93039 -4.92126
vt 9.380532 4.92126
vt 9.380532 -4.92126
vt 9.073927 4.92126
vt 9.073927 -4.92126
vt 1.604224 4.92126
vt 1.604224 -4.92126
vt 1.052863 4.92126
vt 1.052863 -4.92126
vt 7.276796 4.92126
vt 7.276796 -4.92126
vt 6.888215 4.92126
vt 6.888215 -4.92126
vt 6.650596 4.92126
vt 6.650596 -4.92126
vt 6.26704 4.92126
vt 6.26704 -4.92126
vt 5.919907 4.92126
vt 5.919907 -4.92126
vt 5.542547 4.92126
vt 5.542547 -4.92126
vt 11.60857 4.92126
vt 11.60857 -4.92126
vt 11.28998 4.92126
vt 11.28998 -4.92126
vt 5.085876 4.92126
vt 5.085876 -4.92126
vt 4.715465 4.92126
vt 4.715465 -4.92126
vt 4.182999 4.92126
vt 4.182999 -4.92126
vt 8.296747 4.92126
vt 8.296747 -4.92126
vt 7.995788 4.92126
vt 7.995788 -4.92126
vt 7.625377 4.92126
vt 7.625377 -4.92126
vt 12.26284 4.92126
vt 12.26284 -4.92126
vt 11.94277 4.92126
vt 11.94277 -4.92126
vt 2.625488 4.92126
vt 2.625488 -4.92126
vt 2.061821 4.92126
vt 2.061821 -4.92126
vt 12.22342 4.92126
vt 12.22342 -4.92126
vt 11.9077 4.92126
vt 11.9077 -4.92126
vt 4.647467 4.92126
vt 4.647467 -4.92126
vt 4.105011 4.92126
vt 4.105011 -4.92126
vt 8.408355 4.92126
vt 8.408355 -4.92126
vt 8.030994 4.92126
vt 8.030994 -4.92126
vt 7.797346 4.92126
vt 7.797346 -4.92126
vt 7.40523 4.92126
vt 7.40523 -4.92126
vt 10.29152 4.92126
vt 10.29152 -4.92126
vt 9.979877 4.92126
vt 9.979877 -4.92126
vt 1.070323 4.92126
vt 1.070323 -4.92126
vt 0.5278674 4.92126
vt 0.5278674 -4.92126
vt 12.33409 4.92126
vt 12.33409 -4.92126
vt 12.0155 4.92126
vt 12.0155 -4.92126
vt 12.01912 4.92126
vt 12.01912 -4.92126
vt 11.69905 4.92126
vt 11.69905 -4.92126

usemtl cotton
usemap cotton

f 18/22/15 17/21/15 19/23/16
f 19/23/16 20/24/16 18/22/15
f 18/22/18 19/23/17 17/21/18
f 19/23/17 18/22/18 20/24/17
f 22/26/19 21/25/19 23/27/20
f 23/27/20 24/28/20 22/26/19
f 22/26/22 23/27/21 21/25/22
f 23/27/21 22/26/22 24/28/21
f 26/30/15 25/29/15 27/31/23
f 27/31/23 28/32/23 26/30/15
f 26/30/18 27/31/24 25/29/18
f 27/31/24 26/30/18 28/32/24
f 30/34/25 29/33/25 31/35/26
f 31/35/26 32/36/26 30/34/25
f 30/34/28 31/35/27 29/33/28
f 31/35/27 30/34/28 32/36/27
f 34/38/4 33/37/4 35/39/29
f 35/39/29 36/40/29 34/38/4
f 34/38/6 35/39/30 33/37/6
f 35/39/30 34/38/6 36/40/30
f 38/42/29 37/41/29 39/43/4
f 39/43/4 40/44/4 38/42/29
f 38/42/30 39/43/6 37/41/30
f 39/43/6 38/42/30 40/44/6
f 28/46/23 27/45/23 33/47/4
f 33/47/4 34/48/4 28/46/23
f 28/46/24 33/47/6 27/45/24
f 33/47/6 28/46/24 34/48/6
f 42/50/31 41/49/31 43/51/25
f 43/51/25 44/52/25 42/50/31
f 42/50/32 43/51/28 41/49/32
f 43/51/28 42/50/32 44/52/28
f 46/54/15 45/53/15 47/55/16
f 47/55/16 48/56/16 46/54/15
f 46/54/18 47/55/17 45/53/18
f 47/55/17 46/54/18 48/56/17
f 40/58/4 39/57/4 49/59/23
f 49/59/23 50/60/23 40/58/4
f 40/58/6 49/59/24 39/57/6
f 49/59/24 40/58/6 50/60/24
f 52/62/33 51/61/33 53/63/34
f 53/63/34 54/64/34 52/62/33
f 52/62/36 53/63/35 51/61/36
f 53/63/35 52/62/36 54/64/35
f 32/66/26 31/65/26 37/67/29
f 37/67/29 38/68/29 32/66/26
f 32/66/27 37/67/30 31/65/27
f 37/67/30 32/66/27 38/68/30
f 24/70/20 23/69/20 41/71/31
f 41/71/31 42/72/31 24/70/20
f 24/70/21 41/71/32 23/69/21
f 41/71/32 24/70/21 42/72/32
f 56/74/37 55/73/37 57/75/16
f 57/75/16 58/76/16 56/74/37
f 56/74/38 57/75/17 55/73/38
f 57/75/17 56/74/38 58/76/17
f 58/78/16 57/77/16 25/79/15
f 25/79/15 26/80/15 58/78/16
f 58/78/17 25/79/18 57/77/17
f 25/79/18 58/78/17 26/80/18
f 60/82/31 59/81/31 29/83/25
f 29/83/25 30/84/25 60/82/31
f 60/82/32 29/83/28 59/81/32
f 29/83/28 60/82/32 30/84/28
f 62/86/37 61/85/37 63/87/33
f 63/87/33 64/88/33 62/86/37
f 62/86/38 63/87/36 61/85/38
f 63/87/36 62/86/38 64/88/36
f 48/90/16 47/89/16 65/91/37
f 65/91/37 66/92/37 48/90/16
f 48/90/17 65/91/38 47/89/17
f 65/91/38 48/90/17 66/92/38
f 68/94/26 67/93/26 69/95/25
f 69/95/25 70/96/25 68/94/26
f 68/94/27 69/95/28 67/93/27
f 69/95/28 68/94/27 70/96/28
f 70/98/25 69/97/25 71/99/31
f 71/99/31 72/100/31 70/98/25
f 70/98/28 71/99/32 69/97/28
f 71/99/32 70/98/28 72/100/32
f 72/102/31 71/101/31 73/103/20
f 73/103/20 74/104/20 72/102/31
f 72/102/32 73/103/21 71/101/32
f 73/103/21 72/102/32 74/104/21
f 76/106/23 75/105/23 17/107/15
f 17/107/15 18/108/15 76/106/23
f 76/106/24 17/107/18 75/105/24
f 17/107/18 76/106/24 18/108/18
f 74/110/20 73/109/20 77/111/19
f 77/111/19 78/112/19 74/110/20
f 78/112/19 77/111/19 79/113/20
f 79/113/20 80/114/20 78/112/19
f 74/110/21 77/111/22 73/109/21
f 77/111/22 74/110/21 78/112/22
f 78/112/22 79/113/21 77/111/22
f 79/113/21 78/112/22 80/114/21
f 64/116/33 63/115/33 81/117/34
f 81/117/34 82/118/34 64/116/33
f 82/118/34 81/117/34 83/119/33
f 83/119/33 84/120/33 82/118/34
f 64/116/36 81/117/35 63/115/36
f 81/117/35 64/116/36 82/118/35
f 82/118/35 83/119/36 81/117/35
f 83/119/36 82/118/35 84/120/36
f 86/122/29 85/121/29 87/123/4
f 87/123/4 88/124/4 86/122/29
f 86/122/30 87/123/6 85/121/30
f 87/123/6 86/122/30 88/124/6
f 50/126/23 49/125/23 45/127/15
f 45/127/15 46/128/15 50/126/23
f 50/126/24 45/127/18 49/125/24
f 45/127/18 50/126/24 46/128/18
f 44/130/25 43/129/25 89/131/26
f 89/131/26 90/132/26 44/130/25
f 44/130/28 89/131/27 43/129/28
f 89/131/27 44/130/28 90/132/27
f 80/134/20 79/133/20 59/135/31
f 59/135/31 60/136/31 80/134/20
f 80/134/21 59/135/32 79/133/21
f 59/135/32 80/134/21 60/136/32
f 84/138/33 83/137/33 55/139/37
f 55/139/37 56/140/37 84/138/33
f 84/138/36 55/139/38 83/137/36
f 55/139/38 84/138/36 56/140/38
f 36/142/29 35/141/29 67/143/26
f 67/143/26 68/144/26 36/142/29
f 36/142/30 67/143/27 35/141/30
f 67/143/27 36/142/30 68/144/27
f 20/146/16 19/145/16 61/147/37
f 61/147/37 62/148/37 20/146/16
f 20/146/17 61/147/38 19/145/17
f 61/147/38 20/146/17 62/148/38
f 66/150/37 65/149/37 51/151/33
f 51/151/33 52/152/33 66/150/37
f 66/150/38 51/151/36 65/149/38
f 51/151/36 66/150/38 52/152/36
f 90/154/26 89/153/26 85/155/29
f 85/155/29 86/156/29 90/154/26
f 90/154/27 85/155/30 89/153/27
f 85/155/30 90/154/27 86/156/30
f 88/158/4 87/157/4 75/159/23
f 75/159/23 76/160/23 88/158/4
f 88/158/6 75/159/24 87/157/6
f 75/159/24 88/158/6 76/160/24
