# Exported using Kenney Suite 1.1 

mtllib flagBlue.mtl 

g flagBlue

v 0.144 0 0.144 
v 0.144 0 -0.144 
v -0.144 0 0.144 
v -0.144 0 -0.144 
v 0.144 7.344 0.144 
v -0.144 7.344 0.144 
v 0.144 7.344 -0.144 
v -0.144 7.344 -0.144 
v 0.075168 7.92 -0.075168 
v 0.075168 7.92 0.075168 
v -0.075168 7.92 -0.075168 
v -0.075168 7.92 0.075168 
v 0.2088 7.56 -0.2088 
v 0.2088 7.56 0.2088 
v -0.2088 7.56 -0.2088 
v -0.2088 7.56 0.2088 

vn 0 -1 0
vn 0 0 1
vn 0 1 0
vn 1 0 0
vn 0 0 -1
vn -1 0 0
vn 0.9374951 0.3479982 0
vn 0 0.3479982 -0.9374951
vn -0.9374951 0.3479982 0
vn 0 -0.2873479 -0.9578263
vn 0 -0.2873479 0.9578263
vn 0 0.3479982 0.9374951
vn -0.9578263 -0.2873479 0
vn 0.9578263 -0.2873479 0

vt 0.5669292 0.5669292
vt 0.5669292 -0.5669292
vt -0.5669292 0.5669292
vt -0.5669292 -0.5669292
vt 0.5669292 0
vt -0.5669292 0
vt 0.5669292 28.91339
vt -0.5669292 28.91339
vt -0.295937 -0.295937
vt -0.295937 0.295937
vt 0.295937 -0.295937
vt 0.295937 0.295937
vt 0.8220472 27.61733
vt -0.8220472 27.61733
vt 0.295937 29.12915
vt -0.295937 29.12915
vt 0.5669292 27.85691
vt -0.5669292 27.85691
vt 0.8220472 28.74474
vt -0.8220472 28.74474

usemtl wood
usemap wood

f 2/2/1 1/1/1 3/3/1
f 3/3/1 4/4/1 2/2/1
f 3/6/2 1/5/2 5/7/2
f 5/7/2 6/8/2 3/6/2
f 5/3/3 7/4/3 8/2/3
f 8/2/3 6/1/3 5/3/3
f 2/5/4 7/7/4 5/8/4
f 5/8/4 1/6/4 2/5/4
f 2/6/5 4/5/5 8/7/5
f 8/7/5 7/8/5 2/6/5
f 8/8/6 4/6/6 3/5/6
f 3/5/6 6/7/6 8/8/6

usemtl roof
usemap roof

f 10/10/3 9/9/3 11/11/3
f 11/11/3 12/12/3 10/10/3
f 14/14/7 13/13/7 9/15/7
f 9/15/7 10/16/7 14/14/7
f 13/14/8 15/13/8 11/15/8
f 11/15/8 9/16/8 13/14/8
f 11/16/9 15/14/9 16/13/9
f 16/13/9 12/15/9 11/16/9
f 7/18/10 8/17/10 15/19/10
f 15/19/10 13/20/10 7/18/10
f 6/18/11 5/17/11 14/19/11
f 14/19/11 16/20/11 6/18/11
f 16/14/12 14/13/12 10/15/12
f 10/15/12 12/16/12 16/14/12
f 16/19/13 15/20/13 8/18/13
f 8/18/13 6/17/13 16/19/13
f 7/17/14 13/19/14 14/20/14
f 14/20/14 5/18/14 7/17/14
g flag

v 0.2150604 7.173846 -2.468494 
v 0.2115883 5.800329 -2.468442 
v 0.1143798 5.770269 -2.348603 
v 0.3520806 7.088019 -2.743138 
v 0.3463962 5.869122 -2.743054 
v 0.2894959 5.833523 -2.600893 
v 0 5.744 -2.244 
v 0.1162568 7.211303 -2.348631 
v 0 6.743999 -3.844 
v 0.1143798 6.117954 -3.739341 
v 0.1162568 6.776697 -3.739369 
v 0.3872956 7.04153 -2.891903 
v 0.3810427 5.906347 -2.89181 
v -0.5 7.244 -1.194 
v -0.5 5.744 -1.194 
v -0.4851865 7.244 -0.994373 
v -0.4851865 5.744 -0.994373 
v 0 7.244 -2.244 
v -0.4410707 7.244 -0.7991189 
v -0.4410707 5.744 -0.7991189 
v -0.3686188 7.244 -0.6125149 
v -0.3686188 5.744 -0.6125149 
v -0.4851865 7.244 -1.393627 
v -0.4851865 5.744 -1.393627 
v -0.1456413 7.244 -2.106672 
v -0.1456413 5.744 -2.106672 
v -0.269418 7.244 -1.949352 
v -0.269418 5.744 -1.949352 
v -0.269418 7.244 -0.4386483 
v -0.269418 5.744 -0.4386483 
v -0.1456413 7.244 -0.281328 
v -0.1456413 5.744 -0.281328 
v 0.2150604 6.814155 -3.619506 
v 0.2115883 6.088083 -3.619454 
v 0.3872956 6.946469 -3.196097 
v 0.3520806 6.899981 -3.344862 
v 0.3810427 5.982395 -3.196004 
v 0.3463962 6.019553 -3.344778 
v 0.2894959 6.055041 -3.486966 
v 0.3991203 6.994 -3.044 
v -0.3686188 7.244 -1.775485 
v -0.3686188 5.744 -1.775485 
v 0.2942466 6.855551 -3.487036 
v 0 6.144 -3.844 
v -0.2857143 6.743999 -4.444 
v -0.2772495 6.743999 -4.558073 
v -0.3194277 6.446323 -4.442839 
v 0 5.744 -0.144 
v 0 7.244 -0.144 
v 0.3926765 5.944383 -3.043904 
v -0.09304374 6.70544 -4.965189 
v -0.0832236 6.743999 -4.965527 
v -7.219114E-15 6.743999 -5.044 
v 0.2942466 7.132449 -2.600964 
v -0.2520404 6.743999 -4.218354 
v -0.2817804 6.333226 -4.21733 
v -0.2354942 6.279573 -4.110867 
v -0.2520404 6.743999 -4.669646 
v -0.3099641 6.50329 -4.556946 
v -0.1539532 6.743999 -4.012371 
v -0.1721192 6.229437 -4.011745 
v -0.09304374 6.183913 -3.922135 
v -0.0832236 6.743999 -3.922473 
v -0.1539532 6.743999 -4.875629 
v -0.1721192 6.661067 -4.875004 
v -0.2106394 6.743999 -4.776277 
v -0.2817804 6.558872 -4.668622 
v -0.4410707 7.244 -1.588881 
v -0.4410707 5.744 -1.588881 
v -0.2772495 6.743999 -4.329927 
v -0.3099641 6.389217 -4.3288 
v -0.2106394 6.743999 -4.111723 
v -0.2354942 6.611851 -4.775421 

vn 0.8102793 -0.001516571 0.5860419
vn 0.8160706 -0.002426276 0.5779472
vn 0.7217604 -0.001310152 0.6921418
vn -0.7217604 0.001310152 -0.6921418
vn -0.8160706 0.002426276 -0.5779472
vn -0.8102793 0.001516571 -0.5860419
vn 0.9478409 -0.00388474 0.3187203
vn 0.9506813 -0.004727471 0.3101333
vn 0.8931673 -0.003605501 0.4497102
vn -0.8931673 0.003605501 -0.4497102
vn -0.9506813 0.004727471 -0.3101333
vn -0.9478409 0.00388474 -0.3187203
vn 0.6745193 -0.0007994407 0.7382569
vn 0.7150779 -0.0004564305 0.6990446
vn -0.7150779 0.0004564305 -0.6990446
vn -0.6745193 0.0007994407 -0.7382569
vn 0.6700581 -0.001673539 -0.7423067
vn 0.7330019 -0.001398322 -0.6802251
vn 0.7302888 -0.002868412 -0.6831324
vn -0.7302888 0.002868412 0.6831324
vn -0.7330019 0.001398322 0.6802251
vn -0.6700581 0.001673539 0.7423067
vn 0.9854029 -0.004959294 0.1701659
vn 0.9866962 -0.0056601 0.1624766
vn -0.9866962 0.0056601 -0.1624766
vn -0.9854029 0.004959294 -0.1701659
vn 0.9890473 0 -0.1475985
vn -0.9890473 0 0.1475985
vn 0.6689638 0 0.7432951
vn -0.6689638 0 -0.7432951
vn 0.9564293 0 -0.2919638
vn 0.9028605 0 -0.4299336
vn -0.9028605 0 0.4299336
vn -0.9564293 0 0.2919638
vn 0.9890473 0 0.1475985
vn -0.9890473 0 -0.1475985
vn 0.7379972 0 0.6748036
vn 0.8295143 0 0.5584855
vn -0.8295143 0 -0.5584855
vn -0.7379972 0 -0.6748036
vn 0.8295143 0 -0.5584855
vn 0.7379972 0 -0.6748036
vn -0.7379972 0 0.6748036
vn -0.8295143 0 0.5584855
vn 0.8249989 -0.004502542 -0.5651165
vn 0.8263578 -0.003432723 -0.5631351
vn -0.8263578 0.003432723 0.5631351
vn -0.8249989 0.004502542 0.5651165
vn 0.9904357 -0.006437145 -0.137825
vn 0.957267 -0.006223781 -0.2891387
vn 0.9898689 -0.006239567 -0.1418478
vn 0.956741 -0.00602462 -0.2908787
vn -0.9898689 0.006239567 0.1418478
vn -0.957267 0.006223781 0.2891387
vn -0.9904357 0.006437145 0.137825
vn -0.956741 0.00602462 0.2908787
vn 0.9016734 -0.005019712 -0.4323886
vn -0.9016734 0.005019712 0.4323886
vn 0.9998468 -0.00591278 0.01647135
vn -0.9998468 0.00591278 -0.01647135
vn 0.9028605 0 0.4299336
vn -0.9028605 0 -0.4299336
vn 0.901496 -0.005646412 -0.4327506
vn -0.901496 0.005646412 0.4327506
vn 0.6750602 0 -0.7377627
vn -0.6750602 0 0.7377627
vn 0.9945312 -0.1042515 -0.006270185
vn 0.9821839 -0.1243327 0.1409118
vn 0.9900186 -0.1177331 -0.07747252
vn -0.9900186 0.1177331 0.07747252
vn -0.9821839 0.1243327 -0.1409118
vn -0.9945312 0.1042515 0.006270185
vn 0.6860368 0 -0.7275668
vn -0.6860368 0 0.7275668
vn 0.9999274 -0.006137816 0.0103706
vn -0.9999274 0.006137816 -0.0103706
vn 0.7491949 -0.1852198 0.635925
vn 0.7247609 -0.173724 0.6667395
vn 0.676519 -0.1659959 0.7174729
vn -0.676519 0.1659959 -0.7174729
vn -0.7247609 0.173724 -0.6667395
vn -0.7491949 0.1852198 -0.635925
vn 0.8887334 -0.002695989 0.4584164
vn -0.8887334 0.002695989 -0.4584164
vn 0.9526743 -0.06208213 -0.2975859
vn 0.9260416 -0.07328348 -0.3702385
vn 0.8627102 -0.05222575 -0.5029947
vn -0.8627102 0.05222575 0.5029947
vn -0.9260416 0.07328348 0.3702385
vn -0.9526743 0.06208213 0.2975859
vn 0.9479783 -0.1424125 0.2847031
vn 0.9874303 -0.1388679 0.07547865
vn -0.9874303 0.1388679 -0.07547865
vn -0.9479783 0.1424125 -0.2847031
vn 0.8262555 -0.02354635 -0.5628031
vn 0.7815772 -0.03319849 -0.6229245
vn 0.6853498 -0.01694109 -0.7280169
vn -0.6853498 0.01694109 0.7280169
vn -0.7815772 0.03319849 0.6229245
vn -0.8262555 0.02354635 0.5628031
vn 0.7349561 -0.007796094 -0.6780698
vn 0.6471615 -0.009933391 -0.7622882
vn -0.6471615 0.009933391 0.7622882
vn -0.7349561 0.007796094 0.6780698
vn 0.6860368 0 0.7275668
vn -0.6860368 0 -0.7275668
vn 0.8179032 -0.1683278 0.5501819
vn 0.8397805 -0.1820776 0.5114846
vn -0.8397805 0.1820776 -0.5114846
vn -0.8179032 0.1683278 -0.5501819
vn 0.8927996 -0.1574505 0.4220407
vn 0.9609657 -0.1575627 0.2274179
vn -0.9609657 0.1575627 -0.2274179
vn -0.8927996 0.1574505 -0.4220407
vn 0.9564293 0 0.2919638
vn -0.9564293 0 -0.2919638
vn 0.9846326 -0.08317518 -0.1535595
vn 0.9691318 -0.09547181 -0.2273076
vn -0.9691318 0.09547181 0.2273076
vn -0.9846326 0.08317518 0.1535595
vn 0.8994358 -0.04191159 -0.4350386
vn -0.8994358 0.04191159 0.4350386
vn 0.9112126 -0.1724306 0.3741113
vn -0.9112126 0.1724306 -0.3741113

vt 7.642638 2.666648
vt 7.633873 -2.740906
vt 7.026361 -2.859254
vt 10.01771 2.327849
vt 10.0091 -2.471004
vt 9.406249 -2.611159
vt 6.190714 -2.854609
vt 5.580483 -2.958031
vt 6.19624 2.818754
vt 9.749134 1.00523
vt 9.138775 -1.459524
vt 9.133357 1.133959
vt 6.987429 2.818895
vt 7.598989 2.671425
vt 6.982643 -2.85447
vt 10.88364 2.150494
vt 10.87773 -2.318796
vt 10.2764 -2.465353
vt 4.268197 2.952756
vt 4.268197 -2.952756
vt 3.480103 2.952756
vt 3.480103 -2.952756
vt 6.14658 2.824027
vt 5.530803 -2.952756
vt 5.530803 2.952756
vt 3.032851 2.952756
vt 3.032851 -2.952756
vt 2.244757 2.952756
vt 2.244757 -2.952756
vt 10.27555 2.334013
vt 10.87742 2.150983
vt 10.27004 -2.464845
vt 4.764944 2.952756
vt 4.764944 -2.952756
vt 3.97685 2.952756
vt 3.97685 -2.952756
vt 5.718225 2.952756
vt 5.718225 -2.952756
vt 4.93013 2.952756
vt 4.93013 -2.952756
vt 1.567556 2.952756
vt 1.567556 -2.952756
vt 0.7794622 2.952756
vt 0.7794622 -2.952756
vt 10.02826 1.295381
vt 10.63982 1.147911
vt 10.03679 -1.563189
vt 10.70256 1.133746
vt 10.70713 -1.459739
vt 10.09947 -1.577342
vt 11.34993 1.808142
vt 11.9518 1.625111
vt 11.35519 -1.987503
vt 11.95732 -1.841344
vt 11.35894 1.292341
vt 11.3657 -1.566235
vt 10.7606 -1.696321
vt 10.90531 2.159235
vt 11.50592 1.972105
vt 10.90299 -2.310059
vt 2.321312 2.952756
vt 2.321312 -2.952756
vt 1.533218 2.952756
vt 1.533218 -2.952756
vt 5.647863 2.952756
vt 5.647863 -2.952756
vt 4.85977 2.952756
vt 4.85977 -2.952756
vt 11.16119 1.634521
vt 11.76547 1.459599
vt 11.16928 -1.831794
vt 9.833554 -1.377953
vt 9.223176 -1.480497
vt 9.833554 0.984252
vt 11.78139 1.456538
vt 11.78811 -1.695125
vt 11.18515 -1.834845
vt 16.79947 0.7122379
vt 17.24981 0.7122379
vt 16.78509 -0.4671333
vt 0.7880939 -2.952756
vt 0 -2.952756
vt 0.7880939 2.952756
vt 0 2.952756
vt 11.50284 1.97283
vt 11.50056 -2.1596
vt 10.90002 -2.309349
vt 12.75519 -1.513224
vt 12.78423 -1.359278
vt 13.23457 -1.359278
vt 8.287253 2.668009
vt 8.894863 2.505029
vt 8.280059 -2.739547
vt 14.93039 1.37697
vt 14.9767 -0.2438278
vt 14.51988 -0.4555234
vt 3.686586 2.952756
vt 3.686586 -2.952756
vt 2.898492 2.952756
vt 2.898492 -2.952756
vt 16.7104 0.3375299
vt 17.16074 0.3375299
vt 16.67769 -0.6183095
vt 17.35975 0.793048
vt 17.35337 -0.1633298
vt 16.90361 -0.3896704
vt 11.72067 1.247295
vt 11.76672 -0.7792852
vt 11.29622 -0.9585778
vt 10.44379 0.984252
vt 9.993449 -1.377953
vt 9.993449 0.984252
vt 5.671958 -2.952756
vt 4.883864 -2.952756
vt 5.671958 2.952756
vt 4.883864 2.952756
vt 14.26552 -1.010635
vt 14.71586 -1.010635
vt 14.21936 -1.341693
vt 16.25035 -0.1041202
vt 16.70069 -0.1041202
vt 16.20421 -0.8408827
vt 5.165945 2.952756
vt 5.165945 -2.952756
vt 4.377851 2.952756
vt 4.377851 -2.952756
vt 16.51562 0.9921234
vt 16.96596 0.9921234
vt 16.52073 -0.4105809
vt 11.89371 1.110681
vt 12.34405 1.110681
vt 11.91657 -1.094606
vt 9.803238 -1.089919
vt 9.324896 -1.247068
vt 9.774387 1.115298
vt 16.09991 1.307868
vt 16.13263 -0.09446353
vt 15.68038 -0.3157798
vt 13.52851 1.203184
vt 13.97885 1.203184
vt 13.56181 -0.8236451
vt 8.927656 2.501375
vt 8.917946 -2.612532
vt 8.312967 -2.743215
vt 14.95378 -1.306262
vt 14.92943 -1.46102
vt 14.45848 -1.63911
vt 17.38799 0.3484636
vt 17.36407 -0.3893545
vt 16.91192 -0.6108736
vt 5.462416 2.952756
vt 5.462416 -2.952756
vt 4.674323 2.952756
vt 4.674323 -2.952756
vt 15.42939 -0.5712448
vt 15.87973 -0.5712448
vt 15.37797 -1.098146
vt 15.86505 1.164019
vt 16.31539 1.164019
vt 15.88692 -0.4572932
vt 10.71335 1.463179
vt 11.32096 1.300198
vt 10.72268 -1.688477
vt 9.394122 2.504877
vt 9.998403 2.329956
vt 9.386801 -2.609034
vt 11.2605 1.983508
vt 11.86266 -1.999262
vt 11.2621 -2.148922
vt 11.86671 1.797058
vt 11.86821 -1.998591
vt 11.2661 1.984188
vt 16.99252 -0.1869161
vt 16.95773 -0.7151763
vt 16.50094 -0.9269574
vt 16.17484 -0.7616272
vt 16.13916 -1.093979
vt 15.67591 -1.291206
vt 14.86202 1.229436
vt 15.31236 1.229436
vt 14.8943 -0.6013487
vt 16.92162 1.116119
vt 16.93549 -0.06325791
vt 16.48569 -0.2895044
vt 13.45528 1.346233
vt 13.50678 -0.4841122
vt 13.04367 -0.6817065

usemtl roof
usemap roof

f 18/22/16 17/21/15 19/23/17
f 18/22/19 19/23/18 17/21/20
f 21/25/22 20/24/21 22/26/23
f 21/25/25 22/26/24 20/24/26
f 23/28/27 19/27/17 24/29/28
f 23/28/30 24/29/29 19/27/18
f 26/31/32 25/30/31 27/32/33
f 26/31/35 27/32/34 25/30/36
f 17/34/15 24/33/28 19/35/17
f 17/34/20 19/35/18 24/33/29
f 29/37/38 28/36/37 21/38/22
f 29/37/39 21/38/25 28/36/40
f 31/40/4 30/39/4 32/41/41
f 32/41/41 33/42/41 31/40/4
f 31/40/6 32/41/42 30/39/6
f 32/41/42 31/40/6 33/42/42
f 23/44/27 24/43/28 34/45/43
f 23/44/30 34/45/44 24/43/29
f 36/47/45 35/46/45 37/48/46
f 37/48/46 38/49/46 36/47/45
f 36/47/48 37/48/47 35/46/48
f 37/48/47 36/47/48 38/49/47
f 28/51/37 20/50/21 21/52/22
f 28/51/40 21/52/25 20/50/26
f 40/54/49 39/53/49 30/55/4
f 30/55/4 31/56/4 40/54/49
f 40/54/50 30/55/6 39/53/50
f 30/55/6 40/54/50 31/56/6
f 42/58/51 41/57/51 43/59/52
f 43/59/52 44/60/52 42/58/51
f 42/58/54 43/59/53 41/57/54
f 43/59/53 42/58/54 44/60/53
f 46/62/55 45/61/55 47/63/56
f 47/63/56 48/64/56 46/62/55
f 46/62/58 47/63/57 45/61/58
f 47/63/57 46/62/58 48/64/57
f 27/66/33 49/65/59 50/67/60
f 27/66/34 50/67/61 49/65/62
f 26/69/32 27/68/33 50/70/60
f 26/69/35 50/70/61 27/68/34
f 52/72/64 51/71/63 53/73/65
f 54/74/66 52/72/64 53/73/65
f 52/72/68 53/73/67 51/71/69
f 54/74/70 53/73/67 52/72/68
f 50/76/60 49/75/59 55/77/71
f 50/76/61 55/77/72 49/75/62
f 56/79/73 28/78/37 29/80/38
f 56/79/74 29/80/39 28/78/40
f 38/82/46 37/81/46 45/83/55
f 45/83/55 46/84/55 38/82/46
f 38/82/47 45/83/58 37/81/47
f 45/83/58 38/82/47 46/84/58
f 44/86/52 43/85/52 57/87/75
f 57/87/75 58/88/75 44/86/52
f 44/86/53 57/87/76 43/85/53
f 57/87/76 44/86/53 58/88/76
f 59/90/77 52/89/64 54/91/66
f 59/90/78 54/91/70 52/89/68
f 26/93/32 60/92/79 25/94/31
f 26/93/35 25/94/36 60/92/80
f 55/96/71 59/95/77 54/97/66
f 55/96/72 54/97/70 59/95/78
f 62/99/82 61/98/81 63/100/83
f 62/99/85 63/100/84 61/98/86
f 64/102/87 48/101/56 47/103/56
f 47/103/56 65/104/87 64/102/87
f 64/102/88 47/103/57 48/101/57
f 47/103/57 64/102/88 65/104/88
f 66/106/89 56/105/73 29/107/38
f 66/106/90 29/107/39 56/105/74
f 68/109/92 67/108/91 69/110/93
f 68/109/95 69/110/94 67/108/96
f 70/112/97 17/111/15 18/113/16
f 70/112/98 18/113/19 17/111/20
f 72/115/100 71/114/99 73/116/101
f 72/115/103 73/116/102 71/114/104
f 33/118/41 32/117/41 35/119/45
f 35/119/45 36/120/45 33/118/41
f 33/118/42 35/119/48 32/117/42
f 35/119/48 33/118/42 36/120/48
f 74/122/105 62/121/82 75/123/106
f 74/122/108 75/123/107 62/121/85
f 75/125/106 62/124/82 63/126/83
f 75/125/107 63/126/84 62/124/85
f 77/128/110 76/127/109 78/129/111
f 77/128/113 78/129/112 76/127/114
f 60/131/116 79/130/115 25/132/87
f 60/131/117 25/132/88 79/130/118
f 42/134/51 23/133/119 34/135/119
f 34/135/119 41/136/51 42/134/51
f 42/134/54 34/135/120 23/133/120
f 34/135/120 42/134/54 41/136/54
f 68/138/92 80/137/121 81/139/122
f 68/138/95 81/139/123 80/137/124
f 82/141/125 74/140/105 83/142/126
f 82/141/128 83/142/127 74/140/108
f 85/144/129 84/143/129 39/145/49
f 39/145/49 40/146/49 85/144/129
f 85/144/130 39/145/50 84/143/130
f 39/145/50 85/144/130 40/146/50
f 61/148/81 86/147/131 87/149/132
f 61/148/86 87/149/133 86/147/134
f 76/151/109 79/150/115 78/152/111
f 76/151/114 78/152/112 79/150/118
f 60/154/116 78/153/111 79/155/115
f 60/154/117 79/155/118 78/153/112
f 87/157/132 86/156/131 72/158/100
f 87/157/133 72/158/103 86/156/134
f 88/160/135 76/159/109 77/161/110
f 88/160/136 77/161/113 76/159/114
f 22/163/23 70/162/97 18/164/16
f 22/163/24 18/164/19 70/162/98
f 67/166/91 68/165/92 81/167/122
f 67/166/96 81/167/123 68/165/95
f 83/169/126 74/168/105 75/170/106
f 83/169/127 75/170/107 74/168/108
f 58/172/75 57/171/75 84/173/129
f 84/173/129 85/174/129 58/172/75
f 58/172/76 84/173/130 57/171/76
f 84/173/130 58/172/76 85/174/130
f 80/176/121 82/175/125 89/177/137
f 80/176/124 89/177/138 82/175/128
f 86/179/131 71/178/99 72/180/100
f 86/179/134 72/180/103 71/178/104
f 49/182/59 59/181/77 55/183/71
f 49/182/62 55/183/72 59/181/78
f 20/185/21 70/184/97 22/186/23
f 20/185/26 22/186/24 70/184/98
f 53/188/65 56/187/73 66/189/89
f 53/188/67 66/189/90 56/187/74
f 53/191/65 51/190/63 56/192/73
f 53/191/67 56/192/74 51/190/69
f 89/194/137 82/193/125 83/195/126
f 89/194/138 83/195/127 82/193/128
f 81/197/122 80/196/121 89/198/137
f 81/197/123 89/198/138 80/196/124
f 71/200/99 88/199/135 73/201/101
f 71/200/104 73/201/102 88/199/136
f 63/203/83 61/202/81 87/204/132
f 63/203/84 87/204/133 61/202/86
f 73/206/101 88/205/135 77/207/110
f 73/206/102 77/207/113 88/205/136
