# Exported using Kenney Suite 1.1 

mtllib flagBannerLong.mtl 

g flagBannerLong

v 0.4 0.4 -1.575 
v 0 0.4 -1.575 
v 0.4 0.9 -1.575 
v 0 0.9 -1.575 
v 0 -19.47819 -1.575 
v 0.4 -19.47819 -1.575 
v 0.4 0.9 -3.15 
v 0 0.9 -3.15 
v 0 0.4 1.575 
v 0.4 0.4 1.575 
v 0 0.9 1.575 
v 0.4 0.9 1.575 
v 0.4 -19.47819 1.575 
v 0 -19.47819 1.575 
v 0.4 0.9 3.15 
v 0 0.9 3.15 
v 0.4 -18.15638 3.15 
v 0 -18.15638 -3.15 
v 0 -18.15638 3.15 
v 0.4 -18.15638 -3.15 
v 0.4 -20.8 0 
v 0 -20.8 0 
v 0.4 -8.309847 -1.039231 
v 0.4 -7.369393 -0.5896826 
v 0.4 -7.109847 -1.039231 
v 0.4 -6.509847 0 
v 0.4 -7.02894 -3.609557E-15 
v 0.4 -7.369393 0.5896826 
v 0.4 -7.109847 1.039231 
v 0.4 -8.0503 0.5896826 
v 0.4 -8.0503 -0.5896826 
v 0.4 -8.909846 0 
v 0.4 -8.390753 3.609557E-15 
v 0.4 -8.309847 1.039231 

vn 0 0 1
vn 0 1 0
vn 0 0 -1
vn 1 0 0
vn -1 0 0
vn 0 -0.7659899 -0.6428526
vn 0 -0.7659899 0.6428526

vt 1.574803 1.574803
vt 0 1.574803
vt 1.574803 3.543307
vt 0 3.543307
vt 0 -76.68579
vt 1.574803 -76.68579
vt -1.574803 -12.40158
vt -1.574803 -6.200788
vt 0 -12.40158
vt 0 -6.200788
vt -1.574803 1.574803
vt -1.574803 3.543307
vt -1.574803 -76.68579
vt -1.574803 6.200788
vt -1.574803 12.40158
vt 0 6.200788
vt 0 12.40158
vt -6.200788 3.543307
vt -6.200788 1.574803
vt -12.40158 3.543307
vt -6.200788 -76.68579
vt -12.40158 -71.48181
vt 1.574803 -71.48181
vt 0 -71.48181
vt -1.574803 -71.48181
vt 6.200788 -76.68579
vt 6.200788 1.574803
vt 12.40158 -71.48181
vt 6.200788 3.543307
vt 12.40158 3.543307
vt -1.574803 -52.64305
vt -1.574803 -44.54792
vt 0 -52.64305
vt 0 -44.54792
vt -1.574803 -36.45279
vt 0 -36.45279
vt 1.574803 -36.45279
vt 1.574803 -44.54792
vt 1.574803 -52.64305
vt 4.091459 -32.71593
vt 2.321585 -29.01336
vt 4.091459 -27.99152
vt 0 -25.62932
vt 1.421085E-14 -27.67299
vt -2.321585 -29.01336
vt -4.091459 -27.99152
vt -2.321585 -31.69409
vt 2.321585 -31.69409
vt 0 -35.07814
vt -1.421085E-14 -33.03446
vt -4.091459 -32.71593
vt 0 -81.88976

usemtl cotton
usemap cotton

f 2/2/1 1/1/1 3/3/1
f 3/3/1 4/4/1 2/2/1
f 1/1/1 2/2/1 5/5/1
f 5/5/1 6/6/1 1/1/1
f 3/8/2 7/7/2 8/9/2
f 8/9/2 4/10/2 3/8/2
f 10/11/3 9/2/3 11/4/3
f 11/4/3 12/12/3 10/11/3
f 9/2/3 10/11/3 13/13/3
f 13/13/3 14/5/3 9/2/3
f 15/15/2 12/14/2 11/16/2
f 11/16/2 16/17/2 15/15/2
f 10/19/4 12/18/4 15/20/4
f 15/20/4 13/21/4 10/19/4
f 15/20/4 17/22/4 13/21/4
f 8/20/5 18/22/5 5/21/5
f 5/21/5 4/18/5 8/20/5
f 5/21/5 2/19/5 4/18/5
f 19/24/1 17/23/1 15/3/1
f 15/3/1 16/4/1 19/24/1
f 20/25/3 18/24/3 8/4/3
f 8/4/3 7/12/3 20/25/3
f 9/27/5 14/26/5 19/28/5
f 19/28/5 11/29/5 9/27/5
f 19/28/5 16/30/5 11/29/5
f 6/32/6 21/31/6 22/33/6
f 22/33/6 5/34/6 6/32/6
f 20/35/6 6/32/6 5/34/6
f 5/34/6 18/36/6 20/35/6
f 13/38/7 17/37/7 19/36/7
f 19/36/7 14/34/7 13/38/7
f 21/39/7 13/38/7 14/34/7
f 14/34/7 22/33/7 21/39/7
f 20/28/4 7/30/4 3/29/4
f 3/29/4 6/26/4 20/28/4
f 3/29/4 1/27/4 6/26/4
f 24/41/4 23/40/4 25/42/4
f 25/42/4 26/43/4 24/41/4
f 26/43/4 27/44/4 24/41/4
f 26/43/4 28/45/4 27/44/4
f 26/43/4 29/46/4 28/45/4
f 29/46/4 30/47/4 28/45/4
f 23/40/4 24/41/4 31/48/4
f 31/48/4 32/49/4 23/40/4
f 31/48/4 33/50/4 32/49/4
f 33/50/4 34/51/4 32/49/4
f 33/50/4 30/47/4 34/51/4
f 30/47/4 29/46/4 34/51/4

usemtl roof
usemap roof

f 10/14/2 1/8/2 2/10/2
f 2/10/2 9/16/2 10/14/2
f 25/42/4 6/26/4 1/27/4
f 1/27/4 10/19/4 25/42/4
f 10/19/4 26/43/4 25/42/4
f 10/19/4 29/46/4 26/43/4
f 10/19/4 34/51/4 29/46/4
f 6/26/4 25/42/4 23/40/4
f 23/40/4 21/52/4 6/26/4
f 23/40/4 32/49/4 21/52/4
f 32/49/4 34/51/4 21/52/4
f 34/51/4 13/21/4 21/52/4
f 34/51/4 10/19/4 13/21/4
f 2/19/5 5/21/5 22/52/5
f 22/52/5 9/27/5 2/19/5
f 22/52/5 14/26/5 9/27/5
f 31/48/4 24/41/4 27/44/4
f 27/44/4 33/50/4 31/48/4
f 27/44/4 28/45/4 33/50/4
f 28/45/4 30/47/4 33/50/4
