# Exported using Kenney Suite 1.1 

mtllib flagWhite.mtl 

g flagWhite

v 0.144 0 0.144 
v 0.144 0 -0.144 
v -0.144 0 0.144 
v -0.144 0 -0.144 
v 0.144 7.344 0.144 
v -0.144 7.344 0.144 
v 0.144 7.344 -0.144 
v -0.144 7.344 -0.144 
v 0.075168 7.92 -0.075168 
v 0.075168 7.92 0.075168 
v -0.075168 7.92 -0.075168 
v -0.075168 7.92 0.075168 
v 0.2088 7.56 -0.2088 
v 0.2088 7.56 0.2088 
v -0.2088 7.56 -0.2088 
v -0.2088 7.56 0.2088 

vn 0 -1 0
vn 0 0 1
vn 0 1 0
vn 1 0 0
vn 0 0 -1
vn -1 0 0
vn 0.9374951 0.3479982 0
vn -0.9374951 -0.3479982 0
vn 0 0.3479982 -0.9374951
vn 0 -0.3479982 0.9374951
vn -0.9374951 0.3479982 0
vn 0.9374951 -0.3479982 0
vn 0 -0.2873479 -0.9578263
vn 0 0.2873479 0.9578263
vn 0 -0.2873479 0.9578263
vn 0 0.2873479 -0.9578263
vn 0 0.3479982 0.9374951
vn 0 -0.3479982 -0.9374951
vn -0.9578263 -0.2873479 0
vn 0.9578263 0.2873479 0
vn 0.9578263 -0.2873479 0
vn -0.9578263 0.2873479 0

vt 0.5669292 0.5669292
vt 0.5669292 -0.5669292
vt -0.5669292 0.5669292
vt -0.5669292 -0.5669292
vt 0.5669292 0
vt -0.5669292 0
vt 0.5669292 28.91339
vt -0.5669292 28.91339
vt -0.295937 -0.295937
vt -0.295937 0.295937
vt 0.295937 -0.295937
vt 0.295937 0.295937
vt 0.8220472 27.61733
vt -0.8220472 27.61733
vt 0.295937 29.12915
vt -0.295937 29.12915
vt 0.5669292 27.85691
vt -0.5669292 27.85691
vt 0.8220472 28.74474
vt -0.8220472 28.74474

usemtl wood
usemap wood

f 2/2/1 1/1/1 3/3/1
f 3/3/1 4/4/1 2/2/1
f 3/6/2 1/5/2 5/7/2
f 5/7/2 6/8/2 3/6/2
f 5/3/3 7/4/3 8/2/3
f 8/2/3 6/1/3 5/3/3
f 2/5/4 7/7/4 5/8/4
f 5/8/4 1/6/4 2/5/4
f 2/6/5 4/5/5 8/7/5
f 8/7/5 7/8/5 2/6/5
f 8/8/6 4/6/6 3/5/6
f 3/5/6 6/7/6 8/8/6

usemtl cotton
usemap cotton

f 2/2/3 3/3/3 1/1/3
f 3/3/3 2/2/3 4/4/3
f 3/6/5 5/7/5 1/5/5
f 5/7/5 3/6/5 6/8/5
f 10/10/3 9/9/3 11/11/3
f 11/11/3 12/12/3 10/10/3
f 10/10/1 11/11/1 9/9/1
f 11/11/1 10/10/1 12/12/1
f 14/14/7 13/13/7 9/15/7
f 9/15/7 10/16/7 14/14/7
f 14/14/8 9/15/8 13/13/8
f 9/15/8 14/14/8 10/16/8
f 13/14/9 15/13/9 11/15/9
f 11/15/9 9/16/9 13/14/9
f 13/14/10 11/15/10 15/13/10
f 11/15/10 13/14/10 9/16/10
f 11/16/11 15/14/11 16/13/11
f 16/13/11 12/15/11 11/16/11
f 11/16/12 16/13/12 15/14/12
f 16/13/12 11/16/12 12/15/12
f 7/18/13 8/17/13 15/19/13
f 15/19/13 13/20/13 7/18/13
f 7/18/14 15/19/14 8/17/14
f 15/19/14 7/18/14 13/20/14
f 6/18/15 5/17/15 14/19/15
f 14/19/15 16/20/15 6/18/15
f 6/18/16 14/19/16 5/17/16
f 14/19/16 6/18/16 16/20/16
f 16/14/17 14/13/17 10/15/17
f 10/15/17 12/16/17 16/14/17
f 16/14/18 10/15/18 14/13/18
f 10/15/18 16/14/18 12/16/18
f 5/3/1 8/2/1 7/4/1
f 8/2/1 5/3/1 6/1/1
f 2/5/6 5/8/6 7/7/6
f 5/8/6 2/5/6 1/6/6
f 2/6/2 8/7/2 4/5/2
f 8/7/2 2/6/2 7/8/2
f 16/19/19 15/20/19 8/18/19
f 8/18/19 6/17/19 16/19/19
f 16/19/20 8/18/20 15/20/20
f 8/18/20 16/19/20 6/17/20
f 8/8/4 3/5/4 4/6/4
f 3/5/4 8/8/4 6/7/4
f 7/17/21 13/19/21 14/20/21
f 14/20/21 5/18/21 7/17/21
f 7/17/22 14/20/22 13/19/22
f 14/20/22 7/17/22 5/18/22
g flag 1

v 0.2150604 7.173846 -2.468494 
v 0.2115883 5.800329 -2.468442 
v 0.1143798 5.770269 -2.348603 
v 0.3520806 7.088019 -2.743138 
v 0.3463962 5.869122 -2.743054 
v 0.2894959 5.833523 -2.600893 
v 0 5.744 -2.244 
v 0.1162568 7.211303 -2.348631 
v 0 6.743999 -3.844 
v 0.1143798 6.117954 -3.739341 
v 0.1162568 6.776697 -3.739369 
v 0.3872956 7.04153 -2.891903 
v 0.3810427 5.906347 -2.89181 
v -0.5 7.244 -1.194 
v -0.5 5.744 -1.194 
v -0.4851865 7.244 -0.994373 
v -0.4851865 5.744 -0.994373 
v 0 7.244 -2.244 
v -0.4410707 7.244 -0.7991189 
v -0.4410707 5.744 -0.7991189 
v -0.3686188 7.244 -0.6125149 
v -0.3686188 5.744 -0.6125149 
v -0.4851865 7.244 -1.393627 
v -0.4851865 5.744 -1.393627 
v -0.1456413 7.244 -2.106672 
v -0.1456413 5.744 -2.106672 
v -0.269418 7.244 -1.949352 
v -0.269418 5.744 -1.949352 
v -0.269418 7.244 -0.4386483 
v -0.269418 5.744 -0.4386483 
v -0.1456413 7.244 -0.281328 
v -0.1456413 5.744 -0.281328 
v 0.2150604 6.814155 -3.619506 
v 0.2115883 6.088083 -3.619454 
v 0.3872956 6.946469 -3.196097 
v 0.3520806 6.899981 -3.344862 
v 0.3810427 5.982395 -3.196004 
v 0.3463962 6.019553 -3.344778 
v 0.2894959 6.055041 -3.486966 
v 0.3991203 6.994 -3.044 
v -0.3686188 7.244 -1.775485 
v -0.3686188 5.744 -1.775485 
v 0.2942466 6.855551 -3.487036 
v 0 6.144 -3.844 
v -0.2857143 6.743999 -4.444 
v -0.2772495 6.743999 -4.558073 
v -0.3194277 6.446323 -4.442839 
v 0 5.744 -0.144 
v 0 7.244 -0.144 
v 0.3926765 5.944383 -3.043904 
v -0.09304374 6.70544 -4.965189 
v -0.0832236 6.743999 -4.965527 
v -7.219114E-15 6.743999 -5.044 
v 0.2942466 7.132449 -2.600964 
v -0.2520404 6.743999 -4.218354 
v -0.2817804 6.333226 -4.21733 
v -0.2354942 6.279573 -4.110867 
v -0.2520404 6.743999 -4.669646 
v -0.3099641 6.50329 -4.556946 
v -0.1539532 6.743999 -4.012371 
v -0.1721192 6.229437 -4.011745 
v -0.09304374 6.183913 -3.922135 
v -0.0832236 6.743999 -3.922473 
v -0.1539532 6.743999 -4.875629 
v -0.1721192 6.661067 -4.875004 
v -0.2106394 6.743999 -4.776277 
v -0.2817804 6.558872 -4.668622 
v -0.4410707 7.244 -1.588881 
v -0.4410707 5.744 -1.588881 
v -0.2772495 6.743999 -4.329927 
v -0.3099641 6.389217 -4.3288 
v -0.2106394 6.743999 -4.111723 
v -0.2354942 6.611851 -4.775421 

vn 0.8102793 -0.001516571 0.5860419
vn 0.8160706 -0.002426276 0.5779472
vn 0.7217604 -0.001310152 0.6921418
vn -0.7217604 0.001310152 -0.6921418
vn -0.8160706 0.002426276 -0.5779472
vn -0.8102793 0.001516571 -0.5860419
vn 0.9478409 -0.00388474 0.3187203
vn 0.9506813 -0.004727471 0.3101333
vn 0.8931673 -0.003605501 0.4497102
vn -0.8931673 0.003605501 -0.4497102
vn -0.9506813 0.004727471 -0.3101333
vn -0.9478409 0.00388474 -0.3187203
vn 0.6745193 -0.0007994407 0.7382569
vn 0.7150779 -0.0004564305 0.6990446
vn -0.7150779 0.0004564305 -0.6990446
vn -0.6745193 0.0007994407 -0.7382569
vn 0.6700581 -0.001673539 -0.7423067
vn 0.7330019 -0.001398322 -0.6802251
vn 0.7302888 -0.002868412 -0.6831324
vn -0.7302888 0.002868412 0.6831324
vn -0.7330019 0.001398322 0.6802251
vn -0.6700581 0.001673539 0.7423067
vn 0.9854029 -0.004959294 0.1701659
vn 0.9866962 -0.0056601 0.1624766
vn -0.9866962 0.0056601 -0.1624766
vn -0.9854029 0.004959294 -0.1701659
vn 0.9890473 0 -0.1475985
vn -0.9890473 0 0.1475985
vn 0.6689638 0 0.7432951
vn -0.6689638 0 -0.7432951
vn 0.9564293 0 -0.2919638
vn 0.9028605 0 -0.4299336
vn -0.9028605 0 0.4299336
vn -0.9564293 0 0.2919638
vn 0.9890473 0 0.1475985
vn -0.9890473 0 -0.1475985
vn 0.7379972 0 0.6748036
vn 0.8295143 0 0.5584855
vn -0.8295143 0 -0.5584855
vn -0.7379972 0 -0.6748036
vn 0.8295143 0 -0.5584855
vn 0.7379972 0 -0.6748036
vn -0.7379972 0 0.6748036
vn -0.8295143 0 0.5584855
vn 0.8249989 -0.004502542 -0.5651165
vn 0.8263578 -0.003432723 -0.5631351
vn -0.8263578 0.003432723 0.5631351
vn -0.8249989 0.004502542 0.5651165
vn 0.9904357 -0.006437145 -0.137825
vn 0.957267 -0.006223781 -0.2891387
vn 0.9898689 -0.006239567 -0.1418478
vn 0.956741 -0.00602462 -0.2908787
vn -0.9898689 0.006239567 0.1418478
vn -0.957267 0.006223781 0.2891387
vn -0.9904357 0.006437145 0.137825
vn -0.956741 0.00602462 0.2908787
vn 0.9016734 -0.005019712 -0.4323886
vn -0.9016734 0.005019712 0.4323886
vn 0.9998468 -0.00591278 0.01647135
vn -0.9998468 0.00591278 -0.01647135
vn 0.9028605 0 0.4299336
vn -0.9028605 0 -0.4299336
vn 0.901496 -0.005646412 -0.4327506
vn -0.901496 0.005646412 0.4327506
vn 0.6750602 0 -0.7377627
vn -0.6750602 0 0.7377627
vn 0.9945312 -0.1042515 -0.006270185
vn 0.9821839 -0.1243327 0.1409118
vn 0.9900186 -0.1177331 -0.07747252
vn -0.9900186 0.1177331 0.07747252
vn -0.9821839 0.1243327 -0.1409118
vn -0.9945312 0.1042515 0.006270185
vn 0.6860368 0 -0.7275668
vn -0.6860368 0 0.7275668
vn 0.9999274 -0.006137816 0.0103706
vn -0.9999274 0.006137816 -0.0103706
vn 0.7491949 -0.1852198 0.635925
vn 0.7247609 -0.173724 0.6667395
vn 0.676519 -0.1659959 0.7174729
vn -0.676519 0.1659959 -0.7174729
vn -0.7247609 0.173724 -0.6667395
vn -0.7491949 0.1852198 -0.635925
vn 0.8887334 -0.002695989 0.4584164
vn -0.8887334 0.002695989 -0.4584164
vn 0.9526743 -0.06208213 -0.2975859
vn 0.9260416 -0.07328348 -0.3702385
vn 0.8627102 -0.05222575 -0.5029947
vn -0.8627102 0.05222575 0.5029947
vn -0.9260416 0.07328348 0.3702385
vn -0.9526743 0.06208213 0.2975859
vn 0.9479783 -0.1424125 0.2847031
vn 0.9874303 -0.1388679 0.07547865
vn -0.9874303 0.1388679 -0.07547865
vn -0.9479783 0.1424125 -0.2847031
vn 0.8262555 -0.02354635 -0.5628031
vn 0.7815772 -0.03319849 -0.6229245
vn 0.6853498 -0.01694109 -0.7280169
vn -0.6853498 0.01694109 0.7280169
vn -0.7815772 0.03319849 0.6229245
vn -0.8262555 0.02354635 0.5628031
vn 0.7349561 -0.007796094 -0.6780698
vn 0.6471615 -0.009933391 -0.7622882
vn -0.6471615 0.009933391 0.7622882
vn -0.7349561 0.007796094 0.6780698
vn 0.6860368 0 0.7275668
vn -0.6860368 0 -0.7275668
vn 0.8179032 -0.1683278 0.5501819
vn 0.8397805 -0.1820776 0.5114846
vn -0.8397805 0.1820776 -0.5114846
vn -0.8179032 0.1683278 -0.5501819
vn 0.8927996 -0.1574505 0.4220407
vn 0.9609657 -0.1575627 0.2274179
vn -0.9609657 0.1575627 -0.2274179
vn -0.8927996 0.1574505 -0.4220407
vn 0.9564293 0 0.2919638
vn -0.9564293 0 -0.2919638
vn 0.9846326 -0.08317518 -0.1535595
vn 0.9691318 -0.09547181 -0.2273076
vn -0.9691318 0.09547181 0.2273076
vn -0.9846326 0.08317518 0.1535595
vn 0.8994358 -0.04191159 -0.4350386
vn -0.8994358 0.04191159 0.4350386
vn 0.9112126 -0.1724306 0.3741113
vn -0.9112126 0.1724306 -0.3741113

vt 7.642638 2.666648
vt 7.633873 -2.740906
vt 7.026361 -2.859254
vt 10.01771 2.327849
vt 10.0091 -2.471004
vt 9.406249 -2.611159
vt 6.190714 -2.854609
vt 5.580483 -2.958031
vt 6.19624 2.818754
vt 9.749134 1.00523
vt 9.138775 -1.459524
vt 9.133357 1.133959
vt 6.987429 2.818895
vt 7.598989 2.671425
vt 6.982643 -2.85447
vt 10.88364 2.150494
vt 10.87773 -2.318796
vt 10.2764 -2.465353
vt 4.268197 2.952756
vt 4.268197 -2.952756
vt 3.480103 2.952756
vt 3.480103 -2.952756
vt 6.14658 2.824027
vt 5.530803 -2.952756
vt 5.530803 2.952756
vt 3.032851 2.952756
vt 3.032851 -2.952756
vt 2.244757 2.952756
vt 2.244757 -2.952756
vt 10.27555 2.334013
vt 10.87742 2.150983
vt 10.27004 -2.464845
vt 4.764944 2.952756
vt 4.764944 -2.952756
vt 3.97685 2.952756
vt 3.97685 -2.952756
vt 5.718225 2.952756
vt 5.718225 -2.952756
vt 4.93013 2.952756
vt 4.93013 -2.952756
vt 1.567556 2.952756
vt 1.567556 -2.952756
vt 0.7794622 2.952756
vt 0.7794622 -2.952756
vt 10.02826 1.295381
vt 10.63982 1.147911
vt 10.03679 -1.563189
vt 10.70256 1.133746
vt 10.70713 -1.459739
vt 10.09947 -1.577342
vt 11.34993 1.808142
vt 11.9518 1.625111
vt 11.35519 -1.987503
vt 11.95732 -1.841344
vt 11.35894 1.292341
vt 11.3657 -1.566235
vt 10.7606 -1.696321
vt 10.90531 2.159235
vt 11.50592 1.972105
vt 10.90299 -2.310059
vt 2.321312 2.952756
vt 2.321312 -2.952756
vt 1.533218 2.952756
vt 1.533218 -2.952756
vt 5.647863 2.952756
vt 5.647863 -2.952756
vt 4.85977 2.952756
vt 4.85977 -2.952756
vt 11.16119 1.634521
vt 11.76547 1.459599
vt 11.16928 -1.831794
vt 9.833554 -1.377953
vt 9.223176 -1.480497
vt 9.833554 0.984252
vt 11.78139 1.456538
vt 11.78811 -1.695125
vt 11.18515 -1.834845
vt 16.79947 0.7122379
vt 17.24981 0.7122379
vt 16.78509 -0.4671333
vt 0.7880939 -2.952756
vt 0 -2.952756
vt 0.7880939 2.952756
vt 0 2.952756
vt 11.50284 1.97283
vt 11.50056 -2.1596
vt 10.90002 -2.309349
vt 12.75519 -1.513224
vt 12.78423 -1.359278
vt 13.23457 -1.359278
vt 8.287253 2.668009
vt 8.894863 2.505029
vt 8.280059 -2.739547
vt 14.93039 1.37697
vt 14.9767 -0.2438278
vt 14.51988 -0.4555234
vt 3.686586 2.952756
vt 3.686586 -2.952756
vt 2.898492 2.952756
vt 2.898492 -2.952756
vt 16.7104 0.3375299
vt 17.16074 0.3375299
vt 16.67769 -0.6183095
vt 17.35975 0.793048
vt 17.35337 -0.1633298
vt 16.90361 -0.3896704
vt 11.72067 1.247295
vt 11.76672 -0.7792852
vt 11.29622 -0.9585778
vt 10.44379 0.984252
vt 9.993449 -1.377953
vt 9.993449 0.984252
vt 5.671958 -2.952756
vt 4.883864 -2.952756
vt 5.671958 2.952756
vt 4.883864 2.952756
vt 14.26552 -1.010635
vt 14.71586 -1.010635
vt 14.21936 -1.341693
vt 16.25035 -0.1041202
vt 16.70069 -0.1041202
vt 16.20421 -0.8408827
vt 5.165945 2.952756
vt 5.165945 -2.952756
vt 4.377851 2.952756
vt 4.377851 -2.952756
vt 16.51562 0.9921234
vt 16.96596 0.9921234
vt 16.52073 -0.4105809
vt 11.89371 1.110681
vt 12.34405 1.110681
vt 11.91657 -1.094606
vt 9.803238 -1.089919
vt 9.324896 -1.247068
vt 9.774387 1.115298
vt 16.09991 1.307868
vt 16.13263 -0.09446353
vt 15.68038 -0.3157798
vt 13.52851 1.203184
vt 13.97885 1.203184
vt 13.56181 -0.8236451
vt 8.927656 2.501375
vt 8.917946 -2.612532
vt 8.312967 -2.743215
vt 14.95378 -1.306262
vt 14.92943 -1.46102
vt 14.45848 -1.63911
vt 17.38799 0.3484636
vt 17.36407 -0.3893545
vt 16.91192 -0.6108736
vt 5.462416 2.952756
vt 5.462416 -2.952756
vt 4.674323 2.952756
vt 4.674323 -2.952756
vt 15.42939 -0.5712448
vt 15.87973 -0.5712448
vt 15.37797 -1.098146
vt 15.86505 1.164019
vt 16.31539 1.164019
vt 15.88692 -0.4572932
vt 10.71335 1.463179
vt 11.32096 1.300198
vt 10.72268 -1.688477
vt 9.394122 2.504877
vt 9.998403 2.329956
vt 9.386801 -2.609034
vt 11.2605 1.983508
vt 11.86266 -1.999262
vt 11.2621 -2.148922
vt 11.86671 1.797058
vt 11.86821 -1.998591
vt 11.2661 1.984188
vt 16.99252 -0.1869161
vt 16.95773 -0.7151763
vt 16.50094 -0.9269574
vt 16.17484 -0.7616272
vt 16.13916 -1.093979
vt 15.67591 -1.291206
vt 14.86202 1.229436
vt 15.31236 1.229436
vt 14.8943 -0.6013487
vt 16.92162 1.116119
vt 16.93549 -0.06325791
vt 16.48569 -0.2895044
vt 13.45528 1.346233
vt 13.50678 -0.4841122
vt 13.04367 -0.6817065

usemtl cotton
usemap cotton

f 18/22/24 17/21/23 19/23/25
f 18/22/27 19/23/26 17/21/28
f 21/25/30 20/24/29 22/26/31
f 21/25/33 22/26/32 20/24/34
f 23/28/35 19/27/25 24/29/36
f 23/28/38 24/29/37 19/27/26
f 26/31/40 25/30/39 27/32/41
f 26/31/43 27/32/42 25/30/44
f 17/34/23 24/33/36 19/35/25
f 17/34/28 19/35/26 24/33/37
f 29/37/46 28/36/45 21/38/30
f 29/37/47 21/38/33 28/36/48
f 31/40/4 30/39/4 32/41/49
f 32/41/49 33/42/49 31/40/4
f 31/40/6 32/41/50 30/39/6
f 32/41/50 31/40/6 33/42/50
f 23/44/35 24/43/36 34/45/51
f 23/44/38 34/45/52 24/43/37
f 36/47/53 35/46/53 37/48/54
f 37/48/54 38/49/54 36/47/53
f 36/47/56 37/48/55 35/46/56
f 37/48/55 36/47/56 38/49/55
f 28/51/45 20/50/29 21/52/30
f 28/51/48 21/52/33 20/50/34
f 40/54/57 39/53/57 30/55/4
f 30/55/4 31/56/4 40/54/57
f 40/54/58 30/55/6 39/53/58
f 30/55/6 40/54/58 31/56/6
f 42/58/59 41/57/59 43/59/60
f 43/59/60 44/60/60 42/58/59
f 42/58/62 43/59/61 41/57/62
f 43/59/61 42/58/62 44/60/61
f 46/62/63 45/61/63 47/63/64
f 47/63/64 48/64/64 46/62/63
f 46/62/66 47/63/65 45/61/66
f 47/63/65 46/62/66 48/64/65
f 27/66/41 49/65/67 50/67/68
f 27/66/42 50/67/69 49/65/70
f 26/69/40 27/68/41 50/70/68
f 26/69/43 50/70/69 27/68/42
f 52/72/72 51/71/71 53/73/73
f 54/74/74 52/72/72 53/73/73
f 52/72/76 53/73/75 51/71/77
f 54/74/78 53/73/75 52/72/76
f 50/76/68 49/75/67 55/77/79
f 50/76/69 55/77/80 49/75/70
f 56/79/81 28/78/45 29/80/46
f 56/79/82 29/80/47 28/78/48
f 38/82/54 37/81/54 45/83/63
f 45/83/63 46/84/63 38/82/54
f 38/82/55 45/83/66 37/81/55
f 45/83/66 38/82/55 46/84/66
f 44/86/60 43/85/60 57/87/83
f 57/87/83 58/88/83 44/86/60
f 44/86/61 57/87/84 43/85/61
f 57/87/84 44/86/61 58/88/84
f 59/90/85 52/89/72 54/91/74
f 59/90/86 54/91/78 52/89/76
f 26/93/40 60/92/87 25/94/39
f 26/93/43 25/94/44 60/92/88
f 55/96/79 59/95/85 54/97/74
f 55/96/80 54/97/78 59/95/86
f 62/99/90 61/98/89 63/100/91
f 62/99/93 63/100/92 61/98/94
f 64/102/95 48/101/64 47/103/64
f 47/103/64 65/104/95 64/102/95
f 64/102/96 47/103/65 48/101/65
f 47/103/65 64/102/96 65/104/96
f 66/106/97 56/105/81 29/107/46
f 66/106/98 29/107/47 56/105/82
f 68/109/100 67/108/99 69/110/101
f 68/109/103 69/110/102 67/108/104
f 70/112/105 17/111/23 18/113/24
f 70/112/106 18/113/27 17/111/28
f 72/115/108 71/114/107 73/116/109
f 72/115/111 73/116/110 71/114/112
f 33/118/49 32/117/49 35/119/53
f 35/119/53 36/120/53 33/118/49
f 33/118/50 35/119/56 32/117/50
f 35/119/56 33/118/50 36/120/56
f 74/122/113 62/121/90 75/123/114
f 74/122/116 75/123/115 62/121/93
f 75/125/114 62/124/90 63/126/91
f 75/125/115 63/126/92 62/124/93
f 77/128/118 76/127/117 78/129/119
f 77/128/121 78/129/120 76/127/122
f 60/131/124 79/130/123 25/132/95
f 60/131/125 25/132/96 79/130/126
f 42/134/59 23/133/127 34/135/127
f 34/135/127 41/136/59 42/134/59
f 42/134/62 34/135/128 23/133/128
f 34/135/128 42/134/62 41/136/62
f 68/138/100 80/137/129 81/139/130
f 68/138/103 81/139/131 80/137/132
f 82/141/133 74/140/113 83/142/134
f 82/141/136 83/142/135 74/140/116
f 85/144/137 84/143/137 39/145/57
f 39/145/57 40/146/57 85/144/137
f 85/144/138 39/145/58 84/143/138
f 39/145/58 85/144/138 40/146/58
f 61/148/89 86/147/139 87/149/140
f 61/148/94 87/149/141 86/147/142
f 76/151/117 79/150/123 78/152/119
f 76/151/122 78/152/120 79/150/126
f 60/154/124 78/153/119 79/155/123
f 60/154/125 79/155/126 78/153/120
f 87/157/140 86/156/139 72/158/108
f 87/157/141 72/158/111 86/156/142
f 88/160/143 76/159/117 77/161/118
f 88/160/144 77/161/121 76/159/122
f 22/163/31 70/162/105 18/164/24
f 22/163/32 18/164/27 70/162/106
f 67/166/99 68/165/100 81/167/130
f 67/166/104 81/167/131 68/165/103
f 83/169/134 74/168/113 75/170/114
f 83/169/135 75/170/115 74/168/116
f 58/172/83 57/171/83 84/173/137
f 84/173/137 85/174/137 58/172/83
f 58/172/84 84/173/138 57/171/84
f 84/173/138 58/172/84 85/174/138
f 80/176/129 82/175/133 89/177/145
f 80/176/132 89/177/146 82/175/136
f 86/179/139 71/178/107 72/180/108
f 86/179/142 72/180/111 71/178/112
f 49/182/67 59/181/85 55/183/79
f 49/182/70 55/183/80 59/181/86
f 20/185/29 70/184/105 22/186/31
f 20/185/34 22/186/32 70/184/106
f 53/188/73 56/187/81 66/189/97
f 53/188/75 66/189/98 56/187/82
f 53/191/73 51/190/71 56/192/81
f 53/191/75 56/192/82 51/190/77
f 89/194/145 82/193/133 83/195/134
f 89/194/146 83/195/135 82/193/136
f 81/197/130 80/196/129 89/198/145
f 81/197/131 89/198/146 80/196/132
f 71/200/107 88/199/143 73/201/109
f 71/200/112 73/201/110 88/199/144
f 63/203/91 61/202/89 87/204/140
f 63/203/92 87/204/141 61/202/94
f 73/206/109 88/205/143 77/207/118
f 73/206/110 77/207/121 88/205/144
