# Exported using Kenney Suite 1.1 

mtllib king.mtl 

g king_8angles

v 1.3 3.524958E-18 1.3 
v 1.3 3.524958E-18 -1.3 
v -1.3 3.524958E-18 1.3 
v -1.3 3.524958E-18 -1.3 
v -1.3 2.6 -1.3 
v -1.3 2.6 1.3 
v 1.3 2.6 1.3 
v 1.3 2.6 -1.3 

vn 0 -1 0
vn -1 0 0
vn 0 0 1
vn 1 0 0
vn 0 1 0
vn 0 0 -1

vt -1.125 -0.6249999
vt -1.125 -0.7499999
vt -1.25 -0.6250001
vt -1.25 -0.7500001
vt -0.5 -0.5
vt -0.5 -0.25
vt -0.25 -0.5
vt -0.25 -0.25
vt -1 -0.5
vt -1.25 -0.5
vt -1 -0.25
vt -1.25 -0.25
vt -0.75 -0.25
vt -0.75 -0.5
vt -0.3750002 -0.4374997
vt -0.3750001 -0.3124999
vt -0.2500006 -0.4374998
vt -0.2500005 -0.3125

usemtl king
usemap king

f 2/2/1 1/1/1 3/3/1
f 3/3/1 4/4/1 2/2/1
f 5/6/2 4/5/2 3/7/2
f 3/7/2 6/8/2 5/6/2
f 3/10/3 1/9/3 7/11/3
f 7/11/3 6/12/3 3/10/3
f 2/14/4 8/13/4 7/11/4
f 7/11/4 1/9/4 2/14/4
f 7/16/5 8/15/5 5/17/5
f 5/17/5 6/18/5 7/16/5
f 2/14/6 4/5/6 5/6/6
f 5/6/6 8/13/6 2/14/6
g head

v 1.3 5.2 -1.3 
v 1.3 5.2 1.3 
v -1.3 5.2 1.3 
v -1.3 5.2 -1.3 


vt 1.132427E-14 -0.75
vt -0.25 -0.75
vt 9.880985E-15 -0.5
vt -0.75 3.885781E-16
vt -1 3.885781E-16
vt 1.172673E-14 -0.25
vt 1.172673E-14 5.551115E-17
vt -0.25 5.551115E-17
vt -0.5 5.551115E-17
vt -0.75 5.551115E-17
vt -0.5 -0.75
vt -0.5 3.330669E-16
vt -0.25 3.330669E-16
vt -0.125 0.25
vt 0.125 0
vt 0.125 0.25
vt -0.125 0

usemtl king
usemap king

f 8/20/1 7/19/1 6/21/1
f 6/21/1 5/7/1 8/20/1
f 8/13/4 9/22/4 10/23/4
f 10/23/4 7/11/4 8/13/4
f 6/8/3 7/24/3 10/25/3
f 10/25/3 11/26/3 6/8/3
f 8/13/6 5/6/6 12/27/6
f 12/27/6 9/28/6 8/13/6
f 10/5/5 9/29/5 12/20/5
f 12/20/5 11/7/5 10/5/5
f 12/30/2 5/6/2 6/8/2
f 6/8/2 11/31/2 12/30/2

usemtl astronaut
usemap astronaut

f 8/20/5 6/21/5 7/19/5
f 6/21/5 8/20/5 5/7/5
f 8/33/2 10/32/2 9/34/2
f 10/32/2 8/33/2 7/35/2
f 6/35/6 10/34/6 7/33/6
f 10/34/6 6/35/6 11/32/6
f 8/13/3 12/27/3 5/6/3
f 12/27/3 8/13/3 9/28/3
f 10/5/1 12/20/1 9/29/1
f 12/20/1 10/5/1 11/7/1
f 12/32/4 6/33/4 5/35/4
f 6/33/4 12/32/4 11/34/4
g left

v -1.3 0.3681599 0.55796 
v -2.41592 0.3681599 0.55796 
v -1.3 2.6 0.55796 
v -2.41592 2.6 0.55796 
v -1.3 2.6 -0.55796 
v -1.3 0.3681599 -0.55796 
v -2.41592 2.6 -0.55796 
v -2.41592 0.3681599 -0.55796 


vt -0.625 -0.75
vt -0.75 -0.75
vt -0.625 -0.5
vt -0.875 -0.5
vt -0.875 -0.75
vt -1 -0.75
vt -0.875 -0.625
vt -1 -0.625
vt -0.25 -15.5
vt -0.125 -15.5
vt -0.25 -15.625
vt -0.125 -15.625

usemtl king
usemap king

f 14/37/3 13/36/3 15/38/3
f 15/38/3 16/14/3 14/37/3
f 18/40/4 17/39/4 15/9/4
f 15/9/4 13/41/4 18/40/4
f 15/43/5 17/42/5 19/39/5
f 19/39/5 16/9/5 15/43/5
f 19/38/2 20/36/2 14/29/2
f 14/29/2 16/5/2 19/38/2
f 18/40/6 20/37/6 19/14/6
f 19/14/6 17/39/6 18/40/6
f 18/45/1 13/44/1 14/46/1
f 14/46/1 20/47/1 18/45/1
g right

v 2.41592 0.36816 0.55796 
v 2.41592 0.36816 -0.55796 
v 1.3 0.36816 0.55796 
v 1.3 0.36816 -0.55796 
v 2.41592 2.6 -0.55796 
v 2.41592 2.6 0.55796 
v 1.3 2.6 -0.55796 
v 1.3 2.6 0.55796 



usemtl king
usemap king

f 22/46/1 21/47/1 23/45/1
f 23/45/1 24/44/1 22/46/1
f 22/29/4 25/5/4 26/38/4
f 26/38/4 21/36/4 22/29/4
f 27/9/2 24/41/2 23/40/2
f 23/40/2 28/39/2 27/9/2
f 26/39/5 25/9/5 27/43/5
f 27/43/5 28/42/5 26/39/5
f 23/40/3 21/37/3 26/14/3
f 26/14/3 28/39/3 23/40/3
f 22/37/6 24/36/6 27/38/6
f 27/38/6 25/14/6 22/37/6
