# Exported using Kenney Suite 1.1 

mtllib shieldRed.mtl 

g shieldRed

v 0.4979883 -1.208123 0.2820002 
v 0.4979883 -1.208123 -0.2819999 
v 0.3434862 -1.309941 0.2820002 
v 0.3434862 -1.309941 -0.2819999 
v 1.163645 -0.2957099 0.2820001 
v 1.190894 -0.1484014 0.282 
v 1.163645 -0.29571 -0.282 
v 1.190894 -0.1484015 -0.282 
v 1.118452 -0.4408404 -0.282 
v 1.118452 -0.4408403 0.2820001 
v 0.6184658 1.192751 0.2819999 
v 0.6 0.8085567 0.282 
v 0.4146148 1.222294 0.2819999 
v 0.2080005 1.240098 0.2819999 
v 0.1770816 -1.402111 0.2820002 
v 3.609557E-15 1.246047 0.2819999 
v 3.609557E-15 -1.483954 0.2820002 
v -0.2080005 1.240098 0.2819999 
v -0.1794404 -1.385423 0.2820002 
v -0.3472515 -1.277316 0.2820002 
v -0.4146148 1.222294 0.2819999 
v -0.5023931 -1.160303 0.2820002 
v -0.6184658 1.192751 0.2819999 
v -0.6184658 0.8085567 0.282 
v -0.6439036 -1.03511 0.2820002 
v -1.2 0.8085567 0.282 
v -0.7709057 -0.9025112 0.2820002 
v -0.8826125 -0.7633302 0.2820002 
v -0.9783315 -0.6184291 0.2820001 
v -1.057469 -0.468706 0.2820001 
v -1.119536 -0.315089 0.2820001 
v -1.164145 -0.1585301 0.2820001 
v -1.191023 3.72529E-08 0.282 
v -1.2 0.1595189 0.282 
v 1.2 0.8085567 0.282 
v 1.2 3.72529E-08 0.282 
v 1.055649 -0.5827238 0.2820002 
v 0.9756975 -0.7203155 0.2820001 
v 0.8791873 -0.8526016 0.2820001 
v 0.7668289 -0.9786083 0.2820002 
v 0.6394498 -1.097407 0.2820002 
v -0.6184658 0.8085567 -0.2820001 
v -1.2 0.8085567 -0.2820001 
v 0.4146148 1.222293 -0.2820002 
v 0.2080005 1.240098 -0.2820002 
v 1.2 -3.72529E-08 -0.282 
v 1.2 0.8085567 -0.2820001 
v 0.8169509 0.5404223 -0.2820001 
v 0.6 0.8085567 -0.2820001 
v 1.055649 -0.5827239 -0.282 
v 0.9756975 -0.7203155 -0.282 
v 0.8791873 -0.8526016 -0.282 
v 0.8169509 0.005755536 -0.2820001 
v 0.2038466 0.5404223 -0.2820001 
v 0.2244228 0.9685247 -0.2820002 
v 0.1767296 0.9726346 -0.2820002 
v 3.609557E-15 1.246047 -0.2820002 
v 7.219114E-15 0.9776886 -0.2820002 
v -0.1767296 0.9726346 -0.2820002 
v -0.2080005 1.240098 -0.2820002 
v -0.2354167 0.9675772 -0.2820002 
v -0.4146148 1.222293 -0.2820002 
v 0.7668289 -0.9786084 -0.2819999 
v 0.8089042 -0.1253898 -0.282 
v 0.78588 -0.2498561 -0.282 
v 0.7476949 -0.3724821 -0.282 
v 0.6394498 -1.097407 -0.2819999 
v 0.6946301 -0.4923648 -0.282 
v 0.6270764 -0.6086208 -0.282 
v 0.5455315 -0.7203944 -0.282 
v 0.4505957 -0.8268619 -0.282 
v 0.3429685 -0.9272392 -0.2819999 
v 0.1770816 -1.402111 -0.2819999 
v 0.2234425 -1.020787 -0.2819999 
v 0.09289808 -1.106817 -0.2819999 
v 3.609557E-15 -1.483954 -0.2819999 
v 0.01807386 -1.148261 -0.2819999 
v -0.07675436 -1.087171 -0.2819999 
v -0.1794404 -1.385423 -0.2819999 
v -0.2113651 -0.9856436 -0.2819999 
v -0.3472515 -1.277316 -0.2819999 
v -0.3341487 -0.8770175 -0.282 
v -0.444344 -0.7619667 -0.282 
v -0.5023931 -1.160303 -0.2819999 
v -0.541268 -0.6412044 -0.282 
v -0.6439036 -1.03511 -0.2819999 
v -0.62432 -0.5154788 -0.282 
v -0.6929851 -0.3855695 -0.282 
v -0.7709057 -0.9025114 -0.282 
v -0.7468377 -0.2522814 -0.282 
v -0.785544 -0.116441 -0.282 
v -0.8826125 -0.7633303 -0.282 
v -0.8088642 0.02111001 -0.282 
v -0.8169509 0.1647984 -0.282 
v -0.8169509 0.5404223 -0.2820001 
v -0.2354167 0.5404223 -0.2820001 
v -0.9783315 -0.6184291 -0.282 
v -1.057469 -0.468706 -0.282 
v -1.119536 -0.315089 -0.282 
v -1.164145 -0.1585302 -0.282 
v -1.191023 -3.72529E-08 -0.282 
v -1.2 0.1595189 -0.282 
v -0.6184658 1.192751 -0.2820002 
v 0.6184658 1.192751 -0.2820002 

vn 0.7160778 -0.6980205 8.321052E-08
vn 0.6535909 -0.7568482 9.022332E-08
vn 0.9852965 -0.1708531 2.036728E-08
vn 0.9963173 -0.0857423 1.022128E-08
vn 0.9670186 -0.2547055 3.036325E-08
vn 0 1.192093E-07 1
vn 0 1 -1.192093E-07
vn 0.1625941 0.9866932 -1.17623E-07
vn 0.08156884 0.9966678 -1.18812E-07
vn 0 -1.192093E-07 -1
vn 0.7732906 -0.6340518 7.558486E-08
vn 0.9416185 -0.3366819 4.013561E-08
vn 0.2027338 0.979234 -1.167338E-07
vn 1 0 0
vn -0.9234774 -0.383653 4.573499E-08
vn -0.9507967 -0.3098155 3.693288E-08
vn -0.7591777 -0.6508835 7.759135E-08
vn -0.8080288 -0.589143 7.023132E-08
vn 0.9990789 -0.04291068 5.115351E-09
vn -0.6171964 -0.7868093 9.379496E-08
vn -0.6476905 -0.7619036 9.082598E-08
vn -1 0 0
vn 0.8248079 -0.5654131 6.740249E-08
vn -0.7056209 -0.7085896 8.447045E-08
vn -0.8518715 -0.5237509 6.243597E-08
vn -0.890434 -0.4551124 5.425362E-08
vn 0.9092829 -0.4161786 4.961234E-08
vn 0.5862901 -0.8101013 9.657159E-08
vn -0.1625941 0.9866932 -1.17623E-07
vn -0.2027338 0.979234 -1.167338E-07
vn 0.8702503 -0.4926099 5.872367E-08
vn -0.08156884 0.9966678 -1.18812E-07
vn -0.9722227 -0.2340577 2.790185E-08
vn -0.9969009 -0.07866837 9.378E-09
vn -0.9992249 -0.0393647 4.692637E-09
vn 0.550988 -0.8345132 9.948172E-08
vn -0.9876226 -0.1568491 1.869787E-08
vn 0.9994344 -0.03362566 4.008491E-09

vt 6.460242 -1.181102
vt 6.460242 1.181102
vt 8.131088 -1.181102
vt 8.131088 1.181102
vt 2.122161 -1.181102
vt 0.4513142 -1.181102
vt 2.122161 1.181102
vt 0.4513142 1.181102
vt 2.969453 1.181102
vt 2.969453 -1.181102
vt 1.298606 1.181102
vt 1.298606 -1.181102
vt 4.86981 13.41677
vt 4.72441 9.095125
vt 3.264683 13.74908
vt 3.921168 -13.58969
vt 2.704616 -14.73499
vt 1.637799 13.94936
vt 1.394343 -15.77177
vt 2.797163E-14 14.01627
vt 2.797163E-14 -16.69239
vt -1.637799 13.94936
vt -1.412917 -15.58406
vt -2.734264 -14.36801
vt -3.264683 13.74908
vt -3.955851 -13.05178
vt -4.86981 13.41677
vt -4.86981 9.095125
vt -5.070107 -11.64353
vt -9.448819 9.095125
vt -6.070124 -10.15198
vt -6.949705 -8.586391
vt -7.703398 -6.956457
vt -8.32653 -5.272283
vt -8.815241 -3.544308
vt -9.1665 -1.783241
vt -9.37813 -2.352702E-14
vt -9.448819 1.794363
vt 9.448819 9.095125
vt 9.448819 -2.352702E-14
vt 9.377122 -1.669308
vt 9.162559 -3.32632
vt 8.806709 -4.958834
vt 8.312195 -6.554823
vt 7.682658 -8.102535
vt 6.922735 -9.590569
vt 6.038023 -11.00797
vt 5.035038 -12.34429
vt -4.86981 -1.181102
vt -9.448819 -1.181102
vt -4.86981 1.181102
vt -9.448819 1.181102
vt 1.560315 -1.181102
vt -0.0788504 -1.181102
vt 1.560315 1.181102
vt -0.0788504 1.181102
vt -9.448819 -1.245832E-14
vt -9.377122 -1.669308
vt -6.432684 6.078991
vt -4.72441 9.095125
vt -9.162559 -3.32632
vt -8.806709 -4.958834
vt -8.312195 -6.554823
vt -7.682658 -8.102535
vt -6.922735 -9.590569
vt -6.432684 0.064742
vt -1.605091 6.078991
vt -1.767109 10.89454
vt -1.391572 10.94077
vt -2.762375E-14 14.01627
vt -5.604546E-14 10.99762
vt 1.391572 10.94077
vt 1.853675 10.88388
vt -6.038023 -11.00797
vt -6.369324 -1.410459
vt -6.188032 -2.810529
vt -5.887362 -4.189899
vt -5.035038 -12.34429
vt -5.469528 -5.53841
vt -4.93761 -6.846128
vt -3.921168 -13.58969
vt -4.295523 -8.103422
vt -3.547997 -9.301032
vt -2.704616 -14.73499
vt -2.700539 -10.43014
vt -1.394343 -15.77177
vt -1.75939 -11.48242
vt -0.7314809 -12.45013
vt -2.762375E-14 -16.69239
vt -0.1423139 -12.91632
vt 0.6043651 -12.22915
vt 1.412917 -15.58406
vt 1.664293 -11.0871
vt 2.734264 -14.36801
vt 2.631093 -9.865212
vt 3.498772 -8.571054
vt 3.955851 -13.05178
vt 4.261953 -7.212646
vt 5.070107 -11.64353
vt 4.915905 -5.798411
vt 5.456575 -4.337113
vt 6.070124 -10.15198
vt 5.880612 -2.837811
vt 6.185386 -1.309796
vt 6.949705 -8.586391
vt 6.36901 0.2374584
vt 6.432684 1.853751
vt 6.432684 6.078991
vt 4.86981 9.095125
vt 1.853675 6.078991
vt 7.703398 -6.956457
vt 8.32653 -5.272283
vt 8.815241 -3.544308
vt 9.1665 -1.783241
vt 9.37813 -1.245832E-14
vt 9.448819 1.794363
vt 7.515307 -1.181102
vt 5.84446 -1.181102
vt 7.515307 1.181102
vt 5.84446 1.181102
vt 3.801028 -1.181102
vt 2.130181 -1.181102
vt 3.801028 1.181102
vt 2.130181 1.181102
vt 0.4094847 -1.181102
vt 0.4094847 1.181102
vt 2.04865 -1.181102
vt 2.04865 1.181102
vt 2.181826E-14 -1.181102
vt -9.095125 -1.181102
vt 1.370888E-14 1.181102
vt -9.095125 1.181102
vt -3.851108 -1.181102
vt -3.851108 1.181102
vt -2.055352 -1.181102
vt -2.055352 1.181102
vt -7.780765 1.181102
vt -5.98501 1.181102
vt -7.780765 -1.181102
vt -5.98501 -1.181102
vt 1.265391 -1.181102
vt -0.4054552 -1.181102
vt 1.265391 1.181102
vt -0.4054552 1.181102
vt -10.30248 -1.181102
vt -10.30248 1.181102
vt -8.506728 -1.181102
vt -8.506728 1.181102
vt 9.095125 -1.181102
vt 9.095125 1.181102
vt 13.41677 -1.181102
vt 13.41677 1.181102
vt 6.850327 1.181102
vt 6.850327 -1.181102
vt 5.17948 1.181102
vt 5.17948 -1.181102
vt -8.67126 -1.181102
vt -8.67126 1.181102
vt -6.875505 -1.181102
vt -6.875505 1.181102
vt -5.877572 -1.181102
vt -5.877572 1.181102
vt -4.081817 -1.181102
vt -4.081817 1.181102
vt 4.610759 -1.181102
vt 2.939913 -1.181102
vt 4.610759 1.181102
vt 2.939913 1.181102
vt -7.717818 -1.181102
vt -9.513574 -1.181102
vt -7.717818 1.181102
vt -9.513574 1.181102
vt 8.693135 -1.181102
vt 7.022288 -1.181102
vt 8.693135 1.181102
vt 7.022288 1.181102
vt -0.4094847 -1.181102
vt -2.04865 -1.181102
vt -0.4094847 1.181102
vt -2.04865 1.181102
vt 5.392685 1.181102
vt 5.392685 -1.181102
vt 3.721838 1.181102
vt 3.721838 -1.181102
vt 0.0788504 -1.181102
vt -1.560315 -1.181102
vt 0.0788504 1.181102
vt -1.560315 1.181102
vt -6.847608 -1.181102
vt -6.847608 1.181102
vt -5.051852 -1.181102
vt -5.051852 1.181102
vt -2.807239 1.181102
vt -1.011484 1.181102
vt -2.807239 -1.181102
vt -1.011484 -1.181102
vt 0.3691672 -1.181102
vt 0.3691672 1.181102
vt 2.164922 -1.181102
vt 2.164922 1.181102
vt 9.197308 -1.181102
vt 7.526461 -1.181102
vt 9.197308 1.181102
vt 7.526461 1.181102
vt 9.448819 -1.181102
vt 4.72441 -1.181102
vt 9.448819 1.181102
vt 4.72441 1.181102
vt -0.5721222 -1.181102
vt -0.5721222 1.181102
vt 1.067043 -1.181102
vt 1.067043 1.181102
vt -1.751536 1.181102
vt 0.04421899 1.181102
vt -1.751536 -1.181102
vt 0.04421899 -1.181102
vt -4.876671 -1.181102
vt -4.876671 1.181102
vt -3.080915 -1.181102
vt -3.080915 1.181102
vt 1.794363 -1.181102
vt 1.794363 1.181102
vt 0.5721222 -1.181102
vt -1.067043 -1.181102
vt 0.5721222 1.181102
vt -1.067043 1.181102
vt -0.690542 1.181102
vt 1.105213 1.181102
vt -0.690542 -1.181102
vt 1.105213 -1.181102
vt 6.141045 1.181102
vt 6.141045 -1.181102
vt 4.470198 1.181102
vt 4.470198 -1.181102
vt -9.248843 -1.181102
vt -13.57293 -1.181102
vt -9.248843 1.181102
vt -13.57293 1.181102

usemtl roofRed
usemap roofRed

f 2/2/1 1/1/1 3/3/2
f 3/3/2 4/4/2 2/2/1
f 6/6/4 5/5/3 7/7/3
f 7/7/3 8/8/4 6/6/4
f 10/10/5 9/9/5 7/11/3
f 7/11/3 5/12/3 10/10/5
f 12/14/6 11/13/6 13/15/6
f 13/15/6 1/16/6 12/14/6
f 13/15/6 3/17/6 1/16/6
f 13/15/6 14/18/6 3/17/6
f 14/18/6 15/19/6 3/17/6
f 14/18/6 16/20/6 15/19/6
f 16/20/6 17/21/6 15/19/6
f 16/20/6 18/22/6 17/21/6
f 18/22/6 19/23/6 17/21/6
f 18/22/6 20/24/6 19/23/6
f 18/22/6 21/25/6 20/24/6
f 21/25/6 22/26/6 20/24/6
f 21/25/6 23/27/6 22/26/6
f 23/27/6 24/28/6 22/26/6
f 24/28/6 25/29/6 22/26/6
f 24/28/6 26/30/6 25/29/6
f 26/30/6 27/31/6 25/29/6
f 26/30/6 28/32/6 27/31/6
f 26/30/6 29/33/6 28/32/6
f 26/30/6 30/34/6 29/33/6
f 26/30/6 31/35/6 30/34/6
f 26/30/6 32/36/6 31/35/6
f 26/30/6 33/37/6 32/36/6
f 26/30/6 34/38/6 33/37/6
f 36/40/6 35/39/6 12/14/6
f 12/14/6 6/41/6 36/40/6
f 12/14/6 5/42/6 6/41/6
f 12/14/6 10/43/6 5/42/6
f 12/14/6 37/44/6 10/43/6
f 12/14/6 38/45/6 37/44/6
f 12/14/6 39/46/6 38/45/6
f 12/14/6 40/47/6 39/46/6
f 12/14/6 41/48/6 40/47/6
f 12/14/6 1/16/6 41/48/6
f 26/50/7 24/49/7 42/51/7
f 42/51/7 43/52/7 26/50/7
f 14/54/9 13/53/8 44/55/8
f 44/55/8 45/56/9 14/54/9
f 47/30/10 46/57/10 8/58/10
f 8/58/10 48/59/10 47/30/10
f 48/59/10 49/60/10 47/30/10
f 8/58/10 7/61/10 48/59/10
f 7/61/10 9/62/10 48/59/10
f 9/62/10 50/63/10 48/59/10
f 50/63/10 51/64/10 48/59/10
f 51/64/10 52/65/10 48/59/10
f 52/65/10 53/66/10 48/59/10
f 48/59/10 54/67/10 49/60/10
f 54/67/10 44/25/10 49/60/10
f 54/67/10 55/68/10 44/25/10
f 45/22/10 44/25/10 55/68/10
f 55/68/10 56/69/10 45/22/10
f 56/69/10 57/70/10 45/22/10
f 56/69/10 58/71/10 57/70/10
f 58/71/10 59/72/10 57/70/10
f 59/72/10 60/18/10 57/70/10
f 59/72/10 61/73/10 60/18/10
f 61/73/10 62/15/10 60/18/10
f 53/66/10 52/65/10 63/74/10
f 63/74/10 64/75/10 53/66/10
f 63/74/10 65/76/10 64/75/10
f 63/74/10 66/77/10 65/76/10
f 63/74/10 67/78/10 66/77/10
f 67/78/10 68/79/10 66/77/10
f 67/78/10 69/80/10 68/79/10
f 67/78/10 2/81/10 69/80/10
f 2/81/10 70/82/10 69/80/10
f 2/81/10 71/83/10 70/82/10
f 2/81/10 4/84/10 71/83/10
f 4/84/10 72/85/10 71/83/10
f 4/84/10 73/86/10 72/85/10
f 73/86/10 74/87/10 72/85/10
f 73/86/10 75/88/10 74/87/10
f 73/86/10 76/89/10 75/88/10
f 76/89/10 77/90/10 75/88/10
f 76/89/10 78/91/10 77/90/10
f 76/89/10 79/92/10 78/91/10
f 79/92/10 80/93/10 78/91/10
f 79/92/10 81/94/10 80/93/10
f 81/94/10 82/95/10 80/93/10
f 81/94/10 83/96/10 82/95/10
f 81/94/10 84/97/10 83/96/10
f 84/97/10 85/98/10 83/96/10
f 84/97/10 86/99/10 85/98/10
f 86/99/10 87/100/10 85/98/10
f 86/99/10 88/101/10 87/100/10
f 86/99/10 89/102/10 88/101/10
f 89/102/10 90/103/10 88/101/10
f 89/102/10 91/104/10 90/103/10
f 89/102/10 92/105/10 91/104/10
f 92/105/10 93/106/10 91/104/10
f 92/105/10 94/107/10 93/106/10
f 92/105/10 95/108/10 94/107/10
f 95/108/10 92/105/10 43/39/10
f 95/108/10 43/39/10 42/109/10
f 95/108/10 42/109/10 61/73/10
f 61/73/10 96/110/10 95/108/10
f 42/109/10 62/15/10 61/73/10
f 92/105/10 97/111/10 43/39/10
f 97/111/10 98/112/10 43/39/10
f 98/112/10 99/113/10 43/39/10
f 99/113/10 100/114/10 43/39/10
f 100/114/10 101/115/10 43/39/10
f 101/115/10 102/116/10 43/39/10
f 62/15/10 42/109/10 103/13/10
f 104/27/10 49/60/10 44/25/10
f 41/118/11 1/117/1 2/119/1
f 2/119/1 67/120/11 41/118/11
f 10/122/5 37/121/12 50/123/12
f 50/123/12 9/124/5 10/122/5
f 44/126/8 13/125/8 11/127/13
f 11/127/13 104/128/13 44/126/8
f 35/130/14 36/129/14 46/131/14
f 46/131/14 47/132/14 35/130/14
f 97/134/15 29/133/15 30/135/16
f 30/135/16 98/136/16 97/134/15
f 86/138/18 84/137/17 22/139/17
f 22/139/17 25/140/18 86/138/18
f 36/142/19 6/141/4 8/143/4
f 8/143/4 46/144/19 36/142/19
f 76/146/20 17/145/20 19/147/21
f 19/147/21 79/148/21 76/146/20
f 42/150/22 24/149/22 23/151/22
f 23/151/22 103/152/22 42/150/22
f 41/154/11 67/153/11 63/155/23
f 63/155/23 40/156/23 41/154/11
f 81/158/24 20/157/24 22/159/17
f 22/159/17 84/160/17 81/158/24
f 89/162/25 27/161/25 28/163/26
f 28/163/26 92/164/26 89/162/25
f 37/166/12 38/165/27 51/167/27
f 51/167/27 50/168/12 37/166/12
f 19/170/21 20/169/24 81/171/24
f 81/171/24 79/172/21 19/170/21
f 3/174/2 15/173/28 73/175/28
f 73/175/28 4/176/2 3/174/2
f 23/178/30 21/177/29 62/179/29
f 62/179/29 103/180/30 23/178/30
f 39/182/31 52/181/31 51/183/27
f 51/183/27 38/184/27 39/182/31
f 21/186/29 18/185/32 60/187/32
f 60/187/32 62/188/29 21/186/29
f 86/190/18 25/189/18 27/191/25
f 27/191/25 89/192/25 86/190/18
f 99/194/33 98/193/16 30/195/16
f 30/195/16 31/196/33 99/194/33
f 101/198/34 33/197/34 34/199/35
f 34/199/35 102/200/35 101/198/34
f 15/202/28 17/201/36 76/203/36
f 76/203/36 73/204/28 15/202/28
f 12/206/7 35/205/7 47/207/7
f 47/207/7 49/208/7 12/206/7
f 57/210/7 16/209/7 14/211/9
f 14/211/9 45/212/9 57/210/7
f 100/214/37 99/213/33 31/215/33
f 31/215/33 32/216/37 100/214/37
f 92/218/26 28/217/26 29/219/15
f 29/219/15 97/220/15 92/218/26
f 102/222/22 34/221/22 26/149/22
f 26/149/22 43/150/22 102/222/22
f 18/224/32 16/223/7 57/225/7
f 57/225/7 60/226/32 18/224/32
f 101/228/34 100/227/37 32/229/37
f 32/229/37 33/230/34 101/228/34
f 40/232/23 63/231/23 52/233/31
f 52/233/31 39/234/31 40/232/23
f 11/236/38 12/235/38 49/237/38
f 49/237/38 104/238/38 11/236/38

usemtl cotton
usemap cotton

f 96/110/10 80/93/10 82/95/10
f 82/95/10 95/108/10 96/110/10
f 82/95/10 83/96/10 95/108/10
f 83/96/10 85/98/10 95/108/10
f 85/98/10 87/100/10 95/108/10
f 87/100/10 88/101/10 95/108/10
f 88/101/10 90/103/10 95/108/10
f 90/103/10 91/104/10 95/108/10
f 91/104/10 93/106/10 95/108/10
f 93/106/10 94/107/10 95/108/10
f 80/93/10 96/110/10 61/73/10
f 80/93/10 61/73/10 59/72/10
f 78/91/10 80/93/10 59/72/10
f 78/91/10 59/72/10 58/71/10
f 77/90/10 78/91/10 58/71/10
f 75/88/10 77/90/10 58/71/10
f 75/88/10 58/71/10 56/69/10
f 75/88/10 56/69/10 54/67/10
f 74/87/10 75/88/10 54/67/10
f 72/85/10 74/87/10 54/67/10
f 71/83/10 72/85/10 54/67/10
f 70/82/10 71/83/10 54/67/10
f 69/80/10 70/82/10 54/67/10
f 68/79/10 69/80/10 54/67/10
f 66/77/10 68/79/10 54/67/10
f 65/76/10 66/77/10 54/67/10
f 64/75/10 65/76/10 54/67/10
f 64/75/10 54/67/10 48/59/10
f 48/59/10 53/66/10 64/75/10
f 55/68/10 54/67/10 56/69/10
