# Exported using Kenney Suite 1.1 

mtllib stairsStone.mtl 

g stairsStone

v -2.325 7.881713E-31 7.219114E-14 
v -2.325 0.5625 7.219114E-14 
v -2.325 2.440355E-15 8.190001 
v -2.325 0.5625 0.6825 
v -2.325 1.125 0.6825 
v -2.325 1.125 1.365 
v -2.325 1.6875 1.365 
v -2.325 1.6875 2.0475 
v -2.325 2.25 2.0475 
v -2.325 2.25 2.73 
v -2.325 2.8125 2.73 
v -2.325 2.8125 3.4125 
v -2.325 3.375 3.4125 
v -2.325 3.375 4.095 
v -2.325 3.9375 4.095 
v -2.325 3.9375 4.7775 
v -2.325 4.5 4.7775 
v -2.325 4.5 5.46 
v -2.325 5.0625 5.46 
v -2.325 5.0625 6.1425 
v -2.325 5.625 6.1425 
v -2.325 5.625 6.825 
v -2.325 6.1875 6.825 
v -2.325 6.1875 7.5075 
v -2.325 6.75 7.5075 
v -2.325 6.75 8.190001 
v 2.486261E-13 2.440355E-15 8.190001 
v 0 7.881713E-31 0 
v 8.287536E-14 2.25 2.73 
v 6.106605E-14 2.25 2.0475 
v 1.657507E-13 4.5 5.46 
v 1.657507E-13 5.0625 5.46 
v 0 0.5625 0 
v 2.18093E-14 1.125 0.6825 
v 2.18093E-14 0.5625 0.6825 
v 4.361861E-14 1.125 1.365 
v 6.106605E-14 1.6875 2.0475 
v 4.361861E-14 1.6875 1.365 
v 1.046847E-13 2.8125 3.4125 
v 8.287536E-14 2.8125 2.73 
v 1.26494E-13 3.375 4.095 
v 1.046847E-13 3.375 3.4125 
v 1.439414E-13 3.9375 4.7775 
v 1.26494E-13 3.9375 4.095 
v 1.439414E-13 4.5 4.7775 
v 1.8756E-13 5.0625 6.1425 
v 1.8756E-13 5.625 6.1425 
v 2.093693E-13 5.625 6.825 
v 2.268167E-13 6.1875 7.5075 
v 2.093693E-13 6.1875 6.825 
v 2.486261E-13 6.75 8.190001 
v 2.268167E-13 6.75 7.5075 

vn -1 0 0
vn 0 -1 0
vn 0 1 0
vn 0 0 -1
vn 1 0 0
vn 0 0 1

vt -4.560301E-13 -2.43421E-14
vt -4.560301E-13 2.251969
vt 32.24409 -1.457213E-14
vt 2.687008 2.251969
vt 2.687008 4.503937
vt 5.374016 4.503937
vt 5.374016 6.755906
vt 8.061024 6.755906
vt 8.061024 9.007874
vt 10.74803 9.007874
vt 10.74803 11.25984
vt 13.43504 11.25984
vt 13.43504 13.51181
vt 16.12205 13.51181
vt 16.12205 15.76378
vt 18.80906 15.76378
vt 18.80906 18.01575
vt 21.49606 18.01575
vt 21.49606 20.26772
vt 24.18307 20.26772
vt 24.18307 22.51969
vt 26.87008 22.51969
vt 26.87008 24.77165
vt 29.55709 24.77165
vt 29.55709 27.02362
vt 32.24409 27.02362
vt 1.620037E-12 32.24409
vt 0 1.401298E-45
vt -15.14961 32.24409
vt -15.14961 2.842171E-13
vt -5.400125E-13 10.74803
vt 15.14961 10.74803
vt -3.979039E-13 8.061024
vt 15.14961 8.061024
vt 15.14961 18.01575
vt -6.860059E-13 18.01575
vt 15.14961 20.26772
vt -6.860059E-13 20.26772
vt 15.14961 3.155444E-30
vt 0 3.155444E-30
vt 15.14961 2.251969
vt 0 2.251969
vt -2.687008 4.503937
vt -2.687008 2.251969
vt -5.374016 4.503937
vt -32.24409 9.769963E-15
vt -8.061024 6.755906
vt -5.374016 6.755906
vt -10.74803 9.007874
vt -8.061024 9.007874
vt -13.43504 11.25984
vt -10.74803 11.25984
vt -16.12205 13.51181
vt -13.43504 13.51181
vt -18.80906 15.76378
vt -16.12205 15.76378
vt -21.49606 18.01575
vt -18.80906 18.01575
vt -24.18307 20.26772
vt -21.49606 20.26772
vt -24.18307 22.51969
vt -26.87008 22.51969
vt -29.55709 24.77165
vt -26.87008 24.77165
vt -32.24409 27.02362
vt -29.55709 27.02362
vt -1.222134E-12 24.18307
vt 15.14961 24.18307
vt -1.080025E-12 21.49606
vt 15.14961 21.49606
vt -8.242296E-13 16.12205
vt 15.14961 16.12205
vt -6.82121E-13 13.43504
vt 15.14961 13.43504
vt 15.14961 4.503937
vt -1.857123E-13 4.503937
vt 15.14961 6.755906
vt -1.857123E-13 6.755906
vt -1.421085E-13 2.687008
vt 15.14961 2.687008
vt -6.937379E-30 3.784749E-16
vt 15.14961 2.845956E-13
vt 15.14961 24.77165
vt -9.361527E-13 24.77165
vt 15.14961 27.02362
vt -9.361527E-13 27.02362
vt 15.14961 9.007874
vt -3.430029E-13 9.007874
vt 15.14961 11.25984
vt -3.430029E-13 11.25984
vt -9.379164E-13 18.80906
vt 15.14961 18.80906
vt -1.620037E-12 32.24409
vt 15.14961 32.24409
vt -1.477929E-12 29.55709
vt 15.14961 29.55709
vt -2.842171E-13 5.374016
vt 15.14961 5.374016
vt -4.358591E-13 11.25984
vt 15.14961 13.51181
vt -4.358591E-13 13.51181
vt -2.501468E-13 6.755906
vt -2.501468E-13 9.007874
vt -1.364242E-12 26.87008
vt 15.14961 26.87008
vt 15.14961 22.51969
vt -8.717182E-13 22.51969
vt -8.717182E-13 24.77165
vt 15.14961 15.76378
vt -5.931497E-13 15.76378
vt -5.931497E-13 18.01575
vt 1.029009E-12 9.769963E-15
vt -15.14961 9.769963E-15
vt 1.029009E-12 27.02362
vt -15.14961 27.02362
vt -9.285616E-14 2.251969
vt -9.285616E-14 4.503937
vt -7.788621E-13 20.26772
vt -7.788621E-13 22.51969
vt -5.287153E-13 13.51181
vt -5.287153E-13 15.76378

usemtl wall
usemap wall

f 2/2/1 1/1/1 3/3/1
f 3/3/1 4/4/1 2/2/1
f 3/3/1 5/5/1 4/4/1
f 3/3/1 6/6/1 5/5/1
f 3/3/1 7/7/1 6/6/1
f 3/3/1 8/8/1 7/7/1
f 3/3/1 9/9/1 8/8/1
f 3/3/1 10/10/1 9/9/1
f 3/3/1 11/11/1 10/10/1
f 3/3/1 12/12/1 11/11/1
f 3/3/1 13/13/1 12/12/1
f 3/3/1 14/14/1 13/13/1
f 3/3/1 15/15/1 14/14/1
f 3/3/1 16/16/1 15/15/1
f 3/3/1 17/17/1 16/16/1
f 3/3/1 18/18/1 17/17/1
f 3/3/1 19/19/1 18/18/1
f 3/3/1 20/20/1 19/19/1
f 3/3/1 21/21/1 20/20/1
f 3/3/1 22/22/1 21/21/1
f 3/3/1 23/23/1 22/22/1
f 3/3/1 24/24/1 23/23/1
f 3/3/1 25/25/1 24/24/1
f 3/3/1 26/26/1 25/25/1
f 28/28/2 27/27/2 3/29/2
f 3/29/2 1/30/2 28/28/2
f 10/32/3 29/31/3 30/33/3
f 30/33/3 9/34/3 10/32/3
f 31/36/4 18/35/4 19/37/4
f 19/37/4 32/38/4 31/36/4
f 28/40/4 1/39/4 2/41/4
f 2/41/4 33/42/4 28/40/4
f 35/44/5 34/43/5 36/45/5
f 35/44/5 36/45/5 27/46/5
f 35/44/5 27/46/5 28/40/5
f 28/40/5 33/42/5 35/44/5
f 36/45/5 37/47/5 27/46/5
f 36/45/5 38/48/5 37/47/5
f 37/47/5 29/49/5 27/46/5
f 37/47/5 30/50/5 29/49/5
f 29/49/5 39/51/5 27/46/5
f 29/49/5 40/52/5 39/51/5
f 39/51/5 41/53/5 27/46/5
f 39/51/5 42/54/5 41/53/5
f 41/53/5 43/55/5 27/46/5
f 41/53/5 44/56/5 43/55/5
f 43/55/5 31/57/5 27/46/5
f 43/55/5 45/58/5 31/57/5
f 31/57/5 46/59/5 27/46/5
f 31/57/5 32/60/5 46/59/5
f 46/59/5 47/61/5 48/62/5
f 46/59/5 48/62/5 27/46/5
f 48/62/5 49/63/5 27/46/5
f 48/62/5 50/64/5 49/63/5
f 49/63/5 51/65/5 27/46/5
f 49/63/5 52/66/5 51/65/5
f 20/68/3 46/67/3 32/69/3
f 32/69/3 19/70/3 20/68/3
f 14/72/3 41/71/3 42/73/3
f 42/73/3 13/74/3 14/72/3
f 36/76/4 6/75/4 7/77/4
f 7/77/4 38/78/4 36/76/4
f 4/80/3 35/79/3 33/81/3
f 33/81/3 2/82/3 4/80/3
f 49/84/4 24/83/4 25/85/4
f 25/85/4 52/86/4 49/84/4
f 29/88/4 10/87/4 11/89/4
f 11/89/4 40/90/4 29/88/4
f 18/70/3 31/69/3 45/91/3
f 45/91/3 17/92/3 18/70/3
f 26/94/3 51/93/3 52/95/3
f 52/95/3 25/96/3 26/94/3
f 12/74/3 39/73/3 40/31/3
f 40/31/3 11/32/3 12/74/3
f 6/98/3 36/97/3 34/79/3
f 34/79/3 5/80/3 6/98/3
f 39/99/4 12/89/4 13/100/4
f 13/100/4 42/101/4 39/99/4
f 37/102/4 8/77/4 9/87/4
f 9/87/4 30/103/4 37/102/4
f 22/105/3 48/104/3 47/67/3
f 47/67/3 21/68/3 22/105/3
f 48/107/4 22/106/4 23/83/4
f 23/83/4 50/108/4 48/107/4
f 8/34/3 37/33/3 38/97/3
f 38/97/3 7/98/3 8/34/3
f 43/110/4 16/109/4 17/35/4
f 17/35/4 45/111/4 43/110/4
f 3/113/6 27/112/6 51/114/6
f 51/114/6 26/115/6 3/113/6
f 35/116/4 4/41/4 5/75/4
f 5/75/4 34/117/4 35/116/4
f 46/118/4 20/37/4 21/106/4
f 21/106/4 47/119/4 46/118/4
f 41/120/4 14/100/4 15/109/4
f 15/109/4 44/121/4 41/120/4
f 24/96/3 49/95/3 50/104/3
f 50/104/3 23/105/3 24/96/3
f 16/92/3 43/91/3 44/71/3
f 44/71/3 15/72/3 16/92/3
