# Exported using Kenney Suite 1.1 

mtllib towerSquareMidOpen.mtl 

g towerSquareMidOpen

v -9.65 8.781536 0.8125 
v -9.65 9.6 0.8125 
v -9.65 8.781536 7.7875 
v -9.65 9.6 7.7875 
v -9.65 5.414336E-15 7.7875 
v -9.65 10.1 7.7875 
v -9.65 10.1 8.95 
v -9.65 5.414336E-15 8.95 
v -9.65 10.1 0.8125 
v -9.65 5.414336E-15 0.8125 
v -9.65 10.1 -0.35 
v -9.65 5.414336E-15 -0.35 
v -0.35 5.414336E-15 8.95 
v -1.5125 5.414336E-15 8.95 
v -0.35 10.1 8.95 
v -1.5125 8.781536 8.95 
v -1.5125 9.6 8.95 
v -8.4875 8.781536 8.95 
v -1.5125 10.1 8.95 
v -8.4875 9.6 8.95 
v -8.4875 5.414336E-15 8.95 
v -8.4875 10.1 8.95 
v -8.4875 5.414336E-15 -0.35 
v -8.4875 8.781536 -0.35 
v -8.4875 9.6 -0.35 
v -1.5125 8.781536 -0.35 
v -8.4875 10.1 -0.35 
v -1.5125 9.6 -0.35 
v -0.35 10.1 -0.35 
v -0.35 5.414336E-15 -0.35 
v -1.5125 5.414336E-15 -0.35 
v -1.5125 10.1 -0.35 
v -1.5125 4.735034E-15 0.8125 
v -1.5125 8.781536 0.8125 
v -0.35 5.429845E-15 0.8125 
v -0.35 8.781536 0.8125 
v -8.4875 8.781536 0.8125 
v -8.4875 9.6 0.8125 
v -1.5125 9.6 0.8125 
v -8.4875 4.735034E-15 0.8125 
v -0.35 9.6 0.8125 
v -0.35 10.1 0.8125 
v -1.5125 10.1 0.8125 
v -8.4875 10.1 0.8125 
v -1.5125 4.735034E-15 7.7875 
v -1.5125 8.781536 7.7875 
v -1.5125 9.6 7.7875 
v -1.5125 10.1 7.7875 
v -0.35 5.414336E-15 7.7875 
v -0.35 8.781536 7.7875 
v -8.4875 8.781536 7.7875 
v -8.4875 9.6 7.7875 
v -8.4875 4.735034E-15 7.7875 
v -0.35 9.6 7.7875 
v -0.35 10.1 7.7875 
v -8.4875 10.1 7.7875 

vn -1 0 0
vn 1 0 0
vn 0 0 1
vn 0 0 -1
vn 0 -1 0
vn 0 1 0

vt 3.198819 34.57298
vt 3.198819 37.79528
vt 30.65945 34.57298
vt 30.65945 37.79528
vt 30.65945 2.131628E-14
vt 30.65945 39.76378
vt 35.23622 39.76378
vt 35.23622 2.131628E-14
vt 3.198819 39.76378
vt 3.198819 2.131628E-14
vt -1.377953 39.76378
vt -1.377953 2.131628E-14
vt -5.954724 2.131628E-14
vt -5.954724 34.57298
vt -5.954724 37.79528
vt -33.41536 34.57298
vt -5.954724 39.76378
vt -33.41536 37.79528
vt -37.99213 39.76378
vt -37.99213 2.131628E-14
vt -33.41536 2.131628E-14
vt -33.41536 39.76378
vt 37.99213 2.131628E-14
vt 33.41536 2.131628E-14
vt 37.99213 39.76378
vt 33.41536 34.57298
vt 33.41536 37.79528
vt 5.954724 34.57298
vt 33.41536 39.76378
vt 5.954724 37.79528
vt 1.377953 39.76378
vt 1.377953 2.131628E-14
vt 5.954724 2.131628E-14
vt 5.954724 39.76378
vt -5.954724 1.864187E-14
vt -1.377953 2.137734E-14
vt -1.377953 34.57298
vt -33.41536 1.864187E-14
vt -37.99213 34.57298
vt -1.377953 37.79528
vt -37.99213 37.79528
vt 30.65945 1.864187E-14
vt 35.23622 34.57298
vt 3.198819 1.741805E-14
vt -1.377953 2.009247E-14
vt 35.23622 37.79528
vt 5.954724 4.384635E-14
vt 1.377953 4.652076E-14
vt 1.377953 34.57298
vt 33.41536 1.549131E-14
vt 37.99213 1.816572E-14
vt 37.99213 34.57298
vt 1.377953 37.79528
vt 37.99213 37.79528
vt -30.65945 34.57298
vt -30.65945 1.864187E-14
vt -35.23622 34.57298
vt -35.23622 2.131628E-14
vt -30.65945 37.79528
vt -3.198819 34.57298
vt -3.198819 37.79528
vt -3.198819 1.864187E-14
vt -30.65945 39.76378
vt -35.23622 39.76378
vt -35.23622 37.79528
vt -3.198819 39.76378
vt -1.377953 3.198819
vt -1.377953 -1.377953
vt -5.954724 3.198819
vt -5.954724 -1.377953
vt -33.41536 3.198819
vt -33.41536 -1.377953
vt -37.99213 3.198819
vt -37.99213 -1.377953
vt -33.41536 35.23622
vt -33.41536 30.65945
vt -37.99213 35.23622
vt -37.99213 30.65945
vt -1.377953 35.23622
vt -1.377953 30.65945
vt -5.954724 35.23622
vt -5.954724 30.65945
vt 1.377953 30.65945
vt 1.377953 35.23622
vt 5.954724 30.65945
vt 5.954724 35.23622
vt -30.65945 2.131628E-14
vt -3.198819 2.137734E-14
vt 1.377953 -1.377953
vt 1.377953 3.198819
vt 5.954724 -1.377953
vt 5.954724 3.198819
vt 33.41536 -1.377953
vt 33.41536 3.198819
vt 37.99213 -1.377953
vt 37.99213 3.198819
vt 33.41536 30.65945
vt 33.41536 35.23622
vt 37.99213 30.65945
vt 37.99213 35.23622

usemtl wall
usemap wall

f 2/2/1 1/1/1 3/3/1
f 3/3/1 4/4/1 2/2/1
f 3/3/1 5/5/1 4/4/1
f 5/5/1 6/6/1 4/4/1
f 5/5/1 7/7/1 6/6/1
f 5/5/1 8/8/1 7/7/1
f 1/1/1 2/2/1 9/9/1
f 10/10/1 1/1/1 9/9/1
f 10/10/1 9/9/1 11/11/1
f 11/11/1 12/12/1 10/10/1
f 2/2/2 3/3/2 1/1/2
f 3/3/2 2/2/2 4/4/2
f 3/3/2 4/4/2 5/5/2
f 5/5/2 4/4/2 6/6/2
f 5/5/2 6/6/2 7/7/2
f 5/5/2 7/7/2 8/8/2
f 1/1/2 9/9/2 2/2/2
f 10/10/2 9/9/2 1/1/2
f 10/10/2 11/11/2 9/9/2
f 11/11/2 10/10/2 12/12/2
f 14/13/3 13/12/3 15/11/3
f 15/11/3 16/14/3 14/13/3
f 15/11/3 17/15/3 16/14/3
f 17/15/3 18/16/3 16/14/3
f 15/11/3 19/17/3 17/15/3
f 18/16/3 17/15/3 20/18/3
f 18/16/3 20/18/3 7/19/3
f 18/16/3 7/19/3 8/20/3
f 8/20/3 21/21/3 18/16/3
f 20/18/3 22/22/3 7/19/3
f 14/13/4 15/11/4 13/12/4
f 15/11/4 14/13/4 16/14/4
f 15/11/4 16/14/4 17/15/4
f 17/15/4 16/14/4 18/16/4
f 15/11/4 17/15/4 19/17/4
f 18/16/4 20/18/4 17/15/4
f 18/16/4 7/19/4 20/18/4
f 18/16/4 8/20/4 7/19/4
f 8/20/4 18/16/4 21/21/4
f 20/18/4 7/19/4 22/22/4
f 23/24/4 12/23/4 11/25/4
f 11/25/4 24/26/4 23/24/4
f 11/25/4 25/27/4 24/26/4
f 25/27/4 26/28/4 24/26/4
f 11/25/4 27/29/4 25/27/4
f 26/28/4 25/27/4 28/30/4
f 26/28/4 28/30/4 29/31/4
f 26/28/4 29/31/4 30/32/4
f 30/32/4 31/33/4 26/28/4
f 28/30/4 32/34/4 29/31/4
f 23/24/3 11/25/3 12/23/3
f 11/25/3 23/24/3 24/26/3
f 11/25/3 24/26/3 25/27/3
f 25/27/3 24/26/3 26/28/3
f 11/25/3 25/27/3 27/29/3
f 26/28/3 28/30/3 25/27/3
f 26/28/3 29/31/3 28/30/3
f 26/28/3 30/32/3 29/31/3
f 30/32/3 26/28/3 31/33/3
f 28/30/3 29/31/3 32/34/3
f 34/14/3 33/35/3 35/36/3
f 35/36/3 36/37/3 34/14/3
f 38/18/3 37/16/3 34/14/3
f 34/14/3 39/15/3 38/18/3
f 10/20/3 40/38/3 37/16/3
f 37/16/3 1/39/3 10/20/3
f 39/15/3 41/40/3 42/11/3
f 42/11/3 43/17/3 39/15/3
f 2/41/3 38/18/3 44/22/3
f 44/22/3 9/19/3 2/41/3
f 34/14/4 35/36/4 33/35/4
f 35/36/4 34/14/4 36/37/4
f 38/18/4 34/14/4 37/16/4
f 34/14/4 38/18/4 39/15/4
f 10/20/4 37/16/4 40/38/4
f 37/16/4 10/20/4 1/39/4
f 39/15/4 42/11/4 41/40/4
f 42/11/4 39/15/4 43/17/4
f 2/41/4 44/22/4 38/18/4
f 44/22/4 2/41/4 9/19/4
f 46/3/1 45/42/1 14/8/1
f 14/8/1 16/43/1 46/3/1
f 39/2/1 34/1/1 46/3/1
f 46/3/1 47/4/1 39/2/1
f 33/44/1 34/1/1 26/37/1
f 26/37/1 31/45/1 33/44/1
f 48/6/1 47/4/1 17/46/1
f 17/46/1 19/7/1 48/6/1
f 32/11/1 28/40/1 39/2/1
f 39/2/1 43/9/1 32/11/1
f 46/3/2 14/8/2 45/42/2
f 14/8/2 46/3/2 16/43/2
f 39/2/2 46/3/2 34/1/2
f 46/3/2 39/2/2 47/4/2
f 33/44/2 26/37/2 34/1/2
f 26/37/2 33/44/2 31/45/2
f 48/6/2 17/46/2 47/4/2
f 17/46/2 48/6/2 19/7/2
f 32/11/2 39/2/2 28/40/2
f 39/2/2 32/11/2 43/9/2
f 49/48/4 45/47/4 46/28/4
f 46/28/4 50/49/4 49/48/4
f 46/28/4 51/26/4 52/27/4
f 52/27/4 47/30/4 46/28/4
f 51/26/4 53/50/4 5/51/4
f 5/51/4 3/52/4 51/26/4
f 54/53/4 47/30/4 48/34/4
f 48/34/4 55/31/4 54/53/4
f 52/27/4 4/54/4 6/25/4
f 6/25/4 56/29/4 52/27/4
f 49/48/3 46/28/3 45/47/3
f 46/28/3 49/48/3 50/49/3
f 46/28/3 52/27/3 51/26/3
f 52/27/3 46/28/3 47/30/3
f 51/26/3 5/51/3 53/50/3
f 5/51/3 51/26/3 3/52/3
f 54/53/3 48/34/3 47/30/3
f 48/34/3 54/53/3 55/31/3
f 52/27/3 6/25/3 4/54/3
f 6/25/3 52/27/3 56/29/3
f 53/56/2 51/55/2 18/57/2
f 18/57/2 21/58/2 53/56/2
f 52/59/2 51/55/2 37/60/2
f 37/60/2 38/61/2 52/59/2
f 23/32/2 24/49/2 37/60/2
f 37/60/2 40/62/2 23/32/2
f 52/59/2 56/63/2 22/64/2
f 22/64/2 20/65/2 52/59/2
f 44/66/2 38/61/2 25/53/2
f 25/53/2 27/31/2 44/66/2
f 53/56/1 18/57/1 51/55/1
f 18/57/1 53/56/1 21/58/1
f 52/59/1 37/60/1 51/55/1
f 37/60/1 52/59/1 38/61/1
f 23/32/1 37/60/1 24/49/1
f 37/60/1 23/32/1 40/62/1
f 52/59/1 22/64/1 56/63/1
f 22/64/1 52/59/1 20/65/1
f 44/66/1 25/53/1 38/61/1
f 25/53/1 44/66/1 27/31/1
f 30/68/5 35/67/5 33/69/5
f 33/69/5 31/70/5 30/68/5
f 30/68/6 33/69/6 35/67/6
f 33/69/6 30/68/6 31/70/6
f 23/72/5 40/71/5 10/73/5
f 10/73/5 12/74/5 23/72/5
f 23/72/6 10/73/6 40/71/6
f 10/73/6 23/72/6 12/74/6
f 53/76/5 21/75/5 8/77/5
f 8/77/5 5/78/5 53/76/5
f 53/76/6 8/77/6 21/75/6
f 8/77/6 53/76/6 5/78/6
f 49/80/5 13/79/5 14/81/5
f 14/81/5 45/82/5 49/80/5
f 49/80/6 14/81/6 13/79/6
f 14/81/6 49/80/6 45/82/6
f 15/84/6 55/83/6 48/85/6
f 48/85/6 19/86/6 15/84/6
f 54/59/2 55/63/2 15/64/2
f 15/64/2 50/55/2 54/59/2
f 50/55/2 15/64/2 13/58/2
f 13/58/2 49/87/2 50/55/2
f 54/59/2 50/55/2 36/60/2
f 36/60/2 41/61/2 54/59/2
f 41/61/2 36/60/2 35/88/2
f 42/66/2 41/61/2 35/88/2
f 42/66/2 35/88/2 30/32/2
f 30/32/2 29/31/2 42/66/2
f 54/59/1 15/64/1 55/63/1
f 15/64/1 54/59/1 50/55/1
f 50/55/1 13/58/1 15/64/1
f 13/58/1 50/55/1 49/87/1
f 54/59/1 36/60/1 50/55/1
f 36/60/1 54/59/1 41/61/1
f 41/61/1 35/88/1 36/60/1
f 42/66/1 35/88/1 41/61/1
f 42/66/1 30/32/1 35/88/1
f 30/32/1 42/66/1 29/31/1
f 42/90/6 29/89/6 32/91/6
f 32/91/6 43/92/6 42/90/6
f 42/90/5 32/91/5 29/89/5
f 32/91/5 42/90/5 43/92/5
f 44/94/6 27/93/6 11/95/6
f 11/95/6 9/96/6 44/94/6
f 44/94/5 11/95/5 27/93/5
f 11/95/5 44/94/5 9/96/5
f 22/98/6 56/97/6 6/99/6
f 6/99/6 7/100/6 22/98/6
f 22/98/5 6/99/5 56/97/5
f 6/99/5 22/98/5 7/100/5
f 52/97/6 38/94/6 2/96/6
f 2/96/6 4/99/6 52/97/6
f 17/86/6 47/85/6 52/97/6
f 52/97/6 20/98/6 17/86/6
f 39/92/6 47/85/6 54/83/6
f 54/83/6 41/90/6 39/92/6
f 25/93/6 38/94/6 39/92/6
f 39/92/6 28/91/6 25/93/6
f 52/97/5 2/96/5 38/94/5
f 2/96/5 52/97/5 4/99/5
f 17/86/5 52/97/5 47/85/5
f 52/97/5 17/86/5 20/98/5
f 39/92/5 54/83/5 47/85/5
f 54/83/5 39/92/5 41/90/5
f 25/93/5 39/92/5 38/94/5
f 39/92/5 25/93/5 28/91/5
f 24/72/5 26/70/5 34/69/5
f 34/69/5 37/71/5 24/72/5
f 46/82/5 34/69/5 36/67/5
f 36/67/5 50/80/5 46/82/5
f 46/82/5 16/81/5 18/75/5
f 18/75/5 51/76/5 46/82/5
f 37/71/5 51/76/5 3/78/5
f 3/78/5 1/73/5 37/71/5
f 24/72/6 34/69/6 26/70/6
f 34/69/6 24/72/6 37/71/6
f 46/82/6 36/67/6 34/69/6
f 36/67/6 46/82/6 50/80/6
f 46/82/6 18/75/6 16/81/6
f 18/75/6 46/82/6 51/76/6
f 37/71/6 3/78/6 51/76/6
f 3/78/6 37/71/6 1/73/6
g plank 8

v -0.35 0.2 6.776437 
v -0.35 5.414336E-15 6.776437 
v -0.35 0.2 7.76226 
v -0.35 5.414336E-15 7.76226 
v -9.650001 5.414336E-15 6.776437 
v -9.650001 0.2 6.776437 
v -9.650001 5.414336E-15 7.76226 
v -9.650001 0.2 7.76226 


vt -0.4183071 0.7874016
vt -0.4183071 0
vt -4.502953 0.7874016
vt -4.502953 0
vt 0.4183071 0
vt 0.4183071 0.7874016
vt 4.502953 0
vt 4.502953 0.7874016
vt 0 0
vt -19.68504 0
vt 0 0.7874016
vt -19.68504 0.7874016
vt 0 0.4183071
vt 0 4.502953
vt 19.68504 0.4183071
vt 19.68504 4.502953
vt 19.68504 0
vt 19.68504 0.7874016
vt -19.68504 4.502953
vt -19.68504 0.4183071

usemtl wood
usemap wood

f 58/102/2 57/101/2 59/103/2
f 59/103/2 60/104/2 58/102/2
f 62/106/1 61/105/1 63/107/1
f 63/107/1 64/108/1 62/106/1
f 63/110/3 60/109/3 59/111/3
f 59/111/3 64/112/3 63/110/3
f 59/114/6 57/113/6 62/115/6
f 62/115/6 64/116/6 59/114/6
f 58/109/4 61/117/4 62/118/4
f 62/118/4 57/111/4 58/109/4
f 58/113/5 60/114/5 63/119/5
f 63/119/5 61/120/5 58/113/5
g plank 9

v -1.5125 0.2 -0.35 
v -1.5125 5.414336E-15 -0.35 
v -1.5125 0.2 0.6358237 
v -1.5125 5.414336E-15 0.6358237 
v -8.4875 5.414336E-15 -0.35 
v -8.4875 0.2 -0.35 
v -8.4875 5.414336E-15 0.6358237 
v -8.4875 0.2 0.6358237 



usemtl wood
usemap wood

f 66/102/2 65/101/2 67/103/2
f 67/103/2 68/104/2 66/102/2
f 70/106/1 69/105/1 71/107/1
f 71/107/1 72/108/1 70/106/1
f 71/110/3 68/109/3 67/111/3
f 67/111/3 72/112/3 71/110/3
f 67/114/6 65/113/6 70/115/6
f 70/115/6 72/116/6 67/114/6
f 66/109/4 69/117/4 70/118/4
f 70/118/4 65/111/4 66/109/4
f 66/113/5 68/114/5 71/119/5
f 71/119/5 69/120/5 66/113/5
g plank 10

v -0.35 0.2 4.400958 
v -0.35 5.414336E-15 4.400958 
v -0.35 0.2 5.386782 
v -0.35 5.414336E-15 5.386782 
v -9.650001 5.414336E-15 4.400958 
v -9.650001 0.2 4.400958 
v -9.650001 5.414336E-15 5.386782 
v -9.650001 0.2 5.386782 



usemtl wood
usemap wood

f 74/102/2 73/101/2 75/103/2
f 75/103/2 76/104/2 74/102/2
f 78/106/1 77/105/1 79/107/1
f 79/107/1 80/108/1 78/106/1
f 79/110/3 76/109/3 75/111/3
f 75/111/3 80/112/3 79/110/3
f 75/114/6 73/113/6 78/115/6
f 78/115/6 80/116/6 75/114/6
f 74/109/4 77/117/4 78/118/4
f 78/118/4 73/111/4 74/109/4
f 74/113/5 76/114/5 79/119/5
f 79/119/5 77/120/5 74/113/5
g plank 11

v -0.35 0.2 3.213218 
v -0.35 5.414336E-15 3.213218 
v -0.35 0.2 4.199042 
v -0.35 5.414336E-15 4.199042 
v -9.650001 5.414336E-15 3.213218 
v -9.650001 0.2 3.213218 
v -9.650001 5.414336E-15 4.199042 
v -9.650001 0.2 4.199042 



usemtl wood
usemap wood

f 82/102/2 81/101/2 83/103/2
f 83/103/2 84/104/2 82/102/2
f 86/106/1 85/105/1 87/107/1
f 87/107/1 88/108/1 86/106/1
f 87/110/3 84/109/3 83/111/3
f 83/111/3 88/112/3 87/110/3
f 83/114/6 81/113/6 86/115/6
f 86/115/6 88/116/6 83/114/6
f 82/109/4 85/117/4 86/118/4
f 86/118/4 81/111/4 82/109/4
f 82/113/5 84/114/5 87/119/5
f 87/119/5 85/120/5 82/113/5
g plank 12

v -0.35 0.2 2.025479 
v -0.35 5.414336E-15 2.025479 
v -0.35 0.2 3.011303 
v -0.35 5.414336E-15 3.011303 
v -9.650001 5.414336E-15 2.025479 
v -9.650001 0.2 2.025479 
v -9.650001 5.414336E-15 3.011303 
v -9.650001 0.2 3.011303 



usemtl wood
usemap wood

f 90/102/2 89/101/2 91/103/2
f 91/103/2 92/104/2 90/102/2
f 94/106/1 93/105/1 95/107/1
f 95/107/1 96/108/1 94/106/1
f 95/110/3 92/109/3 91/111/3
f 91/111/3 96/112/3 95/110/3
f 91/114/6 89/113/6 94/115/6
f 94/115/6 96/116/6 91/114/6
f 90/109/4 93/117/4 94/118/4
f 94/118/4 89/111/4 90/109/4
f 90/113/5 92/114/5 95/119/5
f 95/119/5 93/120/5 90/113/5
g plank 13

v -0.35 0.2 0.8377395 
v -0.35 5.414336E-15 0.8377395 
v -0.35 0.2 1.823563 
v -0.35 5.414336E-15 1.823563 
v -9.650001 5.414336E-15 0.8377395 
v -9.650001 0.2 0.8377395 
v -9.650001 5.414336E-15 1.823563 
v -9.650001 0.2 1.823563 



usemtl wood
usemap wood

f 98/102/2 97/101/2 99/103/2
f 99/103/2 100/104/2 98/102/2
f 102/106/1 101/105/1 103/107/1
f 103/107/1 104/108/1 102/106/1
f 103/110/3 100/109/3 99/111/3
f 99/111/3 104/112/3 103/110/3
f 99/114/6 97/113/6 102/115/6
f 102/115/6 104/116/6 99/114/6
f 98/109/4 101/117/4 102/118/4
f 102/118/4 97/111/4 98/109/4
f 98/113/5 100/114/5 103/119/5
f 103/119/5 101/120/5 98/113/5
g plank 14

v -0.35 0.2 5.588697 
v -0.35 5.414336E-15 5.588697 
v -0.35 0.2 6.574521 
v -0.35 5.414336E-15 6.574521 
v -9.650001 5.414336E-15 5.588697 
v -9.650001 0.2 5.588697 
v -9.650001 5.414336E-15 6.574521 
v -9.650001 0.2 6.574521 



usemtl wood
usemap wood

f 106/102/2 105/101/2 107/103/2
f 107/103/2 108/104/2 106/102/2
f 110/106/1 109/105/1 111/107/1
f 111/107/1 112/108/1 110/106/1
f 111/110/3 108/109/3 107/111/3
f 107/111/3 112/112/3 111/110/3
f 107/114/6 105/113/6 110/115/6
f 110/115/6 112/116/6 107/114/6
f 106/109/4 109/117/4 110/118/4
f 110/118/4 105/111/4 106/109/4
f 106/113/5 108/114/5 111/119/5
f 111/119/5 109/120/5 106/113/5
g plank 15

v -1.5125 0.2 7.964176 
v -1.5125 5.414336E-15 7.964176 
v -1.5125 0.2 8.95 
v -8.4875 5.414336E-15 7.964176 
v -8.4875 0.2 7.964176 
v -8.4875 0.2 8.95 



usemtl wood
usemap wood

f 114/102/2 113/101/2 115/103/2
f 115/103/2 14/104/2 114/102/2
f 117/106/1 116/105/1 21/107/1
f 21/107/1 118/108/1 117/106/1
f 21/110/3 14/109/3 115/111/3
f 115/111/3 118/112/3 21/110/3
f 115/114/6 113/113/6 117/115/6
f 117/115/6 118/116/6 115/114/6
f 114/109/4 116/117/4 117/118/4
f 117/118/4 113/111/4 114/109/4
f 114/113/5 14/114/5 21/119/5
f 21/119/5 116/120/5 114/113/5
g rail 5

v -1.5125 2.281384 8.55 
v -1.5125 2.281384 8.950001 
v -8.4875 2.281384 8.55 
v -8.4875 2.281384 8.950001 
v -8.4875 1.981384 8.55 
v -8.4875 1.981384 8.950001 
v -1.5125 1.981384 8.55 
v -1.5125 1.981384 8.950001 


vt 0 1.574803
vt 24.01575 0
vt 24.01575 1.574803
vt 0 1.181102
vt 1.574803 0
vt 1.574803 1.181102
vt 24.01575 1.181102
vt -24.01575 0
vt -24.01575 1.181102
vt -24.01575 1.574803
vt -1.574803 1.181102
vt -1.574803 0

usemtl wood
usemap wood

f 120/121/6 119/109/6 121/122/6
f 121/122/6 122/123/6 120/121/6
f 121/124/1 123/109/1 124/125/1
f 124/125/1 122/126/1 121/124/1
f 125/109/4 123/122/4 121/127/4
f 121/127/4 119/124/4 125/109/4
f 124/128/3 126/109/3 120/124/3
f 120/124/3 122/129/3 124/128/3
f 125/109/5 126/121/5 124/130/5
f 124/130/5 123/128/5 125/109/5
f 125/109/2 119/124/2 120/131/2
f 120/131/2 126/132/2 125/109/2
g rail 6

v -9.25 2.281384 7.7875 
v -9.650001 2.281384 7.7875 
v -9.25 2.281384 0.8124989 
v -9.65 2.281384 0.8124989 
v -9.25 1.981384 0.8124989 
v -9.65 1.981384 0.8124989 
v -9.25 1.981384 7.7875 
v -9.650001 1.981384 7.7875 

vn 1.192093E-07 0 -1
vn 1 0 1.192093E-07
vn -1 0 -1.192093E-07
vn 0 -1 0
vn -1.192093E-07 0 1


usemtl wood
usemap wood

f 128/121/6 127/109/6 129/122/6
f 129/122/6 130/123/6 128/121/6
f 129/124/7 131/109/7 132/125/7
f 132/125/7 130/126/7 129/124/7
f 133/109/8 131/122/8 129/127/8
f 129/127/8 127/124/8 133/109/8
f 132/128/9 134/109/9 128/124/9
f 128/124/9 130/129/9 132/128/9
f 133/109/10 134/121/10 132/130/10
f 132/130/10 131/128/10 133/109/10
f 133/109/11 127/124/11 128/131/11
f 128/131/11 134/132/11 133/109/11
g rail 7

v -1.5125 2.281384 -0.35 
v -1.5125 2.281384 0.04999999 
v -8.4875 2.281384 -0.35 
v -8.4875 2.281384 0.04999999 
v -8.4875 1.981384 -0.35 
v -8.4875 1.981384 0.04999999 
v -1.5125 1.981384 -0.35 
v -1.5125 1.981384 0.04999999 



usemtl wood
usemap wood

f 136/121/6 135/109/6 137/122/6
f 137/122/6 138/123/6 136/121/6
f 137/124/1 139/109/1 140/125/1
f 140/125/1 138/126/1 137/124/1
f 141/109/4 139/122/4 137/127/4
f 137/127/4 135/124/4 141/109/4
f 140/128/3 142/109/3 136/124/3
f 136/124/3 138/129/3 140/128/3
f 141/109/5 142/121/5 140/130/5
f 140/130/5 139/128/5 141/109/5
f 141/109/2 135/124/2 136/131/2
f 136/131/2 142/132/2 141/109/2
g rail 8

v -0.35 2.281384 7.7875 
v -0.75 2.281384 7.7875 
v -0.3499994 2.281384 0.8124989 
v -0.7499994 2.281384 0.8124989 
v -0.3499994 1.981384 0.8124989 
v -0.7499994 1.981384 0.8124989 
v -0.35 1.981384 7.7875 
v -0.75 1.981384 7.7875 



usemtl wood
usemap wood

f 144/121/6 143/109/6 145/122/6
f 145/122/6 146/123/6 144/121/6
f 145/124/7 147/109/7 148/125/7
f 148/125/7 146/126/7 145/124/7
f 149/109/8 147/122/8 145/127/8
f 145/127/8 143/124/8 149/109/8
f 148/128/9 150/109/9 144/124/9
f 144/124/9 146/129/9 148/128/9
f 149/109/10 150/121/10 148/130/10
f 148/130/10 147/128/10 149/109/10
f 149/109/11 143/124/11 144/131/11
f 144/131/11 150/132/11 149/109/11
