# Exported using Kenney Suite 1.1 

mtllib towerSquareTopRoofHigh.mtl 

g towerSquareTopRoofHigh

v -10 1 0 
v -10 1 10 
v -9.65 0 0.35 
v -9.65 0 9.65 
v 0 1 0 
v -0.35 0 0.35 
v 0 1 10 
v -0.35 0 9.65 
v 0 3 7.5 
v 0 2.55 7.5 
v 0 3 10 
v 0 2.55 2.5 
v -7.219114E-15 3 2.5 
v -7.219114E-15 3 0 
v -2.5 2.55 10 
v -2.5 3 10 
v -7.5 2.55 10 
v -10 3 10 
v -7.5 3 10 
v -0.8475247 2.55 2.5 
v -0.8475247 2.55 7.5 
v -2.5 2.55 9.152475 
v -7.5 2.55 9.152475 
v -9.152475 2.55 2.5 
v -9.152475 2.55 7.5 
v -10 2.55 2.5 
v -10 2.55 7.5 
v -0.8475247 3 0.8475247 
v -2.5 3 0 
v -2.5 3 0.8475247 
v -0.8475247 3 2.5 
v -0.8475247 3 7.5 
v -0.8475247 3 9.152475 
v -2.5 3 9.152475 
v -9.152475 3 7.5 
v -9.152475 3 9.152475 
v -10 3 7.5 
v -7.5 3 9.152475 
v -2.5 2.55 0 
v -2.5 2.55 0.8475247 
v -7.5 2.55 0 
v -7.5 2.55 0.8475247 
v -10 3 0 
v -7.5 3 0 
v -7.5 3 0.8475247 
v -9.152475 3 0.8475247 
v -9.152475 3 2.5 
v -10 3 2.5 
v -0.8475247 3.6 9.152475 
v -9.152475 3.6 9.152475 
v -0.8475247 3.6 0.8475247 
v -4.647039 13.5 4.647039 
v -4.647039 13.5 5.35296 
v -5.35296 13.5 4.647039 
v -5.35296 13.5 5.35296 
v -9.152475 3.6 0.8475247 
v -7.076238 6.599999 2.923763 
v -2.923763 6.599999 2.923763 
v -7.076238 6.599999 7.076238 
v -2.923763 6.599999 7.076238 

vn -0.9438583 -0.3303504 0
vn 0.9438583 -0.3303504 0
vn 1 0 0
vn 0 -0.3303504 0.9438583
vn 0 0 1
vn 0 -0.3303504 -0.9438583
vn 0 1 0
vn 0 0 -1
vn -1 0 0
vn 0 -1 0
vn 0 0.2423076 -0.9701995
vn -0.9701995 0.2423076 0
vn 0.9701995 0.2423076 0
vn 0 0.2423076 0.9701995
vn 0 0.569083 0.8222801
vn 0 0.569083 -0.8222801
vn -0.8222801 0.569083 0
vn 0.8222801 0.569083 0

vt 3.871046E-17 16.7219
vt 39.37008 16.7219
vt 1.377953 12.55071
vt 37.99213 12.55071
vt 0 3.715978
vt -1.377953 -0.4552073
vt -39.37008 3.715978
vt -37.99213 -0.4552073
vt -29.52756 11.81102
vt -29.52756 10.03937
vt -39.37008 11.81102
vt -39.37008 3.937008
vt -9.84252 10.03937
vt 0 3.937008
vt -9.84252 11.81102
vt 1.231077E-29 11.81102
vt -1.377953 12.55071
vt -37.99213 12.55071
vt -6.774331E-17 16.7219
vt -39.37008 16.7219
vt 0 11.81102
vt 37.99213 -0.4552073
vt 1.377953 -0.4552073
vt 39.37008 3.715978
vt 0 9.84252
vt 0 29.52756
vt 3.336711 9.84252
vt 3.336711 29.52756
vt 9.84252 36.03337
vt 9.84252 39.37008
vt 29.52756 36.03337
vt 29.52756 39.37008
vt 36.03337 9.84252
vt 36.03337 29.52756
vt 39.37008 9.84252
vt 39.37008 29.52756
vt 2.842171E-14 9.84252
vt 3.336711 3.336711
vt 2.842171E-14 0
vt 9.84252 0
vt 9.84252 3.336711
vt 0 39.37008
vt 3.336711 36.03337
vt 36.03337 36.03337
vt 39.37008 39.37008
vt 39.37008 10.03937
vt 36.03337 10.03937
vt 39.37008 11.81102
vt 36.03337 11.81102
vt 0 10.03937
vt -3.336711 10.03937
vt -2.842171E-14 11.81102
vt -3.336711 11.81102
vt 2.058046E-30 10.03937
vt 2.058046E-30 11.81102
vt 3.336711 10.03937
vt 3.336711 11.81102
vt 29.52756 0
vt 29.52756 3.336711
vt -36.03337 11.81102
vt -36.03337 10.03937
vt -39.37008 10.03937
vt -1.377953 37.99213
vt -1.377953 1.377953
vt -37.99213 37.99213
vt -37.99213 1.377953
vt 39.37008 3.937008
vt 29.52756 10.03937
vt 29.52756 11.81102
vt 9.84252 10.03937
vt 2.842171E-14 11.81102
vt 9.84252 11.81102
vt 39.37008 0
vt 36.03337 3.336711
vt -3.336711 14.17323
vt -36.03337 14.17323
vt 18.29543 18.29543
vt 18.29543 21.07465
vt 21.07465 18.29543
vt 21.07465 21.07465
vt 36.03337 14.17323
vt 3.336711 14.17323
vt 27.8592 27.99908
vt 11.51088 27.99908
vt 21.07465 55.99884
vt 18.29543 55.99884
vt 11.51088 18.45941
vt 18.29543 46.45917
vt 27.8592 18.45941
vt 21.07465 46.45917
vt -11.51088 27.99908
vt -27.8592 27.99908
vt -18.29543 55.99884
vt -21.07465 55.99884
vt -11.51088 18.45941
vt -27.8592 18.45941
vt -18.29543 46.45917
vt -21.07465 46.45917
vt -36.03337 -8.851612
vt -27.8592 5.512135
vt -3.336711 -8.851612
vt -11.51088 5.512135
vt 36.03337 13.55323
vt 3.336711 13.55323
vt 27.8592 27.91698
vt 11.51088 27.91698
vt 3.336711 -8.851612
vt 11.51088 5.512135
vt 36.03337 -8.851612
vt 27.8592 5.512135
vt -3.336711 13.55323
vt -36.03337 13.55323
vt -11.51088 27.91698
vt -27.8592 27.91698

usemtl wall
usemap wall

f 2/2/1 1/1/1 3/3/1
f 3/3/1 4/4/1 2/2/1
f 6/6/2 5/5/2 7/7/2
f 7/7/2 8/8/2 6/6/2
f 10/10/3 9/9/3 11/11/3
f 10/10/3 11/11/3 7/12/3
f 12/13/3 10/10/3 7/12/3
f 12/13/3 7/12/3 5/14/3
f 13/15/3 12/13/3 5/14/3
f 5/14/3 14/16/3 13/15/3
f 4/18/4 8/17/4 7/19/4
f 7/19/4 2/20/4 4/18/4
f 2/12/5 7/14/5 11/21/5
f 11/21/5 15/13/5 2/12/5
f 11/21/5 16/15/5 15/13/5
f 2/12/5 15/13/5 17/10/5
f 17/10/5 18/11/5 2/12/5
f 17/10/5 19/9/5 18/11/5
f 6/23/6 3/22/6 1/24/6
f 1/24/6 5/5/6 6/23/6
f 10/26/7 12/25/7 20/27/7
f 20/27/7 21/28/7 10/26/7
f 15/30/7 22/29/7 23/31/7
f 23/31/7 17/32/7 15/30/7
f 25/34/7 24/33/7 26/35/7
f 26/35/7 27/36/7 25/34/7
f 28/38/7 13/37/7 14/39/7
f 14/39/7 29/40/7 28/38/7
f 29/40/7 30/41/7 28/38/7
f 13/37/7 28/38/7 31/27/7
f 11/42/7 9/26/7 32/28/7
f 32/28/7 33/43/7 11/42/7
f 33/43/7 16/30/7 11/42/7
f 33/43/7 34/29/7 16/30/7
f 36/44/7 35/34/7 37/36/7
f 36/44/7 37/36/7 18/45/7
f 36/44/7 18/45/7 19/32/7
f 19/32/7 38/31/7 36/44/7
f 25/47/8 27/46/8 37/48/8
f 37/48/8 35/49/8 25/47/8
f 20/51/5 12/50/5 13/52/5
f 13/52/5 31/53/5 20/51/5
f 34/49/9 22/47/9 15/46/9
f 15/46/9 16/48/9 34/49/9
f 29/55/9 39/54/9 40/56/9
f 40/56/9 30/57/9 29/55/9
f 40/41/7 39/40/7 41/58/7
f 41/58/7 42/59/7 40/41/7
f 10/50/8 21/56/8 32/57/8
f 32/57/8 9/21/8 10/50/8
f 23/61/3 38/60/3 19/11/3
f 19/11/3 17/62/3 23/61/3
f 6/64/10 8/63/10 4/65/10
f 4/65/10 3/66/10 6/64/10
f 5/14/8 1/67/8 43/48/8
f 43/48/8 41/68/8 5/14/8
f 43/48/8 44/69/8 41/68/8
f 5/14/8 41/68/8 39/70/8
f 39/70/8 14/71/8 5/14/8
f 39/70/8 29/72/8 14/71/8
f 45/59/7 44/58/7 43/73/7
f 43/73/7 46/74/7 45/59/7
f 43/73/7 47/33/7 46/74/7
f 43/73/7 48/35/7 47/33/7
f 26/62/5 24/61/5 47/60/5
f 47/60/5 48/11/5 26/62/5
f 41/50/3 44/21/3 45/53/3
f 45/53/3 42/51/3 41/50/3
f 43/21/9 1/14/9 2/67/9
f 2/67/9 26/70/9 43/21/9
f 2/67/9 27/68/9 26/70/9
f 2/67/9 37/69/9 27/68/9
f 2/67/9 18/48/9 37/69/9
f 43/21/9 26/70/9 48/72/9

usemtl roof
usemap roof

f 34/15/5 33/53/5 49/75/5
f 49/75/5 50/76/5 34/15/5
f 34/15/5 50/76/5 36/60/5
f 34/15/5 36/60/5 38/9/5
f 34/15/5 38/9/5 23/10/5
f 23/10/5 22/13/5 34/15/5
f 28/53/3 51/75/3 49/76/3
f 49/76/3 31/15/3 28/53/3
f 49/76/3 20/13/3 31/15/3
f 49/76/3 32/9/3 20/13/3
f 49/76/3 33/60/3 32/9/3
f 20/13/3 32/9/3 21/10/3
f 53/78/7 52/77/7 54/79/7
f 54/79/7 55/80/7 53/78/7
f 45/69/8 46/49/8 56/81/8
f 56/81/8 30/72/8 45/69/8
f 56/81/8 28/57/8 30/72/8
f 56/81/8 51/82/8 28/57/8
f 45/69/8 30/72/8 40/70/8
f 40/70/8 42/68/8 45/69/8
f 47/72/9 24/70/9 25/68/9
f 47/72/9 25/68/9 35/69/9
f 47/72/9 35/69/9 50/81/9
f 47/72/9 50/81/9 56/82/9
f 56/82/9 46/57/9 47/72/9
f 35/69/9 36/49/9 50/81/9
f 58/84/11 57/83/11 54/85/11
f 54/85/11 52/86/11 58/84/11
f 54/88/12 57/87/12 59/89/12
f 59/89/12 55/90/12 54/88/12
f 60/92/13 58/91/13 52/93/13
f 52/93/13 53/94/13 60/92/13
f 59/96/14 60/95/14 53/97/14
f 53/97/14 55/98/14 59/96/14
f 59/100/15 50/99/15 49/101/15
f 49/101/15 60/102/15 59/100/15
f 51/104/16 56/103/16 57/105/16
f 57/105/16 58/106/16 51/104/16
f 57/108/17 56/107/17 50/109/17
f 50/109/17 59/110/17 57/108/17
f 49/112/18 51/111/18 58/113/18
f 58/113/18 60/114/18 49/112/18
