# Exported using Kenney Suite 1.1 

mtllib towerSquareBaseBorder.mtl 

g towerSquareBaseBorder

v 0 2.8 0 
v 0 0 0 
v 0 2.8 10 
v 0 0 10 
v -10 0 0 
v -10 2.8 0 
v -10 0 10 
v -10 2.8 10 
v -0.35 4.5 0.35 
v -0.35 4.5 9.65 
v -9.65 4.5 0.35 
v -9.65 4.5 9.65 
v -1.025306 4.5 1.025306 
v -8.974694 4.5 1.025306 
v -8.974694 4.5 8.974694 
v -1.025306 4.5 8.974694 

vn 1 0 0
vn -1 0 0
vn 0.9794571 0.2016529 0
vn -0.9794571 0.2016529 0
vn 0 -1 0
vn 0 0 1
vn 0 0 -1
vn 0 0.2016529 -0.9794571
vn 0 0.2016529 0.9794571
vn 0 1 0

vt 0 11.02362
vt 0 0
vt -39.37008 11.02362
vt -39.37008 0
vt 39.37008 0
vt 39.37008 11.02362
vt -9.62965E-35 10.79716
vt -39.37008 10.79716
vt -1.377953 17.63045
vt -37.99213 17.63045
vt 6.261987E-17 2.858073
vt 1.377953 9.691362
vt 39.37008 2.858073
vt 37.99213 9.691362
vt 0 39.37008
vt -39.37008 39.37008
vt 39.37008 10.79716
vt 0 10.79716
vt 37.99213 17.63045
vt 1.377953 17.63045
vt 3.984901E-17 2.858073
vt -39.37008 2.858073
vt -1.377953 9.691362
vt -37.99213 9.691362
vt 1.377953 37.99213
vt 4.036636 4.036636
vt 1.377953 1.377953
vt 37.99213 1.377953
vt 35.33344 4.036636
vt 35.33344 35.33344
vt 4.036636 35.33344
vt 37.99213 37.99213

usemtl wall
usemap wall

f 2/2/1 1/1/1 3/3/1
f 3/3/1 4/4/1 2/2/1
f 6/1/2 5/2/2 7/5/2
f 7/5/2 8/6/2 6/1/2
f 3/8/3 1/7/3 9/9/3
f 9/9/3 10/10/3 3/8/3
f 11/12/4 6/11/4 8/13/4
f 8/13/4 12/14/4 11/12/4
f 2/2/5 4/15/5 7/16/5
f 7/16/5 5/4/5 2/2/5
f 7/4/6 4/2/6 3/1/6
f 3/1/6 8/3/6 7/4/6
f 2/2/7 5/5/7 6/6/7
f 6/6/7 1/1/7 2/2/7
f 1/18/8 6/17/8 11/19/8
f 11/19/8 9/20/8 1/18/8
f 8/22/9 3/21/9 10/23/9
f 10/23/9 12/24/9 8/22/9
f 13/26/10 10/25/10 9/27/10
f 9/27/10 11/28/10 13/26/10
f 11/28/10 14/29/10 13/26/10
f 11/28/10 15/30/10 14/29/10
f 10/25/10 13/26/10 16/31/10
f 16/31/10 12/32/10 10/25/10
f 16/31/10 15/30/10 12/32/10
f 15/30/10 11/28/10 12/32/10

usemtl wallDark
usemap wallDark

f 16/31/10 13/26/10 14/29/10
f 14/29/10 15/30/10 16/31/10
