# Exported using Kenney Suite 1.1 

mtllib towerSquareMidOpenHalf.mtl 

g towerSquareMidOpenHalf

v -9.65 5.414336E-15 7.7875 
v -9.65 5.05 7.7875 
v -9.65 5.414336E-15 8.95 
v -9.65 5.05 8.95 
v -0.35 5.414336E-15 8.95 
v -1.5125 5.414336E-15 8.95 
v -0.35 5.05 8.95 
v -1.5125 5.05 8.95 
v -9.65 5.414336E-15 -0.35 
v -8.4875 5.414336E-15 -0.35 
v -9.65 5.05 -0.35 
v -8.4875 5.05 -0.35 
v -1.5125 4.735034E-15 0.8125 
v -1.5125 5.05 0.8125 
v -0.35 5.429845E-15 0.8125 
v -0.35 5.05 0.8125 
v -1.5125 4.735034E-15 7.7875 
v -1.5125 5.05 7.7875 
v -0.35 5.414336E-15 7.7875 
v -0.35 5.05 7.7875 
v -1.5125 5.414336E-15 -0.35 
v -1.5125 5.05 -0.35 
v -8.4875 4.735034E-15 0.8125 
v -9.65 5.414336E-15 0.8125 
v -8.4875 5.05 0.8125 
v -9.65 5.05 0.8125 
v -8.4875 5.05 7.7875 
v -8.4875 4.735034E-15 7.7875 
v -8.4875 5.05 8.95 
v -8.4875 5.414336E-15 8.95 
v -0.35 5.414336E-15 -0.35 
v -0.35 5.05 -0.35 

vn -1 0 0
vn 1 0 0
vn 0 0 1
vn 0 0 -1
vn 0 -1 0
vn 0 1 0

vt 30.65945 2.131628E-14
vt 30.65945 19.88189
vt 35.23622 2.131628E-14
vt 35.23622 19.88189
vt -1.377953 2.131628E-14
vt -5.954724 2.131628E-14
vt -1.377953 19.88189
vt -5.954724 19.88189
vt 37.99213 2.131628E-14
vt 33.41536 2.131628E-14
vt 37.99213 19.88189
vt 33.41536 19.88189
vt -5.954724 1.864187E-14
vt -1.377953 2.137734E-14
vt 30.65945 1.864187E-14
vt 5.954724 3.177612E-14
vt 1.377953 3.445053E-14
vt 5.954724 19.88189
vt 1.377953 19.88189
vt 3.198819 1.864187E-14
vt 3.198819 19.88189
vt -33.41536 1.864187E-14
vt -37.99213 2.131628E-14
vt -33.41536 19.88189
vt -37.99213 19.88189
vt -30.65945 19.88189
vt -30.65945 1.864187E-14
vt -35.23622 19.88189
vt -35.23622 2.131628E-14
vt -1.377953 3.198819
vt -1.377953 -1.377953
vt -5.954724 3.198819
vt -5.954724 -1.377953
vt -33.41536 3.198819
vt -33.41536 -1.377953
vt -37.99213 3.198819
vt -37.99213 -1.377953
vt -33.41536 35.23622
vt -33.41536 30.65945
vt -37.99213 35.23622
vt -37.99213 30.65945
vt -1.377953 35.23622
vt -1.377953 30.65945
vt -5.954724 35.23622
vt -5.954724 30.65945
vt 1.377953 2.131628E-14
vt -3.198819 19.88189
vt -3.198819 1.864187E-14
vt 33.41536 1.864187E-14
vt 1.377953 30.65945
vt 1.377953 35.23622
vt 5.954724 30.65945
vt 5.954724 35.23622
vt -3.198819 2.137734E-14
vt 1.377953 -1.377953
vt 1.377953 3.198819
vt 5.954724 -1.377953
vt 5.954724 3.198819
vt 33.41536 -1.377953
vt 33.41536 3.198819
vt 37.99213 -1.377953
vt 37.99213 3.198819
vt 33.41536 30.65945
vt 33.41536 35.23622
vt 37.99213 30.65945
vt 37.99213 35.23622
vt -33.41536 2.131628E-14
vt 3.198819 2.131628E-14
vt 5.954724 2.131628E-14
vt -30.65945 2.131628E-14

usemtl wall
usemap wall

f 2/2/1 1/1/1 3/3/1
f 3/3/1 4/4/1 2/2/1
f 2/2/2 3/3/2 1/1/2
f 3/3/2 2/2/2 4/4/2
f 6/6/3 5/5/3 7/7/3
f 7/7/3 8/8/3 6/6/3
f 6/6/4 7/7/4 5/5/4
f 7/7/4 6/6/4 8/8/4
f 10/10/4 9/9/4 11/11/4
f 11/11/4 12/12/4 10/10/4
f 10/10/3 11/11/3 9/9/3
f 11/11/3 10/10/3 12/12/3
f 14/8/3 13/13/3 15/14/3
f 15/14/3 16/7/3 14/8/3
f 14/8/4 15/14/4 13/13/4
f 15/14/4 14/8/4 16/7/4
f 18/2/1 17/15/1 6/3/1
f 6/3/1 8/4/1 18/2/1
f 18/2/2 6/3/2 17/15/2
f 6/3/2 18/2/2 8/4/2
f 19/17/4 17/16/4 18/18/4
f 18/18/4 20/19/4 19/17/4
f 19/17/3 18/18/3 17/16/3
f 18/18/3 19/17/3 20/19/3
f 22/7/1 21/5/1 13/20/1
f 13/20/1 14/21/1 22/7/1
f 22/7/2 13/20/2 21/5/2
f 13/20/2 22/7/2 14/21/2
f 24/23/3 23/22/3 25/24/3
f 25/24/3 26/25/3 24/23/3
f 24/23/4 25/24/4 23/22/4
f 25/24/4 24/23/4 26/25/4
f 28/27/2 27/26/2 29/28/2
f 29/28/2 30/29/2 28/27/2
f 28/27/1 29/28/1 27/26/1
f 29/28/1 28/27/1 30/29/1
f 31/31/5 15/30/5 13/32/5
f 13/32/5 21/33/5 31/31/5
f 31/31/6 13/32/6 15/30/6
f 13/32/6 31/31/6 21/33/6
f 10/35/5 23/34/5 24/36/5
f 24/36/5 9/37/5 10/35/5
f 10/35/6 24/36/6 23/34/6
f 24/36/6 10/35/6 9/37/6
f 28/39/5 30/38/5 3/40/5
f 3/40/5 1/41/5 28/39/5
f 28/39/6 3/40/6 30/38/6
f 3/40/6 28/39/6 1/41/6
f 19/43/5 5/42/5 6/44/5
f 6/44/5 17/45/5 19/43/5
f 19/43/6 6/44/6 5/42/6
f 6/44/6 19/43/6 17/45/6
f 10/46/2 12/19/2 25/47/2
f 25/47/2 23/48/2 10/46/2
f 10/46/1 25/47/1 12/19/1
f 25/47/1 10/46/1 23/48/1
f 27/12/4 28/49/4 1/9/4
f 1/9/4 2/11/4 27/12/4
f 27/12/3 1/9/3 28/49/3
f 1/9/3 27/12/3 2/11/3
f 7/51/6 20/50/6 18/52/6
f 18/52/6 8/53/6 7/51/6
f 31/46/2 32/19/2 16/47/2
f 16/47/2 15/54/2 31/46/2
f 31/46/1 16/47/1 32/19/1
f 16/47/1 31/46/1 15/54/1
f 16/56/6 32/55/6 22/57/6
f 22/57/6 14/58/6 16/56/6
f 16/56/5 22/57/5 32/55/5
f 22/57/5 16/56/5 14/58/5
f 25/60/6 12/59/6 11/61/6
f 11/61/6 26/62/6 25/60/6
f 25/60/5 11/61/5 12/59/5
f 11/61/5 25/60/5 26/62/5
f 29/64/6 27/63/6 2/65/6
f 2/65/6 4/66/6 29/64/6
f 29/64/5 2/65/5 27/63/5
f 2/65/5 29/64/5 4/66/5
f 3/23/3 30/67/3 29/24/3
f 29/24/3 4/25/3 3/23/3
f 3/23/4 29/24/4 30/67/4
f 29/24/4 3/23/4 4/25/4
f 11/7/1 9/5/1 24/68/1
f 24/68/1 26/21/1 11/7/1
f 11/7/2 24/68/2 9/5/2
f 24/68/2 11/7/2 26/21/2
f 31/46/4 21/69/4 22/18/4
f 22/18/4 32/19/4 31/46/4
f 31/46/3 22/18/3 21/69/3
f 22/18/3 31/46/3 32/19/3
f 5/29/2 19/70/2 20/26/2
f 20/26/2 7/28/2 5/29/2
f 5/29/1 20/26/1 19/70/1
f 20/26/1 5/29/1 7/28/1
g plank 16

v -1.5125 0.2 -0.35 
v -1.5125 5.414336E-15 -0.35 
v -1.5125 0.2 0.6358237 
v -1.5125 5.414336E-15 0.6358237 
v -8.4875 5.414336E-15 -0.35 
v -8.4875 0.2 -0.35 
v -8.4875 5.414336E-15 0.6358237 
v -8.4875 0.2 0.6358237 


vt -0.4183071 0.7874016
vt -0.4183071 0
vt -4.502953 0.7874016
vt -4.502953 0
vt 0.4183071 0
vt 0.4183071 0.7874016
vt 4.502953 0
vt 4.502953 0.7874016
vt 0 0
vt -19.68504 0
vt 0 0.7874016
vt -19.68504 0.7874016
vt 0 0.4183071
vt 0 4.502953
vt 19.68504 0.4183071
vt 19.68504 4.502953
vt 19.68504 0
vt 19.68504 0.7874016
vt -19.68504 4.502953
vt -19.68504 0.4183071

usemtl wood
usemap wood

f 34/72/2 33/71/2 35/73/2
f 35/73/2 36/74/2 34/72/2
f 38/76/1 37/75/1 39/77/1
f 39/77/1 40/78/1 38/76/1
f 39/80/3 36/79/3 35/81/3
f 35/81/3 40/82/3 39/80/3
f 35/84/6 33/83/6 38/85/6
f 38/85/6 40/86/6 35/84/6
f 34/79/4 37/87/4 38/88/4
f 38/88/4 33/81/4 34/79/4
f 34/83/5 36/84/5 39/89/5
f 39/89/5 37/90/5 34/83/5
g plank 17

v -0.35 0.2 3.213218 
v -0.35 5.414336E-15 3.213218 
v -0.35 0.2 4.199042 
v -0.35 5.414336E-15 4.199042 
v -9.650001 5.414336E-15 3.213218 
v -9.650001 0.2 3.213218 
v -9.650001 5.414336E-15 4.199042 
v -9.650001 0.2 4.199042 



usemtl wood
usemap wood

f 42/72/2 41/71/2 43/73/2
f 43/73/2 44/74/2 42/72/2
f 46/76/1 45/75/1 47/77/1
f 47/77/1 48/78/1 46/76/1
f 47/80/3 44/79/3 43/81/3
f 43/81/3 48/82/3 47/80/3
f 43/84/6 41/83/6 46/85/6
f 46/85/6 48/86/6 43/84/6
f 42/79/4 45/87/4 46/88/4
f 46/88/4 41/81/4 42/79/4
f 42/83/5 44/84/5 47/89/5
f 47/89/5 45/90/5 42/83/5
g plank 18

v -0.35 0.2 2.025479 
v -0.35 5.414336E-15 2.025479 
v -0.35 0.2 3.011303 
v -0.35 5.414336E-15 3.011303 
v -9.650001 5.414336E-15 2.025479 
v -9.650001 0.2 2.025479 
v -9.650001 5.414336E-15 3.011303 
v -9.650001 0.2 3.011303 



usemtl wood
usemap wood

f 50/72/2 49/71/2 51/73/2
f 51/73/2 52/74/2 50/72/2
f 54/76/1 53/75/1 55/77/1
f 55/77/1 56/78/1 54/76/1
f 55/80/3 52/79/3 51/81/3
f 51/81/3 56/82/3 55/80/3
f 51/84/6 49/83/6 54/85/6
f 54/85/6 56/86/6 51/84/6
f 50/79/4 53/87/4 54/88/4
f 54/88/4 49/81/4 50/79/4
f 50/83/5 52/84/5 55/89/5
f 55/89/5 53/90/5 50/83/5
g plank 19

v -1.5125 0.2 7.964176 
v -1.5125 5.414336E-15 7.964176 
v -1.5125 0.2 8.95 
v -8.4875 5.414336E-15 7.964176 
v -8.4875 0.2 7.964176 
v -8.4875 0.2 8.95 



usemtl wood
usemap wood

f 58/72/2 57/71/2 59/73/2
f 59/73/2 6/74/2 58/72/2
f 61/76/1 60/75/1 30/77/1
f 30/77/1 62/78/1 61/76/1
f 30/80/3 6/79/3 59/81/3
f 59/81/3 62/82/3 30/80/3
f 59/84/6 57/83/6 61/85/6
f 61/85/6 62/86/6 59/84/6
f 58/79/4 60/87/4 61/88/4
f 61/88/4 57/81/4 58/79/4
f 58/83/5 6/84/5 30/89/5
f 30/89/5 60/90/5 58/83/5
g plank 20

v -0.35 0.2 6.776437 
v -0.35 5.414336E-15 6.776437 
v -0.35 0.2 7.76226 
v -0.35 5.414336E-15 7.76226 
v -9.650001 5.414336E-15 6.776437 
v -9.650001 0.2 6.776437 
v -9.650001 5.414336E-15 7.76226 
v -9.650001 0.2 7.76226 



usemtl wood
usemap wood

f 64/72/2 63/71/2 65/73/2
f 65/73/2 66/74/2 64/72/2
f 68/76/1 67/75/1 69/77/1
f 69/77/1 70/78/1 68/76/1
f 69/80/3 66/79/3 65/81/3
f 65/81/3 70/82/3 69/80/3
f 65/84/6 63/83/6 68/85/6
f 68/85/6 70/86/6 65/84/6
f 64/79/4 67/87/4 68/88/4
f 68/88/4 63/81/4 64/79/4
f 64/83/5 66/84/5 69/89/5
f 69/89/5 67/90/5 64/83/5
g plank 21

v -0.35 0.2 4.400958 
v -0.35 5.414336E-15 4.400958 
v -0.35 0.2 5.386782 
v -0.35 5.414336E-15 5.386782 
v -9.650001 5.414336E-15 4.400958 
v -9.650001 0.2 4.400958 
v -9.650001 5.414336E-15 5.386782 
v -9.650001 0.2 5.386782 



usemtl wood
usemap wood

f 72/72/2 71/71/2 73/73/2
f 73/73/2 74/74/2 72/72/2
f 76/76/1 75/75/1 77/77/1
f 77/77/1 78/78/1 76/76/1
f 77/80/3 74/79/3 73/81/3
f 73/81/3 78/82/3 77/80/3
f 73/84/6 71/83/6 76/85/6
f 76/85/6 78/86/6 73/84/6
f 72/79/4 75/87/4 76/88/4
f 76/88/4 71/81/4 72/79/4
f 72/83/5 74/84/5 77/89/5
f 77/89/5 75/90/5 72/83/5
g plank 22

v -0.35 0.2 5.588697 
v -0.35 5.414336E-15 5.588697 
v -0.35 0.2 6.574521 
v -0.35 5.414336E-15 6.574521 
v -9.650001 5.414336E-15 5.588697 
v -9.650001 0.2 5.588697 
v -9.650001 5.414336E-15 6.574521 
v -9.650001 0.2 6.574521 



usemtl wood
usemap wood

f 80/72/2 79/71/2 81/73/2
f 81/73/2 82/74/2 80/72/2
f 84/76/1 83/75/1 85/77/1
f 85/77/1 86/78/1 84/76/1
f 85/80/3 82/79/3 81/81/3
f 81/81/3 86/82/3 85/80/3
f 81/84/6 79/83/6 84/85/6
f 84/85/6 86/86/6 81/84/6
f 80/79/4 83/87/4 84/88/4
f 84/88/4 79/81/4 80/79/4
f 80/83/5 82/84/5 85/89/5
f 85/89/5 83/90/5 80/83/5
g plank 23

v -0.35 0.2 0.8377395 
v -0.35 5.414336E-15 0.8377395 
v -0.35 0.2 1.823563 
v -0.35 5.414336E-15 1.823563 
v -9.650001 5.414336E-15 0.8377395 
v -9.650001 0.2 0.8377395 
v -9.650001 5.414336E-15 1.823563 
v -9.650001 0.2 1.823563 



usemtl wood
usemap wood

f 88/72/2 87/71/2 89/73/2
f 89/73/2 90/74/2 88/72/2
f 92/76/1 91/75/1 93/77/1
f 93/77/1 94/78/1 92/76/1
f 93/80/3 90/79/3 89/81/3
f 89/81/3 94/82/3 93/80/3
f 89/84/6 87/83/6 92/85/6
f 92/85/6 94/86/6 89/84/6
f 88/79/4 91/87/4 92/88/4
f 92/88/4 87/81/4 88/79/4
f 88/83/5 90/84/5 93/89/5
f 93/89/5 91/90/5 88/83/5
g rail 9

v -1.5125 2.281384 8.55 
v -1.5125 2.281384 8.950001 
v -8.4875 2.281384 8.55 
v -8.4875 2.281384 8.950001 
v -8.4875 1.981384 8.55 
v -8.4875 1.981384 8.950001 
v -1.5125 1.981384 8.55 
v -1.5125 1.981384 8.950001 


vt 0 1.574803
vt 24.01575 0
vt 24.01575 1.574803
vt 0 1.181102
vt 1.574803 0
vt 1.574803 1.181102
vt 24.01575 1.181102
vt -24.01575 0
vt -24.01575 1.181102
vt -24.01575 1.574803
vt -1.574803 1.181102
vt -1.574803 0

usemtl wood
usemap wood

f 96/91/6 95/79/6 97/92/6
f 97/92/6 98/93/6 96/91/6
f 97/94/1 99/79/1 100/95/1
f 100/95/1 98/96/1 97/94/1
f 101/79/4 99/92/4 97/97/4
f 97/97/4 95/94/4 101/79/4
f 100/98/3 102/79/3 96/94/3
f 96/94/3 98/99/3 100/98/3
f 101/79/5 102/91/5 100/100/5
f 100/100/5 99/98/5 101/79/5
f 101/79/2 95/94/2 96/101/2
f 96/101/2 102/102/2 101/79/2
g rail 10

v -1.5125 2.281384 -0.35 
v -1.5125 2.281384 0.04999999 
v -8.4875 2.281384 -0.35 
v -8.4875 2.281384 0.04999999 
v -8.4875 1.981384 -0.35 
v -8.4875 1.981384 0.04999999 
v -1.5125 1.981384 -0.35 
v -1.5125 1.981384 0.04999999 



usemtl wood
usemap wood

f 104/91/6 103/79/6 105/92/6
f 105/92/6 106/93/6 104/91/6
f 105/94/1 107/79/1 108/95/1
f 108/95/1 106/96/1 105/94/1
f 109/79/4 107/92/4 105/97/4
f 105/97/4 103/94/4 109/79/4
f 108/98/3 110/79/3 104/94/3
f 104/94/3 106/99/3 108/98/3
f 109/79/5 110/91/5 108/100/5
f 108/100/5 107/98/5 109/79/5
f 109/79/2 103/94/2 104/101/2
f 104/101/2 110/102/2 109/79/2
g rail 11

v -0.35 2.281384 7.7875 
v -0.75 2.281384 7.7875 
v -0.3499994 2.281384 0.8124989 
v -0.7499994 2.281384 0.8124989 
v -0.3499994 1.981384 0.8124989 
v -0.7499994 1.981384 0.8124989 
v -0.35 1.981384 7.7875 
v -0.75 1.981384 7.7875 

vn 1.192093E-07 0 -1
vn 1 0 1.192093E-07
vn -1 0 -1.192093E-07
vn 0 -1 0
vn -1.192093E-07 0 1


usemtl wood
usemap wood

f 112/91/6 111/79/6 113/92/6
f 113/92/6 114/93/6 112/91/6
f 113/94/7 115/79/7 116/95/7
f 116/95/7 114/96/7 113/94/7
f 117/79/8 115/92/8 113/97/8
f 113/97/8 111/94/8 117/79/8
f 116/98/9 118/79/9 112/94/9
f 112/94/9 114/99/9 116/98/9
f 117/79/10 118/91/10 116/100/10
f 116/100/10 115/98/10 117/79/10
f 117/79/11 111/94/11 112/101/11
f 112/101/11 118/102/11 117/79/11
g rail 12

v -9.25 2.281384 7.7875 
v -9.650001 2.281384 7.7875 
v -9.25 2.281384 0.8124989 
v -9.65 2.281384 0.8124989 
v -9.25 1.981384 0.8124989 
v -9.65 1.981384 0.8124989 
v -9.25 1.981384 7.7875 
v -9.650001 1.981384 7.7875 



usemtl wood
usemap wood

f 120/91/6 119/79/6 121/92/6
f 121/92/6 122/93/6 120/91/6
f 121/94/7 123/79/7 124/95/7
f 124/95/7 122/96/7 121/94/7
f 125/79/8 123/92/8 121/97/8
f 121/97/8 119/94/8 125/79/8
f 124/98/9 126/79/9 120/94/9
f 120/94/9 122/99/9 124/98/9
f 125/79/10 126/91/10 124/100/10
f 124/100/10 123/98/10 125/79/10
f 125/79/11 119/94/11 120/101/11
f 120/101/11 126/102/11 125/79/11
