# Exported using Kenney Suite 1.1 

mtllib towerSquareTopRoof.mtl 

g towerSquareTopRoof

v -10 1 0 
v 0 1 0 
v -10 3 0 
v -7.5 2.55 0 
v -7.5 3 0 
v -2.5 2.55 0 
v -7.219114E-15 3 0 
v -2.5 3 0 
v -10 1 10 
v -9.65 0 0.35 
v -9.65 0 9.65 
v -0.35 0 0.35 
v 0 1 10 
v -0.35 0 9.65 
v 0 3 7.5 
v 0 2.55 7.5 
v 0 3 10 
v 0 2.55 2.5 
v -7.219114E-15 3 2.5 
v -10 2.55 2.5 
v -10 2.55 7.5 
v -10 3 7.5 
v -10 3 10 
v -10 3 2.5 
v -2.5 2.55 10 
v -2.5 3 10 
v -7.5 2.55 10 
v -7.5 3 10 
v -0.8475247 2.55 2.5 
v -0.8475247 2.55 7.5 
v -2.5 2.55 9.152475 
v -7.5 2.55 9.152475 
v -9.152475 2.55 2.5 
v -9.152475 2.55 7.5 
v -0.8475247 3 0.8475247 
v -2.5 3 0.8475247 
v -0.8475247 3 2.5 
v -0.8475247 3 7.5 
v -0.8475247 3 9.152475 
v -2.5 3 9.152475 
v -9.152475 3 7.5 
v -9.152475 3 9.152475 
v -7.5 3 9.152475 
v -7.5 3 0.8475247 
v -9.152475 3 0.8475247 
v -9.152475 3 2.5 
v -7.5 2.55 0.8475247 
v -2.5 2.55 0.8475247 
v -9.152475 3.6 9.152475 
v -9.152475 3.6 0.8475247 
v -0.8475247 3.6 9.152475 
v -0.8475247 3.6 0.8475247 
v -7.076238 6.3 2.923763 
v -2.923763 6.3 2.923763 
v -2.923763 6.3 7.076238 
v -7.076238 6.3 7.076238 
v -4.647039 10 4.647039 
v -4.647039 10 5.35296 
v -5.35296 10 4.647039 
v -5.35296 10 5.35296 

vn 0 0 -1
vn -0.9438583 -0.3303504 0
vn 0.9438583 -0.3303504 0
vn 1 0 0
vn -1 0 0
vn 0 -0.3303504 0.9438583
vn 0 0 1
vn 0 -0.3303504 -0.9438583
vn 0 1 0
vn 0 -1 0
vn 0 0.6095844 -0.7927213
vn 0.7927213 0.6095844 0
vn -0.7927213 0.6095844 0
vn 0 0.6095844 0.7927213
vn 0 0.4222034 0.9065011
vn -0.9065011 0.4222034 0
vn 0.9065011 0.4222034 0
vn 0 0.4222034 -0.9065011

vt 39.37008 3.937008
vt 0 3.937008
vt 39.37008 11.81102
vt 29.52756 10.03937
vt 29.52756 11.81102
vt 9.84252 10.03937
vt 2.842171E-14 11.81102
vt 9.84252 11.81102
vt 3.871046E-17 16.7219
vt 39.37008 16.7219
vt 1.377953 12.55071
vt 37.99213 12.55071
vt 0 3.715978
vt -1.377953 -0.4552073
vt -39.37008 3.715978
vt -37.99213 -0.4552073
vt -29.52756 11.81102
vt -29.52756 10.03937
vt -39.37008 11.81102
vt -39.37008 3.937008
vt -9.84252 10.03937
vt -9.84252 11.81102
vt 1.231077E-29 11.81102
vt 0 11.81102
vt -1.377953 12.55071
vt -37.99213 12.55071
vt -6.774331E-17 16.7219
vt -39.37008 16.7219
vt 37.99213 -0.4552073
vt 1.377953 -0.4552073
vt 39.37008 3.715978
vt 0 9.84252
vt 0 29.52756
vt 3.336711 9.84252
vt 3.336711 29.52756
vt 9.84252 36.03337
vt 9.84252 39.37008
vt 29.52756 36.03337
vt 29.52756 39.37008
vt 36.03337 9.84252
vt 36.03337 29.52756
vt 39.37008 9.84252
vt 39.37008 29.52756
vt 2.842171E-14 9.84252
vt 3.336711 3.336711
vt 2.842171E-14 0
vt 9.84252 0
vt 9.84252 3.336711
vt 0 39.37008
vt 3.336711 36.03337
vt 36.03337 36.03337
vt 39.37008 39.37008
vt 29.52756 0
vt 29.52756 3.336711
vt 39.37008 0
vt 36.03337 3.336711
vt -36.03337 10.03937
vt -39.37008 10.03937
vt -36.03337 11.81102
vt 39.37008 10.03937
vt 36.03337 10.03937
vt 36.03337 11.81102
vt 0 10.03937
vt -3.336711 11.81102
vt -3.336711 10.03937
vt -2.842171E-14 11.81102
vt 2.058046E-30 10.03937
vt 2.058046E-30 11.81102
vt 3.336711 10.03937
vt 3.336711 11.81102
vt -1.377953 37.99213
vt -1.377953 1.377953
vt -37.99213 37.99213
vt -37.99213 1.377953
vt 36.03337 14.17323
vt 3.336711 14.17323
vt -3.336711 14.17323
vt -36.03337 14.17323
vt 36.03337 13.26943
vt 3.336711 13.26943
vt 27.8592 26.67883
vt 11.51088 26.67883
vt -3.336711 13.26943
vt -36.03337 13.26943
vt -11.51088 26.67883
vt -27.8592 26.67883
vt 3.336711 -10.72996
vt 11.51088 2.67945
vt 36.03337 -10.72996
vt 27.8592 2.67945
vt -36.03337 -10.72996
vt -27.8592 2.67945
vt -3.336711 -10.72996
vt -11.51088 2.67945
vt 18.29543 18.29543
vt 18.29543 21.07465
vt 21.07465 18.29543
vt 21.07465 21.07465
vt -11.51088 10.72183
vt -27.8592 10.72183
vt -18.29543 26.79123
vt -21.07465 26.79123
vt 11.51088 10.72183
vt 18.29543 26.79123
vt 27.8592 10.72183
vt 21.07465 26.79123
vt -11.51088 27.34401
vt -27.8592 27.34401
vt -18.29543 43.41341
vt -21.07465 43.41341
vt 27.8592 27.34401
vt 11.51088 27.34401
vt 21.07465 43.41341
vt 18.29543 43.41341

usemtl wall
usemap wall

f 2/2/1 1/1/1 3/3/1
f 3/3/1 4/4/1 2/2/1
f 3/3/1 5/5/1 4/4/1
f 2/2/1 4/4/1 6/6/1
f 6/6/1 7/7/1 2/2/1
f 6/6/1 8/8/1 7/7/1
f 9/10/2 1/9/2 10/11/2
f 10/11/2 11/12/2 9/10/2
f 12/14/3 2/13/3 13/15/3
f 13/15/3 14/16/3 12/14/3
f 16/18/4 15/17/4 17/19/4
f 16/18/4 17/19/4 13/20/4
f 18/21/4 16/18/4 13/20/4
f 18/21/4 13/20/4 2/2/4
f 19/22/4 18/21/4 2/2/4
f 2/2/4 7/23/4 19/22/4
f 3/24/5 1/2/5 9/1/5
f 9/1/5 20/6/5 3/24/5
f 9/1/5 21/4/5 20/6/5
f 9/1/5 22/5/5 21/4/5
f 9/1/5 23/3/5 22/5/5
f 3/24/5 20/6/5 24/8/5
f 11/26/6 14/25/6 13/27/6
f 13/27/6 9/28/6 11/26/6
f 9/20/7 13/2/7 17/24/7
f 17/24/7 25/21/7 9/20/7
f 17/24/7 26/22/7 25/21/7
f 9/20/7 25/21/7 27/18/7
f 27/18/7 23/19/7 9/20/7
f 27/18/7 28/17/7 23/19/7
f 12/30/8 10/29/8 1/31/8
f 1/31/8 2/13/8 12/30/8
f 16/33/9 18/32/9 29/34/9
f 29/34/9 30/35/9 16/33/9
f 25/37/9 31/36/9 32/38/9
f 32/38/9 27/39/9 25/37/9
f 34/41/9 33/40/9 20/42/9
f 20/42/9 21/43/9 34/41/9
f 35/45/9 19/44/9 7/46/9
f 7/46/9 8/47/9 35/45/9
f 8/47/9 36/48/9 35/45/9
f 19/44/9 35/45/9 37/34/9
f 17/49/9 15/33/9 38/35/9
f 38/35/9 39/50/9 17/49/9
f 39/50/9 26/37/9 17/49/9
f 39/50/9 40/36/9 26/37/9
f 42/51/9 41/41/9 22/43/9
f 42/51/9 22/43/9 23/52/9
f 42/51/9 23/52/9 28/39/9
f 28/39/9 43/38/9 42/51/9
f 44/54/9 5/53/9 3/55/9
f 3/55/9 45/56/9 44/54/9
f 3/55/9 46/40/9 45/56/9
f 3/55/9 24/42/9 46/40/9
f 20/58/7 33/57/7 46/59/7
f 46/59/7 24/19/7 20/58/7
f 34/61/1 21/60/1 22/3/1
f 22/3/1 41/62/1 34/61/1
f 4/63/4 5/24/4 44/64/4
f 44/64/4 47/65/4 4/63/4
f 29/65/7 18/63/7 19/66/7
f 19/66/7 37/64/7 29/65/7
f 40/62/5 31/61/5 25/60/5
f 25/60/5 26/3/5 40/62/5
f 8/68/5 6/67/5 48/69/5
f 48/69/5 36/70/5 8/68/5
f 48/48/9 6/47/9 4/53/9
f 4/53/9 47/54/9 48/48/9
f 16/63/1 30/69/1 38/70/1
f 38/70/1 15/24/1 16/63/1
f 32/57/4 43/59/4 28/19/4
f 28/19/4 27/58/4 32/57/4
f 12/72/10 14/71/10 11/73/10
f 11/73/10 10/74/10 12/72/10

usemtl roof
usemap roof

f 46/8/5 33/6/5 34/4/5
f 46/8/5 34/4/5 41/5/5
f 46/8/5 41/5/5 49/75/5
f 46/8/5 49/75/5 50/76/5
f 50/76/5 45/70/5 46/8/5
f 41/5/5 42/62/5 49/75/5
f 40/22/7 39/64/7 51/77/7
f 51/77/7 49/78/7 40/22/7
f 40/22/7 49/78/7 42/59/7
f 40/22/7 42/59/7 43/17/7
f 40/22/7 43/17/7 32/18/7
f 32/18/7 31/21/7 40/22/7
f 35/64/4 52/77/4 51/78/4
f 51/78/4 37/22/4 35/64/4
f 51/78/4 29/21/4 37/22/4
f 51/78/4 38/17/4 29/21/4
f 51/78/4 39/59/4 38/17/4
f 29/21/4 38/17/4 30/18/4
f 44/5/1 45/62/1 50/75/1
f 50/75/1 36/8/1 44/5/1
f 50/75/1 35/70/1 36/8/1
f 50/75/1 52/76/1 35/70/1
f 44/5/1 36/8/1 48/6/1
f 48/6/1 47/4/1 44/5/1
f 52/80/11 50/79/11 53/81/11
f 53/81/11 54/82/11 52/80/11
f 51/84/12 52/83/12 54/85/12
f 54/85/12 55/86/12 51/84/12
f 53/88/13 50/87/13 49/89/13
f 49/89/13 56/90/13 53/88/13
f 56/92/14 49/91/14 51/93/14
f 51/93/14 55/94/14 56/92/14
f 58/96/9 57/95/9 59/97/9
f 59/97/9 60/98/9 58/96/9
f 56/100/15 55/99/15 58/101/15
f 58/101/15 60/102/15 56/100/15
f 59/104/16 53/103/16 56/105/16
f 56/105/16 60/106/16 59/104/16
f 55/108/17 54/107/17 57/109/17
f 57/109/17 58/110/17 55/108/17
f 54/112/18 53/111/18 59/113/18
f 59/113/18 57/114/18 54/112/18
