# Exported using Kenney Suite 1.1 

mtllib towerTopRoof.mtl 

g towerTopRoof

v 0.6039956 0 5 
v 0.4130441 0 3.549579 
v 0.4130441 0 6.45042 
v -0.1467974 0 7.801998 
v 0 0 5 
v -0.1703709 0 6.294096 
v -1.037377 0 8.962624 
v -0.669873 0 7.5 
v -1.464466 0 8.535534 
v -2.198002 0 9.853203 
v -2.5 0 9.330128 
v -3.549579 0 10.41304 
v -3.705905 0 9.829628 
v -5 0 10.604 
v -5 0 10 
v -6.45042 0 10.41304 
v -6.294096 0 9.829628 
v -7.5 0 9.330128 
v -7.801998 0 9.853203 
v -8.535534 0 8.535534 
v -8.962624 0 8.962624 
v -9.330128 0 7.5 
v -9.853203 0 7.801998 
v -9.829628 0 6.294096 
v -10 0 5 
v -10.41304 0 6.45042 
v -10.41304 0 3.549579 
v -10.604 0 5 
v -9.853203 0 2.198002 
v -9.829628 0 3.705905 
v -9.330128 0 2.5 
v -8.962624 0 1.037377 
v -8.535534 0 1.464466 
v -7.801998 0 0.1467974 
v -7.5 0 0.669873 
v -6.45042 0 -0.4130441 
v -6.294096 0 0.1703709 
v -5 0 -0.6039956 
v -5 0 0 
v -3.705905 0 0.1703709 
v -3.549579 0 -0.4130441 
v -2.5 0 0.669873 
v -2.198002 0 0.1467974 
v -1.464466 0 1.464466 
v -1.037377 0 1.037377 
v -0.669873 0 2.5 
v -0.1703709 0 3.705905 
v -0.1467974 0 2.198002 
v 0.6039956 1.2 5 
v 0.4130441 1.2 6.45042 
v 0.4130441 1.2 3.549579 
v -0.1467974 1.2 2.198002 
v 0 1.2 5 
v -0.1703709 1.2 3.705905 
v -1.037377 1.2 1.037377 
v -0.669873 1.2 2.5 
v -1.464466 1.2 1.464466 
v -2.198002 1.2 0.1467974 
v -2.5 1.2 0.669873 
v -3.549579 1.2 -0.4130441 
v -3.705905 1.2 0.1703709 
v -5 1.2 -0.6039956 
v -5 1.2 0 
v -6.294096 1.2 0.1703709 
v -6.45042 1.2 -0.4130441 
v -7.5 1.2 0.669873 
v -7.801998 1.2 0.1467974 
v -8.535534 1.2 1.464466 
v -8.962624 1.2 1.037377 
v -9.330128 1.2 2.5 
v -9.853203 1.2 2.198002 
v -9.829628 1.2 3.705905 
v -10 1.2 5 
v -10.41304 1.2 3.549579 
v -10.41304 1.2 6.45042 
v -9.853203 1.2 7.801998 
v -9.829628 1.2 6.294096 
v -9.330128 1.2 7.5 
v -8.962624 1.2 8.962624 
v -8.535534 1.2 8.535534 
v -7.801998 1.2 9.853203 
v -7.5 1.2 9.330128 
v -6.45042 1.2 10.41304 
v -6.294096 1.2 9.829628 
v -5 1.2 10.604 
v -5 1.2 10 
v -3.705905 1.2 9.829628 
v -3.549579 1.2 10.41304 
v -2.5 1.2 9.330128 
v -2.198002 1.2 9.853203 
v -1.464466 1.2 8.535534 
v -1.037377 1.2 8.962624 
v -0.669873 1.2 7.5 
v -0.1703709 1.2 6.294096 
v -0.1467974 1.2 7.801998 
v -10.604 1.2 5 
v -4.85765 9.099999 4.468741 
v -4.724999 9.099999 4.523686 
v -5.476314 9.099999 5.275001 
v -5.388909 9.099999 5.388909 
v -4.468741 9.099999 5.14235 
v -4.523686 9.099999 5.275001 
v -5.275001 9.099999 4.523686 
v -5.14235 9.099999 4.468741 
v -5.531259 9.099999 4.85765 
v -5.55 9.099999 5 
v -5 9.099999 5.55 
v -5.14235 9.099999 5.531259 
v -5 9.099999 4.45 
v -4.611091 9.099999 4.611091 
v -4.523686 9.099999 4.724999 
v -4.45 9.099999 5 
v -5.531259 9.099999 5.14235 
v -4.468741 9.099999 4.85765 
v -5.275001 9.099999 5.476314 
v -5.388909 9.099999 4.611091 
v -4.724999 9.099999 5.476314 
v -4.85765 9.099999 5.531259 
v -5.476314 9.099999 4.724999 
v -4.611091 9.099999 5.388909 

vn 0 -1 0
vn 0 1 0
vn -0.5 0 -0.8660254
vn -0.258819 0 -0.9659258
vn -0.7071068 0 -0.7071068
vn -0.8660254 0 -0.5
vn -1 0 0
vn -0.9659258 0 0.258819
vn 1 0 0
vn 0.9659258 0 0.258819
vn -0.8660254 0 0.5
vn -0.7071068 0 0.7071068
vn -0.5 0 0.8660254
vn -0.258819 0 0.9659258
vn 0 0 1
vn 0.258819 0 0.9659258
vn 0.8660254 0 -0.5
vn 0.9659258 0 -0.258819
vn 0.258819 0 -0.9659258
vn 0.5 0 -0.8660254
vn 0.5 0 0.8660254
vn 0.7071068 0 0.7071068
vn -0.9659258 0 -0.258819
vn 0.8660254 0 0.5
vn 0.7071068 0 -0.7071068
vn 0 0 -1
vn 0.2255041 0.4907847 -0.8415927
vn 0.4356404 0.4907847 -0.7545514
vn -0.7545514 0.4907847 0.4356404
vn -0.6160886 0.4907847 0.6160886
vn 0.8415927 0.4907847 0.2255041
vn 0.7545514 0.4907847 0.4356404
vn -0.4356404 0.4907847 -0.7545514
vn -0.2255041 0.4907847 -0.8415927
vn -0.8415927 0.4907847 -0.2255041
vn -0.8712808 0.4907847 0
vn 0 0.4907847 0.8712808
vn -0.2255041 0.4907847 0.8415927
vn 0 0.4907847 -0.8712808
vn 0.6160886 0.4907847 -0.6160886
vn 0.7545514 0.4907847 -0.4356404
vn 0.8712808 0.4907847 0
vn -0.8415927 0.4907847 0.2255041
vn 0.8415927 0.4907847 -0.2255041
vn -0.4356404 0.4907847 0.7545514
vn -0.6160886 0.4907847 -0.6160886
vn 0.4356404 0.4907847 0.7545514
vn 0.2255041 0.4907847 0.8415927
vn -0.7545514 0.4907847 -0.4356404
vn 0.6160886 0.4907847 0.6160886

vt 2.377935 19.68504
vt 1.626158 13.97472
vt 1.626158 25.39536
vt -0.5779427 30.71653
vt 0 19.68504
vt -0.6707515 24.7799
vt -4.08416 35.28592
vt -2.637295 29.52756
vt -5.765615 33.60447
vt -8.653552 38.79214
vt -9.84252 36.73278
vt -13.97472 40.99623
vt -14.59018 38.69933
vt -19.68504 41.74801
vt -19.68504 39.37008
vt -25.39536 40.99623
vt -24.7799 38.69933
vt -29.52756 36.73278
vt -30.71653 38.79214
vt -33.60447 33.60447
vt -35.28592 35.28592
vt -36.73278 29.52756
vt -38.79214 30.71653
vt -38.69933 24.7799
vt -39.37008 19.68504
vt -40.99623 25.39536
vt -40.99623 13.97472
vt -41.74801 19.68504
vt -38.79214 8.653552
vt -38.69933 14.59018
vt -36.73278 9.84252
vt -35.28592 4.08416
vt -33.60447 5.765615
vt -30.71653 0.5779427
vt -29.52756 2.637295
vt -25.39536 -1.626158
vt -24.7799 0.6707515
vt -19.68504 -2.377935
vt -19.68504 0
vt -14.59018 0.6707515
vt -13.97472 -1.626158
vt -9.84252 2.637295
vt -8.653552 0.5779427
vt -5.765615 5.765615
vt -4.08416 4.08416
vt -2.637295 9.84252
vt -0.6707515 14.59018
vt -0.5779427 8.653552
vt -2.377935 19.68504
vt -1.626158 25.39536
vt -1.626158 13.97472
vt 0.5779427 8.653552
vt -2.286686E-30 19.68504
vt 0.6707515 14.59018
vt 4.08416 4.08416
vt 2.637295 9.84252
vt 5.765615 5.765615
vt 8.653552 0.5779427
vt 9.84252 2.637295
vt 13.97472 -1.626158
vt 14.59018 0.6707515
vt 19.68504 -2.377935
vt 19.68504 1.401298E-45
vt 24.7799 0.6707515
vt 25.39536 -1.626158
vt 29.52756 2.637295
vt 30.71653 0.5779427
vt 33.60447 5.765615
vt 35.28592 4.08416
vt 36.73278 9.84252
vt 38.79214 8.653552
vt 38.69933 14.59018
vt 39.37008 19.68504
vt 40.99623 13.97472
vt 40.99623 25.39536
vt 38.79214 30.71653
vt 38.69933 24.7799
vt 36.73278 29.52756
vt 35.28592 35.28592
vt 33.60447 33.60447
vt 30.71653 38.79214
vt 29.52756 36.73278
vt 25.39536 40.99623
vt 24.7799 38.69933
vt 19.68504 41.74801
vt 19.68504 39.37008
vt 14.59018 38.69933
vt 13.97472 40.99623
vt 9.84252 36.73278
vt 8.653552 38.79214
vt 5.765615 33.60447
vt 4.08416 35.28592
vt 2.637295 29.52756
vt 0.6707515 24.7799
vt 0.5779427 30.71653
vt 41.74801 19.68504
vt 28.59954 0
vt 22.83995 0
vt 28.59954 4.72441
vt 22.83995 4.72441
vt 30.48048 0
vt 24.72089 0
vt 30.48048 4.72441
vt 24.72089 4.72441
vt 14.06742 0
vt 14.06742 4.72441
vt 19.82701 0
vt 19.82701 4.72441
vt -19.20625 4.72441
vt -19.20625 0
vt -24.96584 4.72441
vt -24.96584 0
vt 0.7539029 0
vt 0.7539029 4.72441
vt 6.513495 0
vt 6.513495 4.72441
vt -0.7539029 0
vt -6.513495 0
vt -0.7539029 4.72441
vt -6.513495 4.72441
vt -7.773671 0
vt -13.53326 0
vt -7.773671 4.72441
vt -13.53326 4.72441
vt -14.06742 0
vt -19.82701 0
vt -14.06742 4.72441
vt -19.82701 4.72441
vt 13.53326 0
vt 7.773671 0
vt 13.53326 4.72441
vt 7.773671 4.72441
vt -22.83995 0
vt -28.59954 0
vt -22.83995 4.72441
vt -28.59954 4.72441
vt -24.72089 0
vt -30.48048 0
vt -24.72089 4.72441
vt -30.48048 4.72441
vt 19.20625 0
vt 19.20625 4.72441
vt 24.96584 0
vt 24.96584 4.72441
vt 13.22288 7.14932
vt 8.084053 7.14932
vt 10.9361 42.77328
vt 10.37083 42.77328
vt 3.351063 16.77491
vt 3.916334 16.77491
vt 1.064286 -18.84906
vt 6.203112 -18.84906
vt -25.43711 35.42716
vt -23.15033 -0.196809
vt -26.00238 35.42716
vt -28.28916 -0.196809
vt 28.28916 -0.196809
vt 23.15033 -0.196809
vt 26.00238 35.42716
vt 25.43711 35.42716
vt 19.51663 -13.65456
vt 21.80341 21.96941
vt 24.65546 -13.65456
vt 22.36868 21.96941
vt -14.3778 -16.16019
vt -19.51663 -16.16019
vt -16.66458 19.46378
vt -17.22985 19.46378
vt 24.65546 2.871946
vt 19.51663 2.871946
vt 22.36868 38.49591
vt 21.80341 38.49591
vt -1.064286 8.066443
vt -6.203112 8.066443
vt -3.351063 43.69041
vt -3.916334 43.69041
vt -19.51663 2.871946
vt -24.65546 2.871946
vt -21.80341 38.49591
vt -22.36868 38.49591
vt 19.51663 5.377573
vt 14.3778 5.377573
vt 17.22985 41.00154
vt 16.66458 41.00154
vt 10.37083 17.69203
vt 10.9361 17.69203
vt 8.084053 -17.93193
vt 13.22288 -17.93193
vt -14.3778 5.377573
vt -19.51663 5.377573
vt -16.66458 41.00154
vt -17.22985 41.00154
vt -8.084053 -17.93193
vt -13.22288 -17.93193
vt -10.37083 17.69203
vt -10.9361 17.69203
vt 30.1701 -3.61956
vt 25.03127 -3.61956
vt 27.88332 32.00441
vt 27.31805 32.00441
vt -23.15033 -10.5858
vt -28.28916 -10.5858
vt -25.43711 25.03816
vt -26.00238 25.03816
vt 14.3778 -16.16019
vt 16.66458 19.46378
vt 19.51663 -16.16019
vt 17.22985 19.46378
vt 23.15033 -10.5858
vt 25.43711 25.03816
vt 28.28916 -10.5858
vt 26.00238 25.03816
vt -8.084053 7.14932
vt -13.22288 7.14932
vt -10.37083 42.77328
vt -10.9361 42.77328
vt -27.31805 32.00441
vt -25.03127 -3.61956
vt -27.88332 32.00441
vt -30.1701 -3.61956
vt -25.03127 -7.163053
vt -30.1701 -7.163053
vt -27.31805 28.46091
vt -27.88332 28.46091
vt 6.203112 8.066443
vt 1.064286 8.066443
vt 3.916334 43.69041
vt 3.351063 43.69041
vt -19.51663 -13.65456
vt -24.65546 -13.65456
vt -21.80341 21.96941
vt -22.36868 21.96941
vt 25.03127 -7.163053
vt 27.31805 28.46091
vt 30.1701 -7.163053
vt 27.88332 28.46091
vt -1.064286 -18.84906
vt -6.203112 -18.84906
vt -3.351063 16.77491
vt -3.916334 16.77491
vt 17.51969 19.68504
vt 17.59347 20.24547
vt 17.59347 19.12461
vt 17.80979 18.60236
vt 17.80979 20.76772
vt 18.1539 18.1539
vt 18.1539 21.21618
vt 18.60236 17.80979
vt 18.60236 21.56029
vt 19.12461 17.59347
vt 19.12461 21.77661
vt 19.68504 17.51969
vt 19.68504 21.85039
vt 20.24547 17.59347
vt 20.24547 21.77661
vt 20.76772 17.80979
vt 20.76772 21.56029
vt 21.21618 18.1539
vt 21.21618 21.21618
vt 21.56029 18.60236
vt 21.56029 20.76772
vt 21.77661 19.12461
vt 21.77661 20.24547
vt 21.85039 19.68504

usemtl wall
usemap wall

f 2/2/1 1/1/1 3/3/1
f 3/3/1 4/4/1 2/2/1
f 4/4/1 5/5/1 2/2/1
f 4/4/1 6/6/1 5/5/1
f 4/4/1 7/7/1 6/6/1
f 7/7/1 8/8/1 6/6/1
f 7/7/1 9/9/1 8/8/1
f 7/7/1 10/10/1 9/9/1
f 10/10/1 11/11/1 9/9/1
f 10/10/1 12/12/1 11/11/1
f 12/12/1 13/13/1 11/11/1
f 12/12/1 14/14/1 13/13/1
f 14/14/1 15/15/1 13/13/1
f 14/14/1 16/16/1 15/15/1
f 16/16/1 17/17/1 15/15/1
f 16/16/1 18/18/1 17/17/1
f 16/16/1 19/19/1 18/18/1
f 19/19/1 20/20/1 18/18/1
f 19/19/1 21/21/1 20/20/1
f 21/21/1 22/22/1 20/20/1
f 21/21/1 23/23/1 22/22/1
f 23/23/1 24/24/1 22/22/1
f 23/23/1 25/25/1 24/24/1
f 23/23/1 26/26/1 25/25/1
f 26/26/1 27/27/1 25/25/1
f 26/26/1 28/28/1 27/27/1
f 25/25/1 27/27/1 29/29/1
f 30/30/1 25/25/1 29/29/1
f 31/31/1 30/30/1 29/29/1
f 31/31/1 29/29/1 32/32/1
f 33/33/1 31/31/1 32/32/1
f 33/33/1 32/32/1 34/34/1
f 35/35/1 33/33/1 34/34/1
f 35/35/1 34/34/1 36/36/1
f 37/37/1 35/35/1 36/36/1
f 37/37/1 36/36/1 38/38/1
f 39/39/1 37/37/1 38/38/1
f 40/40/1 39/39/1 38/38/1
f 40/40/1 38/38/1 41/41/1
f 42/42/1 40/40/1 41/41/1
f 42/42/1 41/41/1 43/43/1
f 44/44/1 42/42/1 43/43/1
f 44/44/1 43/43/1 45/45/1
f 46/46/1 44/44/1 45/45/1
f 47/47/1 46/46/1 45/45/1
f 47/47/1 45/45/1 48/48/1
f 5/5/1 47/47/1 48/48/1
f 48/48/1 2/2/1 5/5/1
f 50/50/2 49/49/2 51/51/2
f 51/51/2 52/52/2 50/50/2
f 52/52/2 53/53/2 50/50/2
f 52/52/2 54/54/2 53/53/2
f 52/52/2 55/55/2 54/54/2
f 55/55/2 56/56/2 54/54/2
f 55/55/2 57/57/2 56/56/2
f 55/55/2 58/58/2 57/57/2
f 58/58/2 59/59/2 57/57/2
f 58/58/2 60/60/2 59/59/2
f 60/60/2 61/61/2 59/59/2
f 60/60/2 62/62/2 61/61/2
f 62/62/2 63/63/2 61/61/2
f 62/62/2 64/64/2 63/63/2
f 62/62/2 65/65/2 64/64/2
f 65/65/2 66/66/2 64/64/2
f 65/65/2 67/67/2 66/66/2
f 67/67/2 68/68/2 66/66/2
f 67/67/2 69/69/2 68/68/2
f 69/69/2 70/70/2 68/68/2
f 69/69/2 71/71/2 70/70/2
f 71/71/2 72/72/2 70/70/2
f 71/71/2 73/73/2 72/72/2
f 71/71/2 74/74/2 73/73/2
f 73/73/2 74/74/2 75/75/2
f 73/73/2 75/75/2 76/76/2
f 77/77/2 73/73/2 76/76/2
f 78/78/2 77/77/2 76/76/2
f 78/78/2 76/76/2 79/79/2
f 80/80/2 78/78/2 79/79/2
f 80/80/2 79/79/2 81/81/2
f 82/82/2 80/80/2 81/81/2
f 82/82/2 81/81/2 83/83/2
f 84/84/2 82/82/2 83/83/2
f 84/84/2 83/83/2 85/85/2
f 86/86/2 84/84/2 85/85/2
f 87/87/2 86/86/2 85/85/2
f 87/87/2 85/85/2 88/88/2
f 89/89/2 87/87/2 88/88/2
f 89/89/2 88/88/2 90/90/2
f 91/91/2 89/89/2 90/90/2
f 91/91/2 90/90/2 92/92/2
f 93/93/2 91/91/2 92/92/2
f 94/94/2 93/93/2 92/92/2
f 94/94/2 92/92/2 95/95/2
f 53/53/2 94/94/2 95/95/2
f 95/95/2 50/50/2 53/53/2
f 74/74/2 96/96/2 75/75/2
f 36/98/4 34/97/3 67/99/3
f 67/99/3 65/100/4 36/98/4
f 34/102/3 32/101/5 69/103/5
f 69/103/5 67/104/3 34/102/3
f 69/104/5 32/102/5 29/101/6
f 29/101/6 71/103/6 69/104/5
f 96/106/7 28/105/7 26/107/8
f 26/107/8 75/108/8 96/106/7
f 1/110/9 49/109/9 50/111/10
f 50/111/10 3/112/10 1/110/9
f 76/114/11 23/113/11 21/115/12
f 21/115/12 79/116/12 76/114/11
f 21/118/12 19/117/13 81/119/13
f 81/119/13 79/120/12 21/118/12
f 19/122/13 16/121/14 83/123/14
f 83/123/14 81/124/13 19/122/13
f 16/126/14 14/125/15 85/127/15
f 85/127/15 83/128/14 16/126/14
f 14/112/15 12/110/16 88/109/16
f 88/109/16 85/111/15 14/112/15
f 48/121/17 52/123/17 51/124/18
f 51/124/18 2/122/18 48/121/17
f 43/130/20 41/129/19 60/131/19
f 60/131/19 58/132/20 43/130/20
f 12/134/16 10/133/21 90/135/21
f 90/135/21 88/136/16 12/134/16
f 10/138/21 7/137/22 92/139/22
f 92/139/22 90/140/21 10/138/21
f 71/100/6 29/98/6 27/97/23
f 27/97/23 74/99/23 71/100/6
f 74/142/23 27/141/23 28/143/7
f 28/143/7 96/144/7 74/142/23
f 4/137/24 95/139/24 92/140/22
f 92/140/22 7/138/22 4/137/24
f 75/132/8 26/130/8 23/129/11
f 23/129/11 76/131/11 75/132/8
f 3/133/10 50/135/10 95/136/24
f 95/136/24 4/134/24 3/133/10
f 2/125/18 51/127/18 49/128/9
f 49/128/9 1/126/9 2/125/18
f 45/117/25 55/119/25 52/120/17
f 52/120/17 48/118/17 45/117/25
f 45/113/25 43/115/20 58/116/20
f 58/116/20 55/114/25 45/113/25
f 41/105/19 38/107/26 62/108/26
f 62/108/26 60/106/19 41/105/19
f 38/141/26 36/143/4 65/144/4
f 65/144/4 62/142/26 38/141/26

usemtl roof
usemap roof

f 59/146/28 61/145/27 97/147/27
f 97/147/27 98/148/28 59/146/28
f 100/150/30 99/149/29 78/151/29
f 78/151/29 80/152/30 100/150/30
f 94/154/31 101/153/31 102/155/32
f 102/155/32 93/156/32 94/154/31
f 64/158/34 66/157/33 103/159/33
f 103/159/33 104/160/34 64/158/34
f 105/162/35 72/161/35 73/163/36
f 73/163/36 106/164/36 105/162/35
f 84/166/38 86/165/37 107/167/37
f 107/167/37 108/168/38 84/166/38
f 63/170/39 64/169/34 104/171/34
f 104/171/34 109/172/39 63/170/39
f 56/174/41 57/173/40 110/175/40
f 110/175/40 111/176/41 56/174/41
f 94/178/31 53/177/42 112/179/42
f 112/179/42 101/180/31 94/178/31
f 61/182/27 63/181/39 109/183/39
f 109/183/39 97/184/27 61/182/27
f 99/186/29 113/185/43 77/187/43
f 77/187/43 78/188/29 99/186/29
f 53/190/42 54/189/44 114/191/44
f 114/191/44 112/192/42 53/190/42
f 82/194/45 84/193/38 108/195/38
f 108/195/38 115/196/45 82/194/45
f 66/198/33 68/197/46 116/199/46
f 116/199/46 103/200/33 66/198/33
f 87/202/48 89/201/47 117/203/47
f 117/203/47 118/204/48 87/202/48
f 106/206/36 73/205/36 77/207/43
f 77/207/43 113/208/43 106/206/36
f 119/210/49 70/209/49 72/211/35
f 72/211/35 105/212/35 119/210/49
f 54/214/44 56/213/41 111/215/41
f 111/215/41 114/216/44 54/214/44
f 93/218/32 102/217/32 120/219/50
f 120/219/50 91/220/50 93/218/32
f 89/222/47 91/221/50 120/223/50
f 120/223/50 117/224/47 89/222/47
f 57/226/40 59/225/28 98/227/28
f 98/227/28 110/228/40 57/226/40
f 86/230/37 87/229/48 118/231/48
f 118/231/48 107/232/37 86/230/37
f 116/234/46 68/233/46 70/235/49
f 70/235/49 119/236/49 116/234/46
f 80/238/30 82/237/45 115/239/45
f 115/239/45 100/240/30 80/238/30
f 101/242/2 112/241/2 114/243/2
f 114/243/2 111/244/2 101/242/2
f 111/244/2 102/245/2 101/242/2
f 111/244/2 110/246/2 102/245/2
f 110/246/2 120/247/2 102/245/2
f 110/246/2 98/248/2 120/247/2
f 98/248/2 117/249/2 120/247/2
f 98/248/2 97/250/2 117/249/2
f 97/250/2 118/251/2 117/249/2
f 97/250/2 109/252/2 118/251/2
f 109/252/2 107/253/2 118/251/2
f 109/252/2 104/254/2 107/253/2
f 104/254/2 108/255/2 107/253/2
f 104/254/2 103/256/2 108/255/2
f 103/256/2 115/257/2 108/255/2
f 103/256/2 116/258/2 115/257/2
f 116/258/2 100/259/2 115/257/2
f 116/258/2 119/260/2 100/259/2
f 119/260/2 99/261/2 100/259/2
f 119/260/2 105/262/2 99/261/2
f 105/262/2 113/263/2 99/261/2
f 105/262/2 106/264/2 113/263/2

usemtl _defaultMat
usemap _defaultMat

f 47/144/1 5/142/1 6/141/1
f 6/144/1 8/142/1 47/141/1
f 8/144/1 46/142/1 47/141/1
f 8/144/1 9/142/1 46/141/1
f 9/144/1 44/142/1 46/141/1
f 9/144/1 42/142/1 44/141/1
f 9/144/1 11/142/1 42/141/1
f 11/144/1 13/142/1 42/141/1
f 13/144/1 40/142/1 42/141/1
f 13/144/1 15/142/1 40/141/1
f 15/144/1 39/142/1 40/141/1
f 15/144/1 17/142/1 39/141/1
f 17/144/1 37/142/1 39/141/1
f 17/144/1 35/142/1 37/141/1
f 17/144/1 18/142/1 35/141/1
f 18/144/1 33/142/1 35/141/1
f 18/144/1 20/142/1 33/141/1
f 20/144/1 22/142/1 33/141/1
f 22/144/1 31/142/1 33/141/1
f 22/144/1 30/142/1 31/141/1
f 22/144/1 24/142/1 30/141/1
f 24/144/1 25/142/1 30/141/1
