# Exported using Kenney Suite 1.1 

mtllib towerTopCorner.mtl 

g towerTopCorner

v 3.979872 0 -8.88622 
v 4.370636 -1.804779E-15 -9.276983 
v 4.025414 0 -8.637202 
v 4.158642 0 -8.13999 
v 5 0 -8.250756 
v 5 0 -10 
v 3.804951 0 -9.842669 
v 5.841358 0 -8.13999 
v 6.294096 0 -9.829628 
v 6.625378 0 -7.815238 
v 7.5 0 -9.330128 
v 7.298632 0 -7.298632 
v 7.815238 0 -6.625378 
v 8.535534 0 -8.535534 
v 8.13999 0 -5.841358 
v 8.250756 0 -5 
v 8.535534 0 -1.464466 
v 8.13999 0 -4.158642 
v 7.815238 0 -3.374622 
v 7.5 0 -0.669873 
v 7.298632 0 -2.701368 
v 6.625378 0 -2.184762 
v 6.294096 0 -0.1703709 
v 5.841358 0 -1.860011 
v 5 0 -1.749244 
v 5 0 -1.343787E-11 
v 4.158642 0 -1.860011 
v 3.705905 0 -0.1703709 
v 3.374622 0 -2.184762 
v 2.701368 0 -2.701368 
v 2.5 0 -0.669873 
v 2.184762 0 -3.374622 
v 1.860011 0 -4.158642 
v 1.464466 0 -1.464466 
v 1.749244 0 -5 
v 1.362798 0 -5.974586 
v 1.11378 0 -6.020127 
v 0.7230166 -1.804779E-15 -5.629364 
v 0.669873 0 -2.5 
v 0.1703709 0 -3.705905 
v 0.1573312 0 -6.195049 
v -1.343787E-11 0 -5 
v 1.860011 0 -5.841358 
v 9.330128 0 -2.5 
v 9.330128 0 -7.5 
v 9.829628 0 -3.705905 
v 9.829628 0 -6.294096 
v 10 0 -5 
v 0.7230166 -0.45 -5.629364 
v 0.1573312 -0.45 -6.195049 
v 1.11378 -0.45 -6.020127 
v 3.979872 -0.45 -8.88622 
v 3.804951 -0.45 -9.842669 
v 4.370636 -0.45 -9.276983 
v 7.662617 1.3 -2.337383 
v 8.261026 1.3 -3.117245 
v 8.535534 1.3 -1.464466 
v 8.637202 1.3 -4.025414 
v 9.330128 1.3 -2.5 
v 8.765509 1.3 -5 
v 10 1.3 -5 
v 9.829628 1.3 -3.705905 
v 8.535534 0.85 -1.464466 
v 7.662617 0.85 -2.337383 
v 10 0.85 -5 
v 8.765509 0.85 -5 
v 5 1.3 -8.765509 
v 5 1.3 -10 
v 5.974586 1.3 -8.637202 
v 6.294096 1.3 -9.829628 
v 6.882754 1.3 -8.261026 
v 7.5 1.3 -9.330128 
v 7.662617 1.3 -7.662617 
v 8.535534 1.3 -8.535534 
v 7.662617 0.85 -7.662617 
v 8.535534 0.85 -8.535534 
v 5 0.85 -10 
v 5 0.85 -8.765509 
v 1.464466 1.3 -1.464466 
v 2.337383 1.3 -2.337383 
v 2.5 1.3 -0.669873 
v 3.117245 1.3 -1.738974 
v 3.705905 1.3 -0.1703709 
v 4.025414 1.3 -1.362798 
v 5 1.3 -1.343787E-11 
v 5 1.3 -1.234491 
v 1.464466 0.85 -1.464466 
v 2.337383 0.85 -2.337383 
v 5 0.85 -1.343787E-11 
v 6.294096 0.85 -0.1703709 
v 5 0.85 -1.234491 
v 3.804951 0.85 -9.842669 
v 4.025414 0.85 -8.637202 
v 0.669873 0.85 -2.5 
v 0.1703709 0.85 -3.705905 
v -1.343787E-11 0.85 -5 
v 0.1573312 0.85 -6.195049 
v 5.974586 0.85 -1.362798 
v 6.882754 0.85 -1.738974 
v 7.5 0.85 -0.669873 
v 8.261026 0.85 -6.882754 
v 8.637202 0.85 -5.974586 
v 9.330128 0.85 -7.5 
v 9.829628 0.85 -6.294096 
v 6.625378 0.4 -7.815238 
v 5.841358 0.4 -8.13999 
v 7.298632 0.4 -7.298632 
v 7.815238 0.4 -6.625378 
v 8.13999 0.4 -5.841358 
v 8.250756 0.4 -5 
v 8.13999 0.4 -4.158642 
v 7.815238 0.4 -3.374622 
v 7.298632 0.4 -2.701368 
v 6.625378 0.4 -2.184762 
v 5.841358 0.4 -1.860011 
v 5 0.4 -1.749244 
v 4.158642 0.4 -1.860011 
v 3.374622 0.4 -2.184762 
v 2.701368 0.4 -2.701368 
v 2.184762 0.4 -3.374622 
v 1.860011 0.4 -4.158642 
v 1.749244 0.4 -5 
v 1.860011 0.4 -5.841358 
v 5 0.4 -8.250756 
v 4.158642 0.4 -8.13999 
v 1.234491 0.85 -5 
v 1.362798 0.85 -4.025414 
v 1.738974 0.85 -3.117245 
v 1.362798 0.85 -5.974586 
v 1.738974 0.4 -3.117245 
v 2.337383 0.4 -2.337383 
v 3.117245 0.4 -1.738974 
v 4.025414 0.4 -1.362798 
v 5 0.4 -1.234491 
v 5.974586 0.4 -1.362798 
v 6.882754 0.4 -1.738974 
v 7.662617 0.4 -2.337383 
v 8.261026 0.4 -3.117245 
v 8.261026 0.4 -6.882754 
v 7.662617 0.4 -7.662617 
v 6.882754 0.4 -8.261026 
v 5.974586 0.4 -8.637202 
v 5 0.4 -8.765509 
v 4.025414 0.4 -8.637202 
v 8.637202 0.4 -4.025414 
v 8.637202 0.4 -5.974586 
v 8.765509 0.4 -5 
v 1.234491 0.4 -5 
v 1.362798 0.4 -5.974586 
v 1.362798 0.4 -4.025414 

vn 0 1 0
vn 0.7071068 0 -0.7071068
vn -0.7071068 0 -0.7071068
vn -0.7071068 0 0.7071068
vn 0.7071068 0 0.7071068
vn 0.7374278 0 0.6754259
vn 0.8660254 0 0.5
vn 0.7933533 0 0.6087614
vn 0.9659258 0 0.258819
vn 1 0 -2.687573E-12
vn 0.9914449 0 0.1305262
vn 0.9990385 0 0.04384197
vn -2.687573E-12 0 -1
vn 0.5 0 -0.8660254
vn 0.6754259 0 -0.7374278
vn 0.6087614 0 -0.7933533
vn 0.258819 0 -0.9659258
vn 0.04384197 0 -0.9990385
vn 0.1305262 0 -0.9914449
vn -1 0 2.687573E-12
vn -0.5 0 0.8660254
vn -0.6754259 0 0.7374278
vn -0.6087614 0 0.7933533
vn -0.258819 0 0.9659258
vn 2.687573E-12 0 1
vn -0.04384197 0 0.9990385
vn -0.1305262 0 0.9914449
vn 0.258819 0 0.9659258
vn -0.1305262 0 -0.9914449
vn -0.8660254 0 0.5
vn -0.9659258 0 0.258819
vn -0.9914449 0 -0.1305262
vn 0.5 0 0.8660254
vn 0.8660254 0 -0.5
vn 0.9659258 0 -0.258819
vn -0.9659258 0 -0.258819
vn -0.8660254 0 -0.5
vn -0.5 0 -0.8660254
vn -0.258819 0 -0.9659258
vn 0.1305262 0 0.9914449
vn -0.9990385 0 -0.04384197
vn -0.7374278 0 -0.6754259
vn -0.7933533 0 -0.6087614
vn 0.1799029 0 -0.9836843
vn -0.9836843 0 0.1799029

vt 0 0
vt -1.046131 3.346457
vt 3.778517 3.346457
vt -1.046131 1.574803
vt 30.16778 9.202296
vt 32.52373 12.27262
vt 33.60447 5.765615
vt 34.00473 15.84809
vt 36.73278 9.84252
vt 34.50988 19.68504
vt 39.37008 19.68504
vt 38.69933 14.59018
vt 19.68504 5.11811
vt 19.68504 3.346457
vt 14.82484 5.11811
vt 14.82484 3.346457
vt 25.03127 -3.688453E-16
vt 25.03127 3.346457
vt 30.1701 -3.688453E-16
vt 25.03127 5.11811
vt 30.1701 5.11811
vt 23.15033 0
vt 23.15033 5.11811
vt 28.28916 0
vt 28.28916 5.11811
vt 19.51663 -4.648873E-16
vt 19.51663 5.11811
vt 24.65546 -4.648873E-16
vt 24.65546 5.11811
vt 24.65546 3.346457
vt -34.50988 3.346457
vt -39.37008 3.346457
vt -34.50988 5.11811
vt -39.37008 5.11811
vt 19.68504 34.50988
vt 19.68504 39.37008
vt 23.52199 34.00473
vt 24.7799 38.69933
vt 27.09746 32.52373
vt 29.52756 36.73278
vt 30.16778 30.16778
vt 33.60447 33.60447
vt 42.66369 3.346457
vt 42.66369 5.11811
vt 47.52389 3.346457
vt 47.52389 5.11811
vt -1.064286 0
vt -6.203112 0
vt -1.064286 5.11811
vt -6.203112 3.346457
vt -6.203112 5.11811
vt -8.084053 0
vt -13.22288 0
vt -8.084053 5.11811
vt -13.22288 5.11811
vt -14.3778 -4.42003E-16
vt -19.51663 -4.42003E-16
vt -14.3778 3.346457
vt -19.51663 5.11811
vt -14.3778 5.11811
vt 5.765615 5.765615
vt 9.202296 9.202296
vt 9.84252 2.637295
vt 12.27262 6.846353
vt 14.59018 0.6707515
vt 15.84809 5.365345
vt 19.68504 0
vt 19.68504 4.860201
vt -8.153811 3.346457
vt -13.01401 3.346457
vt -8.153811 5.11811
vt -13.01401 5.11811
vt 6.203112 1.717335E-16
vt 1.064286 1.717335E-16
vt 6.203112 5.11811
vt 1.064286 3.346457
vt 1.064286 5.11811
vt 13.22288 0
vt 8.084053 0
vt 13.22288 5.11811
vt 8.084053 5.11811
vt 19.51663 0
vt 14.3778 0
vt 19.51663 3.346457
vt 14.3778 5.11811
vt 24.65546 0
vt 2.302302E-13 3.346457
vt 2.302302E-13 5.11811
vt 4.860201 3.346457
vt 4.860201 5.11811
vt 14.98012 38.75066
vt 15.84809 34.00473
vt -19.90994 0
vt -24.65546 0
vt -19.90994 3.346457
vt -24.65546 3.346457
vt -1.064286 3.346457
vt -1.064286 1.156554E-28
vt -6.203112 1.156554E-28
vt -14.3778 2.68811E-18
vt -19.51663 3.346457
vt -19.51663 2.68811E-18
vt -24.26215 3.346457
vt -24.26215 0
vt -8.084053 3.346457
vt -13.22288 3.346457
vt 24.7799 0.6707515
vt 23.52199 5.365345
vt 27.09746 6.846353
vt 29.52756 2.637295
vt 30.1701 0
vt 25.03127 0
vt 30.1701 3.346457
vt 28.28916 3.346457
vt 23.15033 3.346457
vt 32.52373 27.09746
vt 34.00473 23.52199
vt 36.73278 29.52756
vt 38.69933 24.7799
vt 1.064286 1.137437E-15
vt 6.203112 1.137437E-15
vt 6.203112 3.346457
vt 14.3778 9.792394E-29
vt 14.3778 3.346457
vt 19.51663 9.792394E-29
vt 8.084053 3.346457
vt 13.22288 3.346457
vt 12.32397 0
vt 8.982959 0
vt 12.32397 1.574803
vt 8.982959 1.574803
vt 5.304206 0
vt 1.963192 0
vt 5.304206 1.574803
vt 1.963192 1.574803
vt -1.963192 1.574803
vt -1.963192 0
vt -5.304206 1.574803
vt -5.304206 0
vt -8.982959 1.574803
vt -8.982959 0
vt -12.32397 1.574803
vt -12.32397 0
vt -15.27671 1.574803
vt -15.27671 0
vt -18.61773 1.574803
vt -18.61773 0
vt -20.41554 1.574803
vt -20.41554 0
vt -23.75655 1.574803
vt -23.75655 0
vt -24.04924 1.574803
vt -24.04924 0
vt -27.39025 1.574803
vt -27.39025 0
vt -25.93018 1.574803
vt -25.93018 0
vt -29.27119 1.574803
vt -29.27119 0
vt 15.27671 0
vt 15.27671 1.574803
vt 18.61773 0
vt 18.61773 1.574803
vt 20.41554 -1.465733E-27
vt 20.41554 1.574803
vt 23.75655 -1.465733E-27
vt 23.75655 1.574803
vt 23.75655 -1.259983E-27
vt 20.41554 -1.259983E-27
vt 2.637295 9.84252
vt 4.860201 19.68504
vt 5.365345 15.84809
vt 6.846353 12.27262
vt 5.365345 23.52199
vt 0.6707515 14.59018
vt 0.6194143 24.38996
vt 0 19.68504
vt 6.886786 19.68504
vt 7.322876 16.37261
vt 8.601427 13.28591
vt 10.63531 10.63531
vt 13.28591 8.601427
vt 16.37261 7.322876
vt 19.68504 6.886786
vt 22.99747 7.322876
vt 26.08417 8.601427
vt 28.73477 10.63531
vt 30.76865 13.28591
vt 32.0472 16.37261
vt 32.48329 19.68504
vt 32.0472 22.99747
vt 30.76865 26.08417
vt 28.73477 28.73477
vt 26.08417 30.76865
vt 22.99747 32.0472
vt 19.68504 32.48329
vt 16.37261 32.0472
vt 7.322876 22.99747
vt -26.71768 1.574803
vt -26.71768 6.569074E-27
vt -28.74426 1.574803
vt -28.74426 6.569074E-27
vt -23.78471 1.574803
vt -27.65477 1.574803
vt -23.78471 3.346457
vt -27.65477 3.346457
vt -15.01219 3.346457
vt -15.01219 1.574803
vt -18.88225 3.346457
vt -18.88225 1.574803
vt -25.66566 1.574803
vt -29.53571 1.574803
vt -25.66566 3.346457
vt -29.53571 3.346457
vt -20.15101 1.574803
vt -24.02107 1.574803
vt -20.15101 3.346457
vt -24.02107 3.346457
vt -1.698669 3.346457
vt -1.698669 1.574803
vt -5.568729 3.346457
vt -5.568729 1.574803
vt -8.718437 3.346457
vt -8.718437 1.574803
vt -12.5885 3.346457
vt -12.5885 1.574803
vt 12.5885 1.574803
vt 8.718437 1.574803
vt 12.5885 5.11811
vt 8.718437 5.11811
vt -25.66566 5.11811
vt -29.53571 5.11811
vt -8.718437 5.11811
vt -12.5885 5.11811
vt 5.568729 1.574803
vt 1.698669 1.574803
vt 5.568729 3.346457
vt 1.698669 5.11811
vt 5.568729 5.11811
vt -20.15101 5.11811
vt -24.02107 5.11811
vt -15.01219 5.11811
vt -18.88225 5.11811
vt -23.78471 5.11811
vt -27.65477 5.11811
vt 18.88225 1.574803
vt 15.01219 1.574803
vt 18.88225 5.11811
vt 15.01219 3.346457
vt 15.01219 5.11811
vt -5.568729 5.11811
vt -1.698669 5.11811
vt 20.15101 1.574803
vt 20.15101 3.346457
vt 24.02107 1.574803
vt 24.02107 3.346457
vt 1.698669 3.346457
vt 8.718437 3.346457
vt 12.5885 3.346457
vt 18.88225 3.346457
vt 0.9054133 -9.617792E-27
vt -1.121171 -9.617792E-27
vt 0.9054133 1.574803
vt -1.121171 1.574803
vt 3.778517 -1.771654
vt -0.04948642 -1.771654
vt 3.778517 2.172903E-16
vt -0.04948642 2.172903E-16
vt -1.046131 2.172903E-16
vt -30.59881 3.346457
vt -30.59881 1.574803
vt -35.42345 3.346457
vt -30.59881 3.365819E-16
vt -31.59545 3.365819E-16
vt -31.59545 -1.771654
vt -35.42345 -1.771654
vt -35.42345 3.365819E-16

usemtl _defaultMat
usemap _defaultMat

f 2/1/1 1/1/1 3/1/1
f 3/1/1 4/1/1 2/1/1
f 4/1/1 5/1/1 2/1/1
f 2/1/1 5/1/1 6/1/1
f 6/1/1 7/1/1 2/1/1
f 5/1/1 8/1/1 6/1/1
f 8/1/1 9/1/1 6/1/1
f 8/1/1 10/1/1 9/1/1
f 10/1/1 11/1/1 9/1/1
f 10/1/1 12/1/1 11/1/1
f 12/1/1 13/1/1 11/1/1
f 13/1/1 14/1/1 11/1/1
f 13/1/1 15/1/1 14/1/1
f 15/1/1 16/1/1 14/1/1
f 16/1/1 17/1/1 14/1/1
f 17/1/1 16/1/1 18/1/1
f 17/1/1 18/1/1 19/1/1
f 20/1/1 17/1/1 19/1/1
f 20/1/1 19/1/1 21/1/1
f 20/1/1 21/1/1 22/1/1
f 23/1/1 20/1/1 22/1/1
f 23/1/1 22/1/1 24/1/1
f 23/1/1 24/1/1 25/1/1
f 26/1/1 23/1/1 25/1/1
f 26/1/1 25/1/1 27/1/1
f 28/1/1 26/1/1 27/1/1
f 28/1/1 27/1/1 29/1/1
f 28/1/1 29/1/1 30/1/1
f 31/1/1 28/1/1 30/1/1
f 31/1/1 30/1/1 32/1/1
f 31/1/1 32/1/1 33/1/1
f 34/1/1 31/1/1 33/1/1
f 33/1/1 35/1/1 34/1/1
f 34/1/1 35/1/1 36/1/1
f 34/1/1 36/1/1 37/1/1
f 34/1/1 37/1/1 38/1/1
f 39/1/1 34/1/1 38/1/1
f 40/1/1 39/1/1 38/1/1
f 40/1/1 38/1/1 41/1/1
f 41/1/1 42/1/1 40/1/1
f 35/1/1 43/1/1 36/1/1
f 17/1/1 44/1/1 14/1/1
f 44/1/1 45/1/1 14/1/1
f 44/1/1 46/1/1 45/1/1
f 46/1/1 47/1/1 45/1/1
f 46/1/1 48/1/1 47/1/1
f 50/3/1 49/2/1 51/4/1
f 38/3/2 49/2/2 50/4/2
f 50/3/2 41/2/2 38/4/2
f 51/3/3 49/2/3 38/4/3
f 38/3/3 37/2/3 51/4/3
f 53/3/1 52/2/1 54/4/1
f 2/3/3 54/2/3 52/4/3
f 52/3/3 1/2/3 2/4/3
f 54/3/4 2/2/4 7/4/4
f 7/3/4 53/2/4 54/4/4

usemtl wall
usemap wall

f 56/6/1 55/5/1 57/7/1
f 57/7/1 58/8/1 56/6/1
f 57/7/1 59/9/1 58/8/1
f 59/9/1 60/10/1 58/8/1
f 59/9/1 61/11/1 60/10/1
f 59/9/1 62/12/1 61/11/1
f 63/14/4 57/13/4 55/15/4
f 55/15/4 64/16/4 63/14/4
f 63/18/6 17/17/5 44/19/7
f 44/19/7 57/20/8 63/18/6
f 44/19/7 59/21/7 57/20/8
f 59/23/7 44/22/7 46/24/9
f 46/24/9 62/25/9 59/23/7
f 62/27/9 46/26/9 48/28/10
f 48/28/10 61/29/11 62/27/9
f 48/28/10 65/30/12 61/29/11
f 65/32/13 66/31/13 60/33/13
f 60/33/13 61/34/13 65/32/13
f 68/36/1 67/35/1 69/37/1
f 69/37/1 70/38/1 68/36/1
f 69/37/1 71/39/1 70/38/1
f 71/39/1 72/40/1 70/38/1
f 71/39/1 73/41/1 72/40/1
f 73/41/1 74/42/1 72/40/1
f 73/44/5 75/43/5 76/45/5
f 76/45/5 74/46/5 73/44/5
f 14/48/2 11/47/14 72/49/14
f 72/49/14 76/50/15 14/48/2
f 72/49/14 74/51/16 76/50/15
f 11/53/14 9/52/17 70/54/17
f 70/54/17 72/55/14 11/53/14
f 9/57/17 6/56/13 77/58/18
f 77/58/18 70/59/17 9/57/17
f 77/58/18 68/60/19 70/59/17
f 78/31/20 67/33/20 68/34/20
f 68/34/20 77/32/20 78/31/20
f 80/62/1 79/61/1 81/63/1
f 81/63/1 82/64/1 80/62/1
f 81/63/1 83/65/1 82/64/1
f 83/65/1 84/66/1 82/64/1
f 83/65/1 85/67/1 84/66/1
f 85/67/1 86/68/1 84/66/1
f 88/70/3 87/69/3 79/71/3
f 79/71/3 80/72/3 88/70/3
f 34/74/4 31/73/21 81/75/21
f 81/75/21 87/76/22 34/74/4
f 81/75/21 79/77/23 87/76/22
f 31/79/21 28/78/24 83/80/24
f 83/80/24 81/81/21 31/79/21
f 28/83/24 26/82/25 89/84/26
f 89/84/26 83/85/24 28/83/24
f 89/84/26 85/27/27 83/85/24
f 90/30/28 89/84/26 26/82/25
f 26/82/25 23/86/28 90/30/28
f 85/88/10 89/87/10 91/89/10
f 91/89/10 86/90/10 85/88/10
f 77/36/1 92/91/1 93/92/1
f 93/92/1 78/35/1 77/36/1
f 6/94/13 7/93/29 92/95/29
f 92/95/29 77/96/18 6/94/13
f 34/98/4 87/97/22 94/50/30
f 94/50/30 39/99/30 34/98/4
f 40/100/31 95/58/31 96/101/20
f 96/101/20 42/102/20 40/100/31
f 42/102/20 96/101/20 97/103/32
f 97/103/32 41/104/32 42/102/20
f 39/52/30 94/105/30 95/106/31
f 95/106/31 40/53/31 39/52/30
f 91/68/1 89/67/1 90/107/1
f 90/107/1 98/108/1 91/68/1
f 90/107/1 99/109/1 98/108/1
f 90/107/1 100/110/1 99/109/1
f 100/110/1 64/5/1 99/109/1
f 100/110/1 63/7/1 64/5/1
f 20/112/33 17/111/5 63/113/6
f 63/113/6 100/18/33 20/112/33
f 23/22/28 20/24/33 100/114/33
f 100/114/33 90/115/28 23/22/28
f 76/42/1 75/41/1 101/116/1
f 101/116/1 102/117/1 76/42/1
f 102/117/1 103/118/1 76/42/1
f 102/117/1 66/10/1 103/118/1
f 66/10/1 65/11/1 103/118/1
f 65/11/1 104/119/1 103/118/1
f 103/76/34 45/120/34 14/121/2
f 14/121/2 76/122/15 103/76/34
f 65/124/12 48/123/10 47/125/35
f 47/125/35 104/84/35 65/124/12
f 104/126/35 47/79/35 45/78/34
f 45/78/34 103/127/34 104/126/35
f 8/129/24 10/128/21 105/130/21
f 105/130/21 106/131/24 8/129/24
f 10/133/21 12/132/4 107/134/4
f 107/134/4 105/135/21 10/133/21
f 13/137/30 108/136/30 107/138/4
f 107/138/4 12/139/4 13/137/30
f 15/141/31 109/140/31 108/142/30
f 108/142/30 13/143/30 15/141/31
f 16/145/20 110/144/20 109/146/31
f 109/146/31 15/147/31 16/145/20
f 18/149/36 111/148/36 110/150/20
f 110/150/20 16/151/20 18/149/36
f 19/153/37 112/152/37 111/154/36
f 111/154/36 18/155/36 19/153/37
f 21/157/3 113/156/3 112/158/37
f 112/158/37 19/159/37 21/157/3
f 21/159/3 22/157/38 114/156/38
f 114/156/38 113/158/3 21/159/3
f 22/155/38 24/153/39 115/152/39
f 115/152/39 114/154/38 22/155/38
f 24/151/39 25/149/13 116/148/13
f 116/148/13 115/150/39 24/151/39
f 25/147/13 27/145/17 117/144/17
f 117/144/17 116/146/13 25/147/13
f 27/143/17 29/141/14 118/140/14
f 118/140/14 117/142/17 27/143/17
f 29/139/14 30/137/2 119/136/2
f 119/136/2 118/138/14 29/139/14
f 119/135/2 30/133/2 32/132/34
f 32/132/34 120/134/34 119/135/2
f 120/131/34 32/129/34 33/128/35
f 33/128/35 121/130/35 120/131/34
f 121/161/35 33/160/35 35/162/10
f 35/162/10 122/163/10 121/161/35
f 122/165/10 35/164/10 43/166/11
f 43/166/11 123/167/11 122/165/10
f 4/169/40 5/168/25 124/167/25
f 124/167/25 125/165/40 4/169/40
f 5/160/25 8/162/24 106/163/24
f 106/163/24 124/161/25 5/160/25
f 126/171/1 94/170/1 87/61/1
f 87/61/1 127/172/1 126/171/1
f 87/61/1 128/173/1 127/172/1
f 87/61/1 88/62/1 128/173/1
f 94/170/1 126/171/1 129/174/1
f 95/175/1 94/170/1 129/174/1
f 95/175/1 129/174/1 97/176/1
f 97/176/1 96/177/1 95/175/1
f 121/179/1 122/178/1 130/173/1
f 130/173/1 131/62/1 121/179/1
f 131/62/1 120/180/1 121/179/1
f 131/62/1 119/181/1 120/180/1
f 131/62/1 132/64/1 119/181/1
f 132/64/1 118/182/1 119/181/1
f 132/64/1 133/66/1 118/182/1
f 133/66/1 117/183/1 118/182/1
f 133/66/1 134/68/1 117/183/1
f 134/68/1 116/184/1 117/183/1
f 134/68/1 135/108/1 116/184/1
f 135/108/1 115/185/1 116/184/1
f 135/108/1 114/186/1 115/185/1
f 135/108/1 136/109/1 114/186/1
f 136/109/1 113/187/1 114/186/1
f 136/109/1 137/5/1 113/187/1
f 137/5/1 112/188/1 113/187/1
f 137/5/1 138/6/1 112/188/1
f 138/6/1 111/189/1 112/188/1
f 138/6/1 110/190/1 111/189/1
f 110/190/1 138/6/1 139/116/1
f 109/191/1 110/190/1 139/116/1
f 108/192/1 109/191/1 139/116/1
f 108/192/1 139/116/1 140/41/1
f 107/193/1 108/192/1 140/41/1
f 107/193/1 140/41/1 141/39/1
f 105/194/1 107/193/1 141/39/1
f 105/194/1 141/39/1 142/37/1
f 106/195/1 105/194/1 142/37/1
f 106/195/1 142/37/1 143/35/1
f 124/196/1 106/195/1 143/35/1
f 125/197/1 124/196/1 143/35/1
f 143/35/1 144/92/1 125/197/1
f 138/6/1 145/8/1 139/116/1
f 145/8/1 146/117/1 139/116/1
f 145/8/1 147/10/1 146/117/1
f 149/174/1 148/171/1 150/172/1
f 150/172/1 123/198/1 149/174/1
f 150/172/1 122/178/1 123/198/1
f 150/172/1 130/173/1 122/178/1
f 4/200/31 125/199/31 144/201/31
f 144/201/31 3/202/31 4/200/31
f 136/204/38 135/203/39 98/205/39
f 98/205/39 99/206/38 136/204/38
f 147/208/20 66/207/41 102/209/31
f 102/209/31 146/210/31 147/208/20
f 137/212/3 136/211/38 99/213/38
f 99/213/38 64/214/42 137/212/3
f 135/216/39 134/215/13 91/217/18
f 91/217/18 98/218/39 135/216/39
f 139/220/30 101/219/30 75/221/22
f 75/221/22 140/222/4 139/220/30
f 146/224/31 102/223/31 101/225/30
f 101/225/30 139/226/30 146/224/31
f 142/228/24 141/227/21 71/229/21
f 71/229/21 69/230/24 142/228/24
f 64/213/42 55/231/43 56/232/37
f 56/232/37 137/211/3 64/213/42
f 56/232/37 138/212/37 137/211/3
f 133/226/17 132/224/14 82/233/14
f 82/233/14 84/234/17 133/226/17
f 141/236/21 140/235/4 75/237/22
f 75/237/22 71/238/21 141/236/21
f 75/237/22 73/239/23 71/238/21
f 145/215/36 58/240/36 60/241/32
f 60/241/32 147/216/20 145/215/36
f 60/241/32 66/218/41 147/216/20
f 134/210/13 133/208/17 84/242/17
f 84/242/17 91/209/18 134/210/13
f 84/242/17 86/243/19 91/209/18
f 138/203/37 56/244/37 58/245/36
f 58/245/36 145/204/36 138/203/37
f 143/247/25 142/246/24 69/248/24
f 69/248/24 78/249/26 143/247/25
f 69/248/24 67/250/27 78/249/26
f 132/222/14 131/220/2 88/219/15
f 88/219/15 82/251/14 132/222/14
f 88/219/15 80/252/16 82/251/14
f 126/254/10 148/253/10 149/255/11
f 149/255/11 129/256/11 126/254/10
f 144/253/40 143/255/25 78/256/26
f 78/256/26 93/254/40 144/253/40
f 88/257/15 131/236/2 130/235/34
f 130/235/34 128/237/34 88/257/15
f 128/258/34 130/228/34 150/227/35
f 150/227/35 127/259/35 128/258/34
f 127/249/35 150/247/35 148/246/10
f 148/246/10 126/260/10 127/249/35
f 43/262/17 36/261/17 149/263/17
f 149/263/17 123/264/17 43/262/17
f 51/266/44 50/265/44 41/267/44
f 41/267/44 37/268/44 51/266/44
f 41/267/44 97/3/44 37/268/44
f 97/3/44 36/269/44 37/268/44
f 97/3/44 149/4/44 36/269/44
f 97/3/44 129/2/44 149/4/44
f 144/271/45 93/270/45 92/272/45
f 92/272/45 3/273/45 144/271/45
f 92/272/45 1/274/45 3/273/45
f 92/272/45 52/275/45 1/274/45
f 92/272/45 53/276/45 52/275/45
f 92/272/45 7/277/45 53/276/45
