# Exported using Kenney Suite 1.1 

mtllib towerBase.mtl 

g towerBase

v -6.294096 0 0.1703709 
v -5 0 0 
v -6.294096 2.8 0.1703709 
v -5 2.8 0 
v -3.705905 0 0.1703709 
v -3.705905 2.8 0.1703709 
v -2.5 0 0.669873 
v -2.5 2.8 0.669873 
v -1.464466 0 1.464466 
v -1.464466 2.8 1.464466 
v -0.669873 2.8 2.5 
v -0.669873 0 2.5 
v -0.1703709 2.8 3.705905 
v -0.1703709 0 3.705905 
v 0 2.8 5 
v 0 0 5 
v -0.1703709 2.8 6.294096 
v -0.1703709 0 6.294096 
v -0.669873 2.8 7.5 
v -0.669873 0 7.5 
v -1.464466 2.8 8.535534 
v -1.464466 0 8.535534 
v -2.5 0 9.330128 
v -2.5 2.8 9.330128 
v -3.705905 0 9.829628 
v -3.705905 2.8 9.829628 
v -5 0 10 
v -5 2.8 10 
v -6.294096 0 9.829628 
v -6.294096 2.8 9.829628 
v -7.5 0 9.330128 
v -7.5 2.8 9.330128 
v -8.535534 0 8.535534 
v -8.535534 2.8 8.535534 
v -9.330128 0 7.5 
v -9.330128 2.8 7.5 
v -9.829628 0 6.294096 
v -9.829628 2.8 6.294096 
v -10 0 5 
v -10 2.8 5 
v -9.829628 0 3.705905 
v -9.829628 2.8 3.705905 
v -9.330128 0 2.5 
v -9.330128 2.8 2.5 
v -8.535534 0 1.464466 
v -8.535534 2.8 1.464466 
v -7.5 0 0.669873 
v -7.5 2.8 0.669873 
v -9.298369 4.5 6.151745 
v -8.853813 4.5 7.224999 
v -6.151745 4.5 0.7016301 
v -5 4.5 0.55 
v -8.146625 4.5 8.146625 
v -7.224999 4.5 8.853813 
v -6.151745 4.5 9.298369 
v -5 4.5 9.449999 
v -8.853813 4.5 2.775 
v -9.298369 4.5 3.848255 
v -3.848255 4.5 9.298369 
v -2.775 4.5 8.853813 
v -7.224999 4.5 1.146187 
v -8.146625 4.5 1.853375 
v -9.449999 4.5 5 
v -0.7016301 4.5 6.151745 
v -1.146187 4.5 7.224999 
v -1.853375 4.5 8.146625 
v -0.55 4.5 5 
v -0.7016301 4.5 3.848255 
v -3.848255 4.5 0.7016301 
v -2.775 4.5 1.146187 
v -1.853375 4.5 1.853375 
v -1.146187 4.5 2.775 
v -2.775 10.1 8.853813 
v -3.848255 10.1 9.298369 
v -2.775 11.1 8.853813 
v -3.848255 11.1 9.298369 
v -1.853375 10.1 8.146625 
v -1.853375 11.1 8.146625 
v -1.146187 11.1 7.224999 
v -1.146187 10.1 7.224999 
v -0.7016301 11.1 6.151745 
v -0.7016301 10.1 6.151745 
v -0.7016301 11.1 3.848255 
v -0.7016301 10.1 3.848255 
v -0.55 11.1 5 
v -0.55 10.1 5 
v -1.146187 11.1 2.775 
v -1.146187 10.1 2.775 
v -1.853375 11.1 1.853375 
v -1.853375 10.1 1.853375 
v -2.775 10.1 1.146187 
v -2.775 11.1 1.146187 
v -3.848255 10.1 0.7016301 
v -3.848255 11.1 0.7016301 
v -5 10.1 0.55 
v -5 11.1 0.55 
v -7.224999 10.1 1.146187 
v -6.151745 10.1 0.7016301 
v -7.224999 11.1 1.146187 
v -6.151745 11.1 0.7016301 
v -9.449999 10.1 5 
v -9.449999 11.1 5 
v -9.298369 10.1 6.151745 
v -9.298369 11.1 6.151745 
v -8.853813 10.1 7.224999 
v -8.853813 11.1 7.224999 
v -8.146625 10.1 8.146625 
v -8.146625 11.1 8.146625 
v -7.224999 10.1 8.853813 
v -7.224999 11.1 8.853813 
v -5 10.1 9.449999 
v -6.151745 10.1 9.298369 
v -5 11.1 9.449999 
v -6.151745 11.1 9.298369 
v -8.146625 10.1 1.853375 
v -8.146625 11.1 1.853375 
v -8.853813 10.1 2.775 
v -8.853813 11.1 2.775 
v -9.298369 10.1 3.848255 
v -9.298369 11.1 3.848255 
v 1.443823E-14 11.1 5 
v -0.1703709 11.1 3.705905 
v -0.1703709 11.1 6.294096 
v -0.669873 11.1 7.5 
v -1.464466 11.1 8.535534 
v -2.5 11.1 9.330128 
v -3.705905 11.1 9.829628 
v -5 11.1 10 
v -6.294096 11.1 9.829628 
v -7.5 11.1 9.330128 
v -8.535534 11.1 8.535534 
v -9.330128 11.1 7.5 
v -9.829628 11.1 6.294096 
v -9.829628 11.1 3.705905 
v -9.330128 11.1 2.5 
v -8.535534 11.1 1.464466 
v -7.5 11.1 0.669873 
v -6.294096 11.1 0.1703709 
v -5 11.1 4.331469E-14 
v -3.705905 11.1 0.1703709 
v -2.5 11.1 0.669873 
v -1.464466 11.1 1.464466 
v -0.669873 11.1 2.5 
v -10 11.1 5 
v -2.5 13.1 9.330128 
v -3.705905 13.1 9.829628 
v -1.464466 13.1 8.535534 
v -0.669873 13.1 7.5 
v -0.1703709 13.1 6.294096 
v 1.443823E-14 13.1 5 
v -0.1703709 13.1 3.705905 
v -0.669873 13.1 2.5 
v -1.464466 13.1 1.464466 
v -2.5 13.1 0.669873 
v -3.705905 13.1 0.1703709 
v -5 13.1 4.331469E-14 
v -6.294096 13.1 0.1703709 
v -7.5 13.1 0.669873 
v -8.535534 13.1 1.464466 
v -9.330128 13.1 2.5 
v -9.829628 13.1 3.705905 
v -10 13.1 5 
v -9.829628 13.1 6.294096 
v -9.330128 13.1 7.5 
v -8.535534 13.1 8.535534 
v -7.5 13.1 9.330128 
v -6.294096 13.1 9.829628 
v -5 13.1 10 

vn -0.258819 0 -0.9659258
vn 0 0 -1
vn 0.258819 0 -0.9659258
vn 0.5 0 -0.8660254
vn 0.7071068 0 -0.7071068
vn 0.8660254 0 -0.5
vn 0.9659258 0 -0.258819
vn 1 0 0
vn 0.9659258 0 0.258819
vn 0.8660254 0 0.5
vn 0.7071068 0 0.7071068
vn 0.5 0 0.8660254
vn 0.258819 0 0.9659258
vn 0 0 1
vn -0.258819 0 0.9659258
vn -0.5 0 0.8660254
vn -0.7071068 0 0.7071068
vn -0.8660254 0 0.5
vn -0.9659258 0 0.258819
vn -1 0 0
vn -0.9659258 0 -0.258819
vn -0.8660254 0 -0.5
vn -0.7071068 0 -0.7071068
vn -0.5 0 -0.8660254
vn -0.9190249 0.3078203 0.246252
vn -0.8239751 0.3078203 0.4757222
vn -0.246252 0.3078203 -0.9190249
vn 0 0.3078203 -0.9514446
vn -0.6727729 0.3078203 0.6727729
vn -0.4757222 0.3078203 0.8239751
vn -0.246252 0.3078203 0.9190249
vn 0 0.3078203 0.9514446
vn -0.8239751 0.3078203 -0.4757222
vn -0.9190249 0.3078203 -0.246252
vn 0.246252 0.3078203 0.9190249
vn 0.4757222 0.3078203 0.8239751
vn -0.4757222 0.3078203 -0.8239751
vn -0.6727729 0.3078203 -0.6727729
vn -0.9514446 0.3078203 0
vn 0.9190249 0.3078203 0.246252
vn 0.8239751 0.3078203 0.4757222
vn 0.6727729 0.3078203 0.6727729
vn 0.9514446 0.3078203 0
vn 0.9190249 0.3078203 -0.246252
vn 0.246252 0.3078203 -0.9190249
vn 0.4757222 0.3078203 -0.8239751
vn 0.6727729 0.3078203 -0.6727729
vn 0.8239751 0.3078203 -0.4757222
vn 0 -1 0
vn 0 1 0

vt 24.65546 0
vt 19.51663 0
vt 24.65546 11.02362
vt 19.51663 11.02362
vt 14.3778 0
vt 14.3778 11.02362
vt 13.22288 0
vt 8.084053 0
vt 13.22288 11.02362
vt 8.084053 11.02362
vt 6.203112 0
vt 1.064286 0
vt 6.203112 11.02362
vt 1.064286 11.02362
vt -1.064286 11.02362
vt -1.064286 0
vt -6.203112 11.02362
vt -6.203112 0
vt -8.084053 11.02362
vt -8.084053 0
vt -13.22288 11.02362
vt -13.22288 0
vt -14.3778 11.02362
vt -14.3778 0
vt -19.51663 11.02362
vt -19.51663 0
vt -24.65546 11.02362
vt -24.65546 0
vt -23.15033 11.02362
vt -23.15033 0
vt -28.28916 11.02362
vt -28.28916 0
vt -25.03127 11.02362
vt -25.03127 0
vt -30.1701 11.02362
vt -30.1701 0
vt 23.15033 0
vt 23.15033 11.02362
vt 28.28916 0
vt 28.28916 11.02362
vt 25.03127 0
vt 25.03127 11.02362
vt 30.1701 0
vt 30.1701 11.02362
vt 8.366689 3.708933
vt 12.94024 3.708933
vt 8.084053 -3.319862
vt 13.22288 -3.319862
vt 24.65546 9.712056
vt 19.51663 9.712056
vt 24.37282 16.74085
vt 19.79927 16.74085
vt 1.346921 3.134431
vt 5.920477 3.134431
vt 1.064286 -3.894365
vt 6.203112 -3.894365
vt -1.064286 -3.894365
vt -6.203112 -3.894365
vt -1.346921 3.134431
vt -5.920477 3.134431
vt -8.084053 -3.319862
vt -13.22288 -3.319862
vt -8.366689 3.708933
vt -12.94024 3.708933
vt -14.3778 -2.210009
vt -19.51663 -2.210009
vt -14.66044 4.818787
vt -19.234 4.818787
vt 23.15033 1.281883
vt 23.43297 8.310678
vt 28.28916 1.281883
vt 28.00652 8.310678
vt -19.51663 -0.6404392
vt -24.65546 -0.6404392
vt -19.79927 6.388356
vt -24.37282 6.388356
vt -23.15033 1.281883
vt -28.28916 1.281883
vt -23.43297 8.310678
vt -28.00652 8.310678
vt 28.28916 7.789734
vt 23.15033 7.789734
vt 28.00652 14.81853
vt 23.43297 14.81853
vt 30.1701 5.645662
vt 25.03127 5.645662
vt 29.88746 12.67446
vt 25.31391 12.67446
vt 25.03127 3.425955
vt 25.31391 10.45475
vt 30.1701 3.425955
vt 29.88746 10.45475
vt 19.51663 -0.6404392
vt 19.79927 6.388356
vt 24.65546 -0.6404392
vt 24.37282 6.388356
vt 14.66044 4.818787
vt 19.234 4.818787
vt 14.3778 -2.210009
vt 19.51663 -2.210009
vt -23.43297 14.81853
vt -23.15033 7.789734
vt -28.00652 14.81853
vt -28.28916 7.789734
vt -25.03127 3.425955
vt -30.1701 3.425955
vt -25.31391 10.45475
vt -29.88746 10.45475
vt -19.79927 16.74085
vt -19.51663 9.712056
vt -24.37282 16.74085
vt -24.65546 9.712056
vt -14.3778 11.28163
vt -19.51663 11.28163
vt -14.66044 18.31042
vt -19.234 18.31042
vt -25.31391 12.67446
vt -25.03127 5.645662
vt -29.88746 12.67446
vt -30.1701 5.645662
vt 13.22288 12.39148
vt 8.084053 12.39148
vt 12.94024 19.42027
vt 8.366689 19.42027
vt -1.064286 12.96598
vt -6.203112 12.96598
vt -1.346921 19.99478
vt -5.920477 19.99478
vt 6.203112 12.96598
vt 1.064286 12.96598
vt 5.920477 19.99478
vt 1.346921 19.99478
vt 19.51663 11.28163
vt 14.3778 11.28163
vt 19.234 18.31042
vt 14.66044 18.31042
vt -8.084053 12.39148
vt -13.22288 12.39148
vt -8.366689 19.42027
vt -12.94024 19.42027
vt -23.43297 39.76378
vt -28.00652 39.76378
vt -23.43297 43.70079
vt -28.00652 43.70079
vt -25.31391 39.76378
vt -29.88746 39.76378
vt -25.31391 43.70079
vt -29.88746 43.70079
vt -14.66044 43.70079
vt -14.66044 39.76378
vt -19.234 43.70079
vt -19.234 39.76378
vt -8.366689 43.70079
vt -8.366689 39.76378
vt -12.94024 43.70079
vt -12.94024 39.76378
vt -1.346921 43.70079
vt -1.346921 39.76378
vt -5.920477 43.70079
vt -5.920477 39.76378
vt 5.920477 39.76378
vt 1.346921 39.76378
vt 5.920477 43.70079
vt 1.346921 43.70079
vt 12.94024 39.76378
vt 8.366689 39.76378
vt 12.94024 43.70079
vt 8.366689 43.70079
vt 19.234 39.76378
vt 14.66044 39.76378
vt 19.234 43.70079
vt 14.66044 43.70079
vt -19.79927 43.70079
vt -19.79927 39.76378
vt -24.37282 43.70079
vt -24.37282 39.76378
vt 28.00652 39.76378
vt 23.43297 39.76378
vt 28.00652 43.70079
vt 23.43297 43.70079
vt 29.88746 39.76378
vt 25.31391 39.76378
vt 29.88746 43.70079
vt 25.31391 43.70079
vt 24.37282 39.76378
vt 19.79927 39.76378
vt 24.37282 43.70079
vt 19.79927 43.70079
vt 5.684342E-14 19.68504
vt -0.6707515 14.59018
vt -0.6707515 24.7799
vt -2.637295 29.52756
vt -2.165354 19.68504
vt -2.762323 24.21947
vt -5.765615 33.60447
vt -4.512547 28.44488
vt -7.296751 32.07333
vt -9.84252 36.73278
vt -10.9252 34.85753
vt -14.59018 38.69933
vt -15.15061 36.60775
vt -19.68504 39.37008
vt -19.68504 37.20472
vt -24.7799 38.69933
vt -24.21947 36.60775
vt -28.44488 34.85753
vt -29.52756 36.73278
vt -32.07333 32.07333
vt -33.60447 33.60447
vt -34.85753 28.44488
vt -36.73278 29.52756
vt -36.60775 24.21947
vt -37.20472 19.68504
vt -38.69933 24.7799
vt -38.69933 14.59018
vt -36.73278 9.84252
vt -36.60775 15.15061
vt -34.85753 10.9252
vt -33.60447 5.765615
vt -32.07333 7.296751
vt -29.52756 2.637295
vt -28.44488 4.512547
vt -24.7799 0.6707515
vt -24.21947 2.762323
vt -19.68504 1.705303E-13
vt -19.68504 2.165354
vt -15.15061 2.762323
vt -14.59018 0.6707515
vt -10.9252 4.512547
vt -9.84252 2.637295
vt -7.296751 7.296751
vt -5.765615 5.765615
vt -4.512547 10.9252
vt -2.762323 15.15061
vt -2.637295 9.84252
vt -39.37008 19.68504
vt -23.15033 43.70079
vt -28.28916 43.70079
vt -23.15033 51.5748
vt -28.28916 51.5748
vt -25.03127 43.70079
vt -30.1701 43.70079
vt -25.03127 51.5748
vt -30.1701 51.5748
vt -19.51663 51.5748
vt -19.51663 43.70079
vt -24.65546 51.5748
vt -24.65546 43.70079
vt -14.3778 43.70079
vt -14.3778 51.5748
vt -8.084053 51.5748
vt -8.084053 43.70079
vt -13.22288 51.5748
vt -13.22288 43.70079
vt -1.064286 51.5748
vt -1.064286 43.70079
vt -6.203112 51.5748
vt -6.203112 43.70079
vt 6.203112 43.70079
vt 1.064286 43.70079
vt 6.203112 51.5748
vt 1.064286 51.5748
vt 13.22288 43.70079
vt 8.084053 43.70079
vt 13.22288 51.5748
vt 8.084053 51.5748
vt 19.51663 43.70079
vt 14.3778 43.70079
vt 19.51663 51.5748
vt 14.3778 51.5748
vt 24.65546 51.5748
vt 24.65546 43.70079
vt 28.28916 43.70079
vt 23.15033 43.70079
vt 28.28916 51.5748
vt 23.15033 51.5748
vt 30.1701 43.70079
vt 25.03127 43.70079
vt 30.1701 51.5748
vt 25.03127 51.5748
vt 0 19.68504
vt -19.68504 0
vt 24.37282 17.71654
vt 19.79927 17.71654
vt 28.00652 17.71654
vt 23.43297 17.71654
vt 29.88746 17.71654
vt 25.31391 17.71654
vt 14.66044 17.71654
vt 19.234 17.71654
vt 8.366689 17.71654
vt 12.94024 17.71654
vt 1.346921 17.71654
vt 5.920477 17.71654
vt -1.346921 17.71654
vt -5.920477 17.71654
vt -8.366689 17.71654
vt -12.94024 17.71654
vt -14.66044 17.71654
vt -19.234 17.71654
vt -19.79927 17.71654
vt -24.37282 17.71654
vt -23.43297 17.71654
vt -28.00652 17.71654
vt -25.31391 17.71654
vt -29.88746 17.71654
vt -5.684342E-14 19.68504
vt 0.6707515 24.7799
vt 0.6707515 14.59018
vt 2.637295 9.84252
vt 2.637295 29.52756
vt 5.765615 5.765615
vt 5.765615 33.60447
vt 9.84252 2.637295
vt 9.84252 36.73278
vt 14.59018 0.6707515
vt 14.59018 38.69933
vt 19.68504 39.37008
vt 19.68504 1.705303E-13
vt 24.7799 0.6707515
vt 24.7799 38.69933
vt 29.52756 2.637295
vt 29.52756 36.73278
vt 33.60447 5.765615
vt 33.60447 33.60447
vt 36.73278 29.52756
vt 36.73278 9.84252
vt 38.69933 14.59018
vt 38.69933 24.7799
vt 39.37008 19.68504

usemtl wall
usemap wall

f 2/2/2 1/1/1 3/3/1
f 3/3/1 4/4/2 2/2/2
f 5/5/3 2/2/2 4/4/2
f 4/4/2 6/6/3 5/5/3
f 7/8/4 5/7/3 6/9/3
f 6/9/3 8/10/4 7/8/4
f 9/12/5 7/11/4 8/13/4
f 8/13/4 10/14/5 9/12/5
f 9/16/5 10/15/5 11/17/6
f 11/17/6 12/18/6 9/16/5
f 12/20/6 11/19/6 13/21/7
f 13/21/7 14/22/7 12/20/6
f 14/24/7 13/23/7 15/25/8
f 15/25/8 16/26/8 14/24/7
f 16/26/8 15/25/8 17/27/9
f 17/27/9 18/28/9 16/26/8
f 18/30/9 17/29/9 19/31/10
f 19/31/10 20/32/10 18/30/9
f 20/34/10 19/33/10 21/35/11
f 21/35/11 22/36/11 20/34/10
f 23/36/12 22/34/11 21/33/11
f 21/33/11 24/35/12 23/36/12
f 25/32/13 23/30/12 24/29/12
f 24/29/12 26/31/13 25/32/13
f 27/28/14 25/26/13 26/25/13
f 26/25/13 28/27/14 27/28/14
f 29/26/15 27/24/14 28/23/14
f 28/23/14 30/25/15 29/26/15
f 31/22/16 29/20/15 30/19/15
f 30/19/15 32/21/16 31/22/16
f 33/18/17 31/16/16 32/15/16
f 32/15/16 34/17/17 33/18/17
f 36/14/18 35/12/18 33/11/17
f 33/11/17 34/13/17 36/14/18
f 38/10/19 37/8/19 35/7/18
f 35/7/18 36/9/18 38/10/19
f 40/6/20 39/5/20 37/2/19
f 37/2/19 38/4/19 40/6/20
f 42/4/21 41/2/21 39/1/20
f 39/1/20 40/3/20 42/4/21
f 44/38/22 43/37/22 41/39/21
f 41/39/21 42/40/21 44/38/22
f 46/42/23 45/41/23 43/43/22
f 43/43/22 44/44/22 46/42/23
f 47/41/24 45/43/23 46/44/23
f 46/44/23 48/42/24 47/41/24
f 1/37/1 47/39/24 48/40/24
f 48/40/24 3/38/1 1/37/1
f 50/46/26 49/45/25 38/47/25
f 38/47/25 36/48/26 50/46/26
f 4/50/28 3/49/27 51/51/27
f 51/51/27 52/52/28 4/50/28
f 53/54/29 50/53/26 36/55/26
f 36/55/26 34/56/29 53/54/29
f 34/58/29 32/57/30 54/59/30
f 54/59/30 53/60/29 34/58/29
f 32/62/30 30/61/31 55/63/31
f 55/63/31 54/64/30 32/62/30
f 30/66/31 28/65/32 56/67/32
f 56/67/32 55/68/31 30/66/31
f 57/70/33 44/69/33 42/71/34
f 42/71/34 58/72/34 57/70/33
f 28/74/32 26/73/35 59/75/35
f 59/75/35 56/76/32 28/74/32
f 26/78/35 24/77/36 60/79/36
f 60/79/36 59/80/35 26/78/35
f 3/82/27 48/81/37 61/83/37
f 61/83/37 51/84/27 3/82/27
f 48/86/37 46/85/38 62/87/38
f 62/87/38 61/88/37 48/86/37
f 62/90/38 46/89/38 44/91/33
f 44/91/33 57/92/33 62/90/38
f 58/94/34 42/93/34 40/95/39
f 40/95/39 63/96/39 58/94/34
f 49/98/25 63/97/39 40/99/39
f 40/99/39 38/100/25 49/98/25
f 17/102/40 64/101/40 65/103/41
f 65/103/41 19/104/41 17/102/40
f 24/106/36 21/105/42 66/107/42
f 66/107/42 60/108/36 24/106/36
f 15/110/43 67/109/43 64/111/40
f 64/111/40 17/112/40 15/110/43
f 15/114/43 13/113/44 68/115/44
f 68/115/44 67/116/43 15/114/43
f 19/118/41 65/117/41 66/119/42
f 66/119/42 21/120/42 19/118/41
f 8/122/46 6/121/45 69/123/45
f 69/123/45 70/124/46 8/122/46
f 11/126/48 10/125/47 71/127/47
f 71/127/47 72/128/48 11/126/48
f 10/130/47 8/129/46 70/131/46
f 70/131/46 71/132/47 10/130/47
f 6/134/45 4/133/28 52/135/28
f 52/135/28 69/136/45 6/134/45
f 13/138/44 11/137/48 72/139/48
f 72/139/48 68/140/44 13/138/44
f 74/142/13 73/141/12 75/143/12
f 75/143/12 76/144/13 74/142/13
f 73/146/12 77/145/11 78/147/11
f 78/147/11 75/148/12 73/146/12
f 80/145/10 79/147/10 78/148/11
f 78/148/11 77/146/11 80/145/10
f 82/141/9 81/143/9 79/144/10
f 79/144/10 80/142/10 82/141/9
f 84/150/7 83/149/7 85/151/8
f 85/151/8 86/152/8 84/150/7
f 88/154/6 87/153/6 83/155/7
f 83/155/7 84/156/7 88/154/6
f 90/158/5 89/157/5 87/159/6
f 87/159/6 88/160/6 90/158/5
f 90/162/5 91/161/4 92/163/4
f 92/163/4 89/164/5 90/162/5
f 91/166/4 93/165/3 94/167/3
f 94/167/3 92/168/4 91/166/4
f 93/170/3 95/169/2 96/171/2
f 96/171/2 94/172/3 93/170/3
f 86/174/8 85/173/8 81/175/9
f 81/175/9 82/176/9 86/174/8
f 98/178/1 97/177/24 99/179/24
f 99/179/24 100/180/1 98/178/1
f 102/172/20 101/170/20 103/169/19
f 103/169/19 104/171/19 102/172/20
f 104/168/19 103/166/19 105/165/18
f 105/165/18 106/167/18 104/168/19
f 106/164/18 105/162/18 107/161/17
f 107/161/17 108/163/17 106/164/18
f 107/160/17 109/158/16 110/157/16
f 110/157/16 108/159/17 107/160/17
f 112/152/15 111/150/14 113/149/14
f 113/149/14 114/151/15 112/152/15
f 109/156/16 112/154/15 114/153/15
f 114/153/15 110/155/16 109/156/16
f 111/176/14 74/174/13 76/173/13
f 76/173/13 113/175/14 111/176/14
f 97/182/24 115/181/23 116/183/23
f 116/183/23 99/184/24 97/182/24
f 118/180/22 117/178/22 119/177/21
f 119/177/21 120/179/21 118/180/22
f 116/184/23 115/182/23 117/181/22
f 117/181/22 118/183/22 116/184/23
f 95/186/2 98/185/1 100/187/1
f 100/187/1 96/188/2 95/186/2
f 120/188/21 119/186/21 101/185/20
f 101/185/20 102/187/20 120/188/21
f 122/190/49 121/189/49 123/191/49
f 123/191/49 124/192/49 122/190/49
f 124/192/49 85/193/49 122/190/49
f 124/192/49 81/194/49 85/193/49
f 124/192/49 125/195/49 81/194/49
f 125/195/49 79/196/49 81/194/49
f 125/195/49 78/197/49 79/196/49
f 125/195/49 126/198/49 78/197/49
f 126/198/49 75/199/49 78/197/49
f 126/198/49 127/200/49 75/199/49
f 127/200/49 76/201/49 75/199/49
f 127/200/49 128/202/49 76/201/49
f 128/202/49 113/203/49 76/201/49
f 128/202/49 129/204/49 113/203/49
f 129/204/49 114/205/49 113/203/49
f 129/204/49 110/206/49 114/205/49
f 129/204/49 130/207/49 110/206/49
f 130/207/49 108/208/49 110/206/49
f 130/207/49 131/209/49 108/208/49
f 131/209/49 106/210/49 108/208/49
f 131/209/49 132/211/49 106/210/49
f 132/211/49 104/212/49 106/210/49
f 132/211/49 102/213/49 104/212/49
f 132/211/49 133/214/49 102/213/49
f 102/213/49 133/214/49 134/215/49
f 102/213/49 134/215/49 135/216/49
f 120/217/49 102/213/49 135/216/49
f 118/218/49 120/217/49 135/216/49
f 118/218/49 135/216/49 136/219/49
f 116/220/49 118/218/49 136/219/49
f 116/220/49 136/219/49 137/221/49
f 99/222/49 116/220/49 137/221/49
f 99/222/49 137/221/49 138/223/49
f 100/224/49 99/222/49 138/223/49
f 100/224/49 138/223/49 139/225/49
f 96/226/49 100/224/49 139/225/49
f 94/227/49 96/226/49 139/225/49
f 94/227/49 139/225/49 140/228/49
f 92/229/49 94/227/49 140/228/49
f 92/229/49 140/228/49 141/230/49
f 89/231/49 92/229/49 141/230/49
f 89/231/49 141/230/49 142/232/49
f 87/233/49 89/231/49 142/232/49
f 83/234/49 87/233/49 142/232/49
f 83/234/49 142/232/49 143/235/49
f 85/193/49 83/234/49 143/235/49
f 143/235/49 122/190/49 85/193/49
f 133/214/49 144/236/49 134/215/49
f 127/238/13 126/237/12 145/239/12
f 145/239/12 146/240/13 127/238/13
f 126/242/12 125/241/11 147/243/11
f 147/243/11 145/244/12 126/242/12
f 124/241/10 148/243/10 147/244/11
f 147/244/11 125/242/11 124/241/10
f 123/237/9 149/239/9 148/240/10
f 148/240/10 124/238/10 123/237/9
f 121/246/8 150/245/8 149/247/9
f 149/247/9 123/248/9 121/246/8
f 150/245/8 121/246/8 122/249/7
f 122/249/7 151/250/7 150/245/8
f 143/252/6 152/251/6 151/253/7
f 151/253/7 122/254/7 143/252/6
f 142/256/5 153/255/5 152/257/6
f 152/257/6 143/258/6 142/256/5
f 142/260/5 141/259/4 154/261/4
f 154/261/4 153/262/5 142/260/5
f 141/264/4 140/263/3 155/265/3
f 155/265/3 154/266/4 141/264/4
f 140/268/3 139/267/2 156/269/2
f 156/269/2 155/270/3 140/268/3
f 157/271/1 156/269/2 139/267/2
f 139/267/2 138/272/1 157/271/1
f 138/274/1 137/273/24 158/275/24
f 158/275/24 157/276/1 138/274/1
f 137/278/24 136/277/23 159/279/23
f 159/279/23 158/280/24 137/278/24
f 159/280/23 136/278/23 135/277/22
f 135/277/22 160/279/22 159/280/23
f 160/276/22 135/274/22 134/273/21
f 134/273/21 161/275/21 160/276/22
f 161/269/21 134/267/21 144/272/20
f 144/272/20 162/271/20 161/269/21
f 162/270/20 144/268/20 133/267/19
f 133/267/19 163/269/19 162/270/20
f 163/266/19 133/264/19 132/263/18
f 132/263/18 164/265/18 163/266/19
f 164/262/18 132/260/18 131/259/17
f 131/259/17 165/261/17 164/262/18
f 131/258/17 130/256/16 166/255/16
f 166/255/16 165/257/17 131/258/17
f 130/254/16 129/252/15 167/251/15
f 167/251/15 166/253/16 130/254/16
f 129/246/15 128/249/14 168/250/14
f 168/250/14 167/245/15 129/246/15
f 128/248/14 127/246/13 146/245/13
f 146/245/13 168/247/14 128/248/14
f 14/190/49 16/281/49 18/191/49
f 18/191/49 20/192/49 14/190/49
f 20/192/49 12/235/49 14/190/49
f 20/192/49 22/195/49 12/235/49
f 22/195/49 9/232/49 12/235/49
f 22/195/49 23/198/49 9/232/49
f 23/198/49 7/230/49 9/232/49
f 23/198/49 5/228/49 7/230/49
f 23/198/49 25/200/49 5/228/49
f 25/200/49 27/202/49 5/228/49
f 27/202/49 2/282/49 5/228/49
f 27/202/49 29/204/49 2/282/49
f 29/204/49 1/223/49 2/282/49
f 29/204/49 31/207/49 1/223/49
f 31/207/49 47/221/49 1/223/49
f 31/207/49 45/219/49 47/221/49
f 31/207/49 33/209/49 45/219/49
f 33/209/49 43/216/49 45/219/49
f 33/209/49 35/211/49 43/216/49
f 35/211/49 37/214/49 43/216/49
f 37/214/49 41/215/49 43/216/49
f 37/214/49 39/236/49 41/215/49

usemtl wallDark
usemap wallDark

f 52/284/2 51/283/1 98/185/1
f 98/185/1 95/186/2 52/284/2
f 51/286/1 61/285/24 97/177/24
f 97/177/24 98/178/1 51/286/1
f 61/288/24 62/287/23 115/181/23
f 115/181/23 97/182/24 61/288/24
f 115/182/23 62/288/23 57/287/22
f 57/287/22 117/181/22 115/182/23
f 117/178/22 57/286/22 58/285/21
f 58/285/21 119/177/21 117/178/22
f 119/186/21 58/284/21 63/283/20
f 63/283/20 101/185/20 119/186/21
f 101/170/20 63/289/20 49/290/19
f 49/290/19 103/169/19 101/170/20
f 103/166/19 49/291/19 50/292/18
f 50/292/18 105/165/18 103/166/19
f 105/162/18 50/293/18 53/294/17
f 53/294/17 107/161/17 105/162/18
f 53/296/17 54/295/16 109/158/16
f 109/158/16 107/160/17 53/296/17
f 54/298/16 55/297/15 112/154/15
f 112/154/15 109/156/16 54/298/16
f 55/300/15 56/299/14 111/150/14
f 111/150/14 112/152/15 55/300/15
f 56/302/14 59/301/13 74/174/13
f 74/174/13 111/176/14 56/302/14
f 59/304/13 60/303/12 73/141/12
f 73/141/12 74/142/13 59/304/13
f 60/306/12 66/305/11 77/145/11
f 77/145/11 73/146/12 60/306/12
f 65/305/10 80/145/10 77/146/11
f 77/146/11 66/306/11 65/305/10
f 64/303/9 82/141/9 80/142/10
f 80/142/10 65/304/10 64/303/9
f 67/301/8 86/174/8 82/176/9
f 82/176/9 64/302/9 67/301/8
f 68/299/7 84/150/7 86/152/8
f 86/152/8 67/300/8 68/299/7
f 72/297/6 88/154/6 84/156/7
f 84/156/7 68/298/7 72/297/6
f 71/295/5 90/158/5 88/160/6
f 88/160/6 72/296/6 71/295/5
f 71/293/5 70/294/4 91/161/4
f 91/161/4 90/162/5 71/293/5
f 70/291/4 69/292/3 93/165/3
f 93/165/3 91/166/4 70/291/4
f 69/289/3 52/290/2 95/169/2
f 95/169/2 93/170/3 69/289/3
f 149/308/50 150/307/50 151/309/50
f 151/309/50 152/310/50 149/308/50
f 152/310/50 148/311/50 149/308/50
f 152/310/50 153/312/50 148/311/50
f 153/312/50 147/313/50 148/311/50
f 153/312/50 154/314/50 147/313/50
f 154/314/50 145/315/50 147/313/50
f 154/314/50 155/316/50 145/315/50
f 155/316/50 146/317/50 145/315/50
f 155/316/50 168/318/50 146/317/50
f 155/316/50 156/319/50 168/318/50
f 156/319/50 157/320/50 168/318/50
f 157/320/50 167/321/50 168/318/50
f 157/320/50 158/322/50 167/321/50
f 158/322/50 166/323/50 167/321/50
f 158/322/50 159/324/50 166/323/50
f 159/324/50 165/325/50 166/323/50
f 159/324/50 164/326/50 165/325/50
f 159/324/50 160/327/50 164/326/50
f 160/327/50 161/328/50 164/326/50
f 161/328/50 163/329/50 164/326/50
f 161/328/50 162/330/50 163/329/50
